%TF.GenerationSoftware,KiCad,Pcbnew,9.0.0*%
%TF.CreationDate,2025-06-16T15:16:05+05:00*%
%TF.ProjectId,dronemotordriver,64726f6e-656d-46f7-946f-726472697665,rev?*%
%TF.SameCoordinates,Original*%
%TF.FileFunction,Legend,Top*%
%TF.FilePolarity,Positive*%
%FSLAX46Y46*%
G04 Gerber Fmt 4.6, Leading zero omitted, Abs format (unit mm)*
G04 Created by KiCad (PCBNEW 9.0.0) date 2025-06-16 15:16:05*
%MOMM*%
%LPD*%
G01*
G04 APERTURE LIST*
%ADD10C,0.120000*%
%ADD11C,0.000000*%
G04 APERTURE END LIST*
D10*
%TO.C,R3*%
X121322936Y-96115000D02*
X122777064Y-96115000D01*
X121322936Y-97935000D02*
X122777064Y-97935000D01*
%TO.C,R2*%
X115922936Y-96090000D02*
X117377064Y-96090000D01*
X115922936Y-97910000D02*
X117377064Y-97910000D01*
%TO.C,Q2*%
X115365000Y-93537500D02*
X115365000Y-92887500D01*
X115365000Y-93537500D02*
X115365000Y-94187500D01*
X118485000Y-93537500D02*
X118485000Y-92887500D01*
X118485000Y-93537500D02*
X118485000Y-94187500D01*
X115415000Y-94700000D02*
X115085000Y-94940000D01*
X115085000Y-94460000D01*
X115415000Y-94700000D01*
G36*
X115415000Y-94700000D02*
G01*
X115085000Y-94940000D01*
X115085000Y-94460000D01*
X115415000Y-94700000D01*
G37*
%TO.C,+5V*%
X109940000Y-101385000D02*
X109940000Y-100275000D01*
X110700000Y-101385000D02*
X109940000Y-101385000D01*
X111460000Y-99165000D02*
X112665000Y-99165000D01*
X111460000Y-99711529D02*
X111460000Y-99165000D01*
X111460000Y-101385000D02*
X111460000Y-100838471D01*
X111460000Y-101385000D02*
X112665000Y-101385000D01*
X112665000Y-99967470D02*
X112665000Y-99165000D01*
X112665000Y-101385000D02*
X112665000Y-100582530D01*
D11*
%TO.C,G\u002A\u002A\u002A*%
G36*
X126885955Y-100895045D02*
G01*
X126885955Y-101009053D01*
X126864954Y-101009053D01*
X126843952Y-101009053D01*
X126843952Y-100895045D01*
X126843952Y-100781036D01*
X126864954Y-100781036D01*
X126885955Y-100781036D01*
X126885955Y-100895045D01*
G37*
G36*
X126974032Y-101246407D02*
G01*
X126974902Y-101253075D01*
X126969217Y-101263253D01*
X126960332Y-101265682D01*
X126956086Y-101263198D01*
X126951835Y-101252904D01*
X126957205Y-101244811D01*
X126964401Y-101243072D01*
X126974032Y-101246407D01*
G37*
G36*
X127367419Y-101250131D02*
G01*
X127368993Y-101255073D01*
X127364005Y-101263545D01*
X127358492Y-101265931D01*
X127349987Y-101263844D01*
X127347992Y-101255073D01*
X127351029Y-101245224D01*
X127358492Y-101244214D01*
X127367419Y-101250131D01*
G37*
G36*
X127672017Y-100895045D02*
G01*
X127672017Y-101009053D01*
X127651015Y-101009053D01*
X127630014Y-101009053D01*
X127630014Y-100895045D01*
X127630014Y-100781036D01*
X127651015Y-100781036D01*
X127672017Y-100781036D01*
X127672017Y-100895045D01*
G37*
G36*
X127859458Y-101250131D02*
G01*
X127861032Y-101255073D01*
X127856044Y-101263545D01*
X127850531Y-101265931D01*
X127842026Y-101263844D01*
X127840030Y-101255073D01*
X127843067Y-101245224D01*
X127850531Y-101244214D01*
X127859458Y-101250131D01*
G37*
G36*
X126441847Y-101246883D02*
G01*
X126446775Y-101253696D01*
X126446422Y-101256576D01*
X126438993Y-101264286D01*
X126428051Y-101265633D01*
X126420801Y-101260883D01*
X126420535Y-101251165D01*
X126422838Y-101247753D01*
X126432100Y-101244240D01*
X126441847Y-101246883D01*
G37*
G36*
X127615781Y-101381886D02*
G01*
X127617313Y-101386184D01*
X127614003Y-101396807D01*
X127609318Y-101408278D01*
X127602171Y-101421068D01*
X127594955Y-101428254D01*
X127589983Y-101428594D01*
X127589568Y-101420845D01*
X127590130Y-101418586D01*
X127594222Y-101404094D01*
X127596939Y-101394584D01*
X127603183Y-101384067D01*
X127609416Y-101381083D01*
X127615781Y-101381886D01*
G37*
G36*
X126437210Y-101293116D02*
G01*
X126439925Y-101300577D01*
X126441383Y-101315472D01*
X126441900Y-101339813D01*
X126441920Y-101348080D01*
X126441598Y-101375254D01*
X126440420Y-101392450D01*
X126438068Y-101401681D01*
X126434225Y-101404959D01*
X126432920Y-101405085D01*
X126428629Y-101403045D01*
X126425914Y-101395583D01*
X126424456Y-101380688D01*
X126423939Y-101356348D01*
X126423919Y-101348080D01*
X126424241Y-101320907D01*
X126425419Y-101303710D01*
X126427771Y-101294479D01*
X126431614Y-101291201D01*
X126432920Y-101291076D01*
X126437210Y-101293116D01*
G37*
G36*
X126968400Y-101296355D02*
G01*
X126971395Y-101304509D01*
X126973329Y-101320512D01*
X126974583Y-101346339D01*
X126974687Y-101349580D01*
X126975337Y-101375601D01*
X126975026Y-101391898D01*
X126973318Y-101400734D01*
X126969775Y-101404374D01*
X126963961Y-101405085D01*
X126958146Y-101404374D01*
X126954604Y-101400732D01*
X126952896Y-101391894D01*
X126952586Y-101375595D01*
X126953235Y-101349580D01*
X126954442Y-101322648D01*
X126956290Y-101305740D01*
X126959160Y-101296881D01*
X126963435Y-101294096D01*
X126963961Y-101294076D01*
X126968400Y-101296355D01*
G37*
G36*
X127361283Y-101293116D02*
G01*
X127363998Y-101300577D01*
X127365456Y-101315472D01*
X127365973Y-101339813D01*
X127365993Y-101348080D01*
X127365671Y-101375254D01*
X127364493Y-101392450D01*
X127362141Y-101401681D01*
X127358298Y-101404959D01*
X127356992Y-101405085D01*
X127352702Y-101403045D01*
X127349987Y-101395583D01*
X127348529Y-101380688D01*
X127348011Y-101356348D01*
X127347992Y-101348080D01*
X127348314Y-101320907D01*
X127349492Y-101303710D01*
X127351844Y-101294479D01*
X127355687Y-101291201D01*
X127356992Y-101291076D01*
X127361283Y-101293116D01*
G37*
G36*
X127853322Y-101293116D02*
G01*
X127856037Y-101300577D01*
X127857494Y-101315472D01*
X127858012Y-101339813D01*
X127858032Y-101348080D01*
X127857710Y-101375254D01*
X127856531Y-101392450D01*
X127854180Y-101401681D01*
X127850336Y-101404959D01*
X127849031Y-101405085D01*
X127844740Y-101403045D01*
X127842025Y-101395583D01*
X127840568Y-101380688D01*
X127840050Y-101356348D01*
X127840030Y-101348080D01*
X127840352Y-101320907D01*
X127841531Y-101303710D01*
X127843882Y-101294479D01*
X127847726Y-101291201D01*
X127849031Y-101291076D01*
X127853322Y-101293116D01*
G37*
G36*
X127888034Y-100799037D02*
G01*
X127887480Y-100809328D01*
X127883848Y-100814685D01*
X127874185Y-100816718D01*
X127855536Y-100817038D01*
X127855032Y-100817038D01*
X127822029Y-100817038D01*
X127822029Y-100913046D01*
X127822029Y-101009053D01*
X127798027Y-101009053D01*
X127774025Y-101009053D01*
X127774025Y-100913046D01*
X127774025Y-100817038D01*
X127741023Y-100817038D01*
X127722155Y-100816736D01*
X127712335Y-100814755D01*
X127708608Y-100809484D01*
X127708020Y-100799312D01*
X127708020Y-100799037D01*
X127708020Y-100781036D01*
X127798027Y-100781036D01*
X127888034Y-100781036D01*
X127888034Y-100799037D01*
G37*
G36*
X128092799Y-101250811D02*
G01*
X128095368Y-101257210D01*
X128096963Y-101270044D01*
X128097788Y-101291089D01*
X128098048Y-101322120D01*
X128098051Y-101327079D01*
X128097850Y-101359567D01*
X128097112Y-101381833D01*
X128095631Y-101395654D01*
X128093203Y-101402804D01*
X128089622Y-101405059D01*
X128089050Y-101405085D01*
X128085301Y-101403346D01*
X128082732Y-101396947D01*
X128081137Y-101384113D01*
X128080312Y-101363068D01*
X128080052Y-101332037D01*
X128080049Y-101327079D01*
X128080250Y-101294590D01*
X128080988Y-101272324D01*
X128082469Y-101258503D01*
X128084897Y-101251353D01*
X128088478Y-101249098D01*
X128089050Y-101249072D01*
X128092799Y-101250811D01*
G37*
G36*
X126369801Y-101249671D02*
G01*
X126389114Y-101251337D01*
X126399009Y-101253877D01*
X126399917Y-101255073D01*
X126394594Y-101258830D01*
X126381295Y-101260920D01*
X126375915Y-101261073D01*
X126351913Y-101261073D01*
X126351913Y-101333079D01*
X126351687Y-101364124D01*
X126350857Y-101385009D01*
X126349194Y-101397572D01*
X126346466Y-101403646D01*
X126342912Y-101405085D01*
X126339032Y-101403279D01*
X126336421Y-101396639D01*
X126334851Y-101383329D01*
X126334092Y-101361511D01*
X126333912Y-101333079D01*
X126333912Y-101261073D01*
X126309910Y-101261073D01*
X126294880Y-101259742D01*
X126286520Y-101256418D01*
X126285908Y-101255073D01*
X126291594Y-101252243D01*
X126307422Y-101250210D01*
X126331551Y-101249168D01*
X126342912Y-101249072D01*
X126369801Y-101249671D01*
G37*
G36*
X127022839Y-101295906D02*
G01*
X127023966Y-101300417D01*
X127025051Y-101306403D01*
X127030429Y-101304994D01*
X127037302Y-101300417D01*
X127052729Y-101292346D01*
X127062828Y-101292704D01*
X127065969Y-101300076D01*
X127061166Y-101308032D01*
X127056969Y-101309077D01*
X127041297Y-101314535D01*
X127030311Y-101330160D01*
X127024629Y-101354827D01*
X127023966Y-101369082D01*
X127023275Y-101389987D01*
X127020824Y-101401211D01*
X127016050Y-101405014D01*
X127014965Y-101405085D01*
X127010675Y-101403045D01*
X127007960Y-101395583D01*
X127006502Y-101380688D01*
X127005984Y-101356348D01*
X127005965Y-101348080D01*
X127006287Y-101320907D01*
X127007465Y-101303710D01*
X127009817Y-101294479D01*
X127013660Y-101291201D01*
X127014965Y-101291076D01*
X127022839Y-101295906D01*
G37*
G36*
X127430372Y-101272045D02*
G01*
X127431998Y-101278676D01*
X127436424Y-101288445D01*
X127448037Y-101292177D01*
X127462081Y-101296283D01*
X127466681Y-101302317D01*
X127461476Y-101307471D01*
X127450213Y-101309077D01*
X127431426Y-101309077D01*
X127433212Y-101346580D01*
X127434638Y-101367296D01*
X127437160Y-101378887D01*
X127441892Y-101384226D01*
X127448500Y-101386000D01*
X127459055Y-101390747D01*
X127462001Y-101396501D01*
X127457284Y-101403138D01*
X127446083Y-101404869D01*
X127432824Y-101401791D01*
X127423426Y-101395655D01*
X127417345Y-101384042D01*
X127414405Y-101363530D01*
X127413997Y-101347652D01*
X127413384Y-101325911D01*
X127411198Y-101313883D01*
X127406914Y-101309325D01*
X127404996Y-101309077D01*
X127397041Y-101304274D01*
X127395995Y-101300076D01*
X127400799Y-101292121D01*
X127404996Y-101291076D01*
X127412326Y-101286073D01*
X127413997Y-101279075D01*
X127417749Y-101269301D01*
X127422997Y-101267074D01*
X127430372Y-101272045D01*
G37*
G36*
X127168207Y-101298806D02*
G01*
X127178751Y-101307430D01*
X127188598Y-101318134D01*
X127190276Y-101323407D01*
X127184528Y-101325857D01*
X127184026Y-101325958D01*
X127171812Y-101323395D01*
X127165759Y-101318133D01*
X127153637Y-101310662D01*
X127137752Y-101310105D01*
X127119419Y-101316675D01*
X127108081Y-101330197D01*
X127104142Y-101347595D01*
X127108007Y-101365790D01*
X127120080Y-101381705D01*
X127127646Y-101386941D01*
X127138918Y-101392060D01*
X127148125Y-101391005D01*
X127160654Y-101383006D01*
X127161966Y-101382040D01*
X127177393Y-101372559D01*
X127186274Y-101370885D01*
X127187414Y-101376571D01*
X127179973Y-101388727D01*
X127168681Y-101399736D01*
X127154711Y-101404390D01*
X127141073Y-101405085D01*
X127122252Y-101403419D01*
X127109161Y-101396641D01*
X127099505Y-101386623D01*
X127086151Y-101363185D01*
X127084447Y-101339465D01*
X127094356Y-101316923D01*
X127101511Y-101308616D01*
X127123072Y-101294058D01*
X127145998Y-101290777D01*
X127168207Y-101298806D01*
G37*
G36*
X126491191Y-101294511D02*
G01*
X126492934Y-101297092D01*
X126500904Y-101299845D01*
X126507895Y-101297092D01*
X126529179Y-101291359D01*
X126550083Y-101295117D01*
X126561930Y-101303077D01*
X126568385Y-101311738D01*
X126572076Y-101323744D01*
X126573683Y-101342323D01*
X126573931Y-101360081D01*
X126573459Y-101383819D01*
X126571755Y-101397753D01*
X126568385Y-101404054D01*
X126564930Y-101405085D01*
X126559978Y-101402564D01*
X126557176Y-101393521D01*
X126556033Y-101375735D01*
X126555929Y-101364281D01*
X126554774Y-101337725D01*
X126550562Y-101321016D01*
X126542171Y-101312157D01*
X126528480Y-101309152D01*
X126524938Y-101309077D01*
X126511029Y-101312128D01*
X126502058Y-101322307D01*
X126497274Y-101341159D01*
X126495924Y-101368687D01*
X126495246Y-101389722D01*
X126492840Y-101401071D01*
X126488147Y-101404993D01*
X126486924Y-101405085D01*
X126482633Y-101403045D01*
X126479918Y-101395583D01*
X126478460Y-101380688D01*
X126477943Y-101356348D01*
X126477923Y-101348080D01*
X126478716Y-101317453D01*
X126481144Y-101298479D01*
X126485278Y-101290913D01*
X126491191Y-101294511D01*
G37*
G36*
X127427044Y-100865586D02*
G01*
X127427924Y-100899142D01*
X127428986Y-100922807D01*
X127430586Y-100938693D01*
X127433078Y-100948908D01*
X127436816Y-100955563D01*
X127442153Y-100960767D01*
X127443164Y-100961594D01*
X127463305Y-100971033D01*
X127486764Y-100972304D01*
X127504136Y-100966980D01*
X127513852Y-100957232D01*
X127520873Y-100939231D01*
X127525403Y-100911971D01*
X127527643Y-100874445D01*
X127527972Y-100848541D01*
X127528006Y-100781036D01*
X127549007Y-100781036D01*
X127570009Y-100781036D01*
X127570000Y-100863542D01*
X127569342Y-100904618D01*
X127567026Y-100935719D01*
X127562521Y-100958817D01*
X127555299Y-100975886D01*
X127544828Y-100988897D01*
X127534006Y-100997540D01*
X127512090Y-101007012D01*
X127483699Y-101011399D01*
X127453504Y-101010062D01*
X127448519Y-101009218D01*
X127426793Y-101002882D01*
X127410293Y-100992252D01*
X127398396Y-100975911D01*
X127390480Y-100952440D01*
X127385923Y-100920422D01*
X127384101Y-100878440D01*
X127383994Y-100862235D01*
X127383994Y-100781036D01*
X127404543Y-100781036D01*
X127425091Y-100781036D01*
X127427044Y-100865586D01*
G37*
G36*
X126877106Y-101245631D02*
G01*
X126894718Y-101252362D01*
X126907824Y-101261002D01*
X126918173Y-101271894D01*
X126924035Y-101282293D01*
X126923682Y-101289455D01*
X126919102Y-101291076D01*
X126909324Y-101287108D01*
X126896883Y-101277422D01*
X126895501Y-101276075D01*
X126875964Y-101264141D01*
X126853653Y-101262212D01*
X126831860Y-101269937D01*
X126815640Y-101284555D01*
X126809655Y-101299968D01*
X126807899Y-101321645D01*
X126810125Y-101344713D01*
X126816086Y-101364300D01*
X126820023Y-101370812D01*
X126838477Y-101385806D01*
X126860182Y-101390793D01*
X126881925Y-101385876D01*
X126900495Y-101371160D01*
X126902797Y-101368130D01*
X126912172Y-101359773D01*
X126921863Y-101357209D01*
X126927626Y-101361211D01*
X126927959Y-101363543D01*
X126924034Y-101371530D01*
X126914239Y-101383569D01*
X126910419Y-101387545D01*
X126888693Y-101401412D01*
X126862733Y-101406262D01*
X126836325Y-101402001D01*
X126814810Y-101389887D01*
X126796734Y-101367953D01*
X126787310Y-101341865D01*
X126786237Y-101314383D01*
X126793213Y-101288272D01*
X126807934Y-101266292D01*
X126829985Y-101251254D01*
X126854809Y-101243990D01*
X126877106Y-101245631D01*
G37*
G36*
X127548637Y-101295048D02*
G01*
X127562856Y-101304952D01*
X127569834Y-101317764D01*
X127570009Y-101320050D01*
X127566635Y-101326566D01*
X127558491Y-101324231D01*
X127552008Y-101318078D01*
X127540805Y-101311420D01*
X127527271Y-101309077D01*
X127514360Y-101311200D01*
X127510077Y-101318836D01*
X127510004Y-101320729D01*
X127513319Y-101329173D01*
X127524775Y-101335944D01*
X127538425Y-101340408D01*
X127560585Y-101350157D01*
X127573090Y-101363340D01*
X127575143Y-101378506D01*
X127567173Y-101392902D01*
X127552082Y-101402024D01*
X127531859Y-101405410D01*
X127511603Y-101402972D01*
X127496413Y-101394624D01*
X127495933Y-101394111D01*
X127486680Y-101380062D01*
X127486835Y-101371513D01*
X127494365Y-101370349D01*
X127507235Y-101378453D01*
X127510004Y-101381083D01*
X127526141Y-101391377D01*
X127541879Y-101391355D01*
X127552008Y-101384083D01*
X127555686Y-101372927D01*
X127548438Y-101363134D01*
X127531334Y-101355878D01*
X127524964Y-101354469D01*
X127504498Y-101346452D01*
X127493077Y-101333679D01*
X127490425Y-101318954D01*
X127496266Y-101305078D01*
X127510321Y-101294854D01*
X127531223Y-101291076D01*
X127548637Y-101295048D01*
G37*
G36*
X126705465Y-101293892D02*
G01*
X126706075Y-101295576D01*
X126703727Y-101304678D01*
X126697176Y-101321399D01*
X126687567Y-101343373D01*
X126676041Y-101368233D01*
X126663744Y-101393612D01*
X126651819Y-101417144D01*
X126641408Y-101436463D01*
X126633656Y-101449201D01*
X126629968Y-101453088D01*
X126622623Y-101449632D01*
X126621934Y-101447292D01*
X126624335Y-101438443D01*
X126630245Y-101424123D01*
X126631589Y-101421249D01*
X126635963Y-101411130D01*
X126637530Y-101402270D01*
X126635767Y-101391652D01*
X126630155Y-101376260D01*
X126620173Y-101353078D01*
X126619588Y-101351749D01*
X126608139Y-101325217D01*
X126601359Y-101307722D01*
X126598837Y-101297427D01*
X126600161Y-101292497D01*
X126604918Y-101291095D01*
X126605979Y-101291076D01*
X126611934Y-101296259D01*
X126620300Y-101309957D01*
X126629422Y-101329391D01*
X126630859Y-101332890D01*
X126639424Y-101352490D01*
X126646800Y-101366378D01*
X126651613Y-101372031D01*
X126652129Y-101371963D01*
X126656568Y-101365457D01*
X126664055Y-101350932D01*
X126673020Y-101331449D01*
X126673588Y-101330148D01*
X126682986Y-101310880D01*
X126691707Y-101296923D01*
X126697964Y-101291105D01*
X126698276Y-101291076D01*
X126705465Y-101293892D01*
G37*
G36*
X127313279Y-101293116D02*
G01*
X127315994Y-101300577D01*
X127317452Y-101315472D01*
X127317969Y-101339813D01*
X127317989Y-101348080D01*
X127317667Y-101375254D01*
X127316489Y-101392450D01*
X127314137Y-101401681D01*
X127310294Y-101404959D01*
X127308989Y-101405085D01*
X127301252Y-101400213D01*
X127299988Y-101395154D01*
X127299130Y-101388565D01*
X127294512Y-101390367D01*
X127289014Y-101395154D01*
X127272636Y-101403490D01*
X127252965Y-101404983D01*
X127234930Y-101399895D01*
X127225322Y-101391749D01*
X127220161Y-101379026D01*
X127216861Y-101360413D01*
X127215431Y-101339165D01*
X127215883Y-101318542D01*
X127218229Y-101301801D01*
X127222478Y-101292199D01*
X127224982Y-101291076D01*
X127229919Y-101293585D01*
X127232721Y-101302591D01*
X127233873Y-101320311D01*
X127233983Y-101332149D01*
X127234668Y-101355741D01*
X127237240Y-101370728D01*
X127242473Y-101380456D01*
X127246008Y-101384105D01*
X127257288Y-101391363D01*
X127269196Y-101389785D01*
X127273131Y-101388109D01*
X127287862Y-101376151D01*
X127296642Y-101355773D01*
X127299937Y-101325802D01*
X127299988Y-101320687D01*
X127300975Y-101301957D01*
X127304388Y-101292882D01*
X127308989Y-101291076D01*
X127313279Y-101293116D01*
G37*
G36*
X128587727Y-101296799D02*
G01*
X128596690Y-101303677D01*
X128604811Y-101314255D01*
X128603519Y-101321824D01*
X128602286Y-101323178D01*
X128594899Y-101326169D01*
X128587196Y-101319130D01*
X128573785Y-101310564D01*
X128562098Y-101310129D01*
X128548652Y-101314404D01*
X128545816Y-101321805D01*
X128553188Y-101330682D01*
X128569091Y-101338909D01*
X128589827Y-101347455D01*
X128601586Y-101354726D01*
X128606848Y-101363030D01*
X128608090Y-101374674D01*
X128608091Y-101375225D01*
X128603721Y-101391650D01*
X128590175Y-101401445D01*
X128566799Y-101405048D01*
X128563482Y-101405085D01*
X128541682Y-101400754D01*
X128530085Y-101393084D01*
X128519815Y-101379566D01*
X128519018Y-101371210D01*
X128525780Y-101369381D01*
X128538190Y-101375444D01*
X128545867Y-101381817D01*
X128559994Y-101390196D01*
X128574270Y-101391567D01*
X128585169Y-101386570D01*
X128589165Y-101375848D01*
X128588979Y-101373967D01*
X128583974Y-101364500D01*
X128570662Y-101356988D01*
X128558661Y-101353018D01*
X128539837Y-101346044D01*
X128529874Y-101337734D01*
X128526447Y-101329677D01*
X128527189Y-101312993D01*
X128536635Y-101300273D01*
X128551839Y-101292606D01*
X128569852Y-101291084D01*
X128587727Y-101296799D01*
G37*
G36*
X128299828Y-100797537D02*
G01*
X128293171Y-100809793D01*
X128282263Y-100829248D01*
X128268892Y-100852729D01*
X128260671Y-100867015D01*
X128246707Y-100891668D01*
X128237796Y-100909640D01*
X128232807Y-100924536D01*
X128230608Y-100939959D01*
X128230069Y-100959513D01*
X128230061Y-100964523D01*
X128230061Y-101009053D01*
X128209059Y-101009053D01*
X128188058Y-101009053D01*
X128188058Y-100966178D01*
X128187816Y-100948214D01*
X128186443Y-100933863D01*
X128182966Y-100920364D01*
X128176414Y-100904955D01*
X128165814Y-100884874D01*
X128150194Y-100857359D01*
X128149055Y-100855375D01*
X128134520Y-100829828D01*
X128122444Y-100808162D01*
X128113947Y-100792417D01*
X128110150Y-100784639D01*
X128110052Y-100784241D01*
X128115363Y-100782191D01*
X128128552Y-100781093D01*
X128132860Y-100781036D01*
X128144169Y-100781552D01*
X128152576Y-100784482D01*
X128160306Y-100791893D01*
X128169584Y-100805854D01*
X128181273Y-100826039D01*
X128193055Y-100846287D01*
X128202587Y-100861810D01*
X128208375Y-100870212D01*
X128209314Y-100871043D01*
X128213093Y-100866160D01*
X128221086Y-100853130D01*
X128231830Y-100834378D01*
X128236449Y-100826039D01*
X128248634Y-100804264D01*
X128257366Y-100790965D01*
X128264887Y-100784053D01*
X128273440Y-100781439D01*
X128284762Y-100781036D01*
X128308375Y-100781036D01*
X128299828Y-100797537D01*
G37*
G36*
X128007540Y-100781783D02*
G01*
X128031356Y-100783783D01*
X128048539Y-100786672D01*
X128053215Y-100788204D01*
X128071391Y-100802188D01*
X128081989Y-100821999D01*
X128084844Y-100844373D01*
X128079791Y-100866046D01*
X128066666Y-100883754D01*
X128058323Y-100889432D01*
X128048512Y-100895523D01*
X128048280Y-100901178D01*
X128055336Y-100909593D01*
X128062894Y-100921254D01*
X128072219Y-100940436D01*
X128081431Y-100963226D01*
X128082396Y-100965895D01*
X128098041Y-101009743D01*
X128073210Y-101007898D01*
X128048378Y-101006053D01*
X128035094Y-100964950D01*
X128026183Y-100939992D01*
X128017728Y-100924553D01*
X128007621Y-100916429D01*
X127993753Y-100913415D01*
X127985542Y-100913138D01*
X127966040Y-100913046D01*
X127966040Y-100961050D01*
X127966040Y-101009053D01*
X127945039Y-101009053D01*
X127924037Y-101009053D01*
X127924037Y-100895045D01*
X127924037Y-100877043D01*
X127966040Y-100877043D01*
X127994542Y-100876951D01*
X128012804Y-100876022D01*
X128026233Y-100873778D01*
X128029483Y-100872451D01*
X128039209Y-100859330D01*
X128039827Y-100842269D01*
X128035043Y-100831194D01*
X128027037Y-100822348D01*
X128015530Y-100818130D01*
X127996364Y-100817039D01*
X127995904Y-100817038D01*
X127966040Y-100817038D01*
X127966040Y-100847041D01*
X127966040Y-100877043D01*
X127924037Y-100877043D01*
X127924037Y-100847041D01*
X127924037Y-100781036D01*
X127980759Y-100781036D01*
X128007540Y-100781783D01*
G37*
G36*
X128344894Y-101295982D02*
G01*
X128361969Y-101308595D01*
X128372415Y-101325759D01*
X128374072Y-101335806D01*
X128373495Y-101343755D01*
X128370026Y-101348319D01*
X128361062Y-101350438D01*
X128344000Y-101351048D01*
X128331652Y-101351080D01*
X128309606Y-101351315D01*
X128297091Y-101352561D01*
X128291638Y-101355628D01*
X128290779Y-101361326D01*
X128291149Y-101364381D01*
X128297512Y-101376745D01*
X128309258Y-101386740D01*
X128320910Y-101392069D01*
X128330146Y-101391098D01*
X128342595Y-101383121D01*
X128343517Y-101382440D01*
X128357935Y-101372459D01*
X128365349Y-101369765D01*
X128367918Y-101373894D01*
X128368072Y-101377153D01*
X128362868Y-101390378D01*
X128349500Y-101399679D01*
X128331333Y-101404467D01*
X128311729Y-101404151D01*
X128294055Y-101398141D01*
X128285801Y-101391584D01*
X128271429Y-101369431D01*
X128268537Y-101345790D01*
X128271802Y-101331279D01*
X128290066Y-101331279D01*
X128294709Y-101336258D01*
X128309388Y-101338711D01*
X128323068Y-101339079D01*
X128344135Y-101337982D01*
X128354510Y-101334512D01*
X128356071Y-101331279D01*
X128350725Y-101318423D01*
X128336273Y-101310648D01*
X128323068Y-101309077D01*
X128303958Y-101312674D01*
X128292401Y-101322396D01*
X128290066Y-101331279D01*
X128271802Y-101331279D01*
X128272089Y-101330003D01*
X128284738Y-101307258D01*
X128304305Y-101294282D01*
X128324676Y-101291076D01*
X128344894Y-101295982D01*
G37*
G36*
X126738436Y-100780641D02*
G01*
X126766064Y-100789893D01*
X126787772Y-100805928D01*
X126796605Y-100818267D01*
X126798162Y-100827627D01*
X126790191Y-100836375D01*
X126787154Y-100838457D01*
X126776874Y-100844189D01*
X126768812Y-100843799D01*
X126758149Y-100836456D01*
X126753589Y-100832661D01*
X126730686Y-100820199D01*
X126706023Y-100817880D01*
X126682811Y-100825417D01*
X126665717Y-100840520D01*
X126658240Y-100857391D01*
X126654160Y-100880917D01*
X126653974Y-100906107D01*
X126657311Y-100925322D01*
X126669019Y-100948438D01*
X126686622Y-100964511D01*
X126707494Y-100972585D01*
X126729011Y-100971703D01*
X126748547Y-100960910D01*
X126750331Y-100959209D01*
X126760802Y-100947258D01*
X126766694Y-100937801D01*
X126766720Y-100937725D01*
X126770810Y-100933206D01*
X126780226Y-100935212D01*
X126785608Y-100937529D01*
X126798349Y-100946341D01*
X126800914Y-100957781D01*
X126793517Y-100973825D01*
X126790103Y-100978832D01*
X126770614Y-100996520D01*
X126743667Y-101007639D01*
X126712376Y-101011305D01*
X126686340Y-101008286D01*
X126667043Y-101002255D01*
X126650324Y-100994381D01*
X126649132Y-100993628D01*
X126630851Y-100975042D01*
X126618211Y-100948827D01*
X126611236Y-100917834D01*
X126609945Y-100884915D01*
X126614362Y-100852920D01*
X126624507Y-100824700D01*
X126640403Y-100803108D01*
X126647633Y-100797442D01*
X126676460Y-100784030D01*
X126707648Y-100778558D01*
X126738436Y-100780641D01*
G37*
G36*
X127768169Y-101249773D02*
G01*
X127783746Y-101252376D01*
X127794134Y-101257631D01*
X127798027Y-101261073D01*
X127808360Y-101278416D01*
X127808024Y-101296844D01*
X127798024Y-101312080D01*
X127786020Y-101322944D01*
X127798024Y-101331352D01*
X127806458Y-101343426D01*
X127810180Y-101361032D01*
X127808381Y-101378353D01*
X127805436Y-101384685D01*
X127790243Y-101396782D01*
X127764512Y-101403551D01*
X127738417Y-101405085D01*
X127702019Y-101405085D01*
X127702019Y-101387083D01*
X127720021Y-101387083D01*
X127748823Y-101387083D01*
X127767363Y-101385664D01*
X127781274Y-101382069D01*
X127784826Y-101379883D01*
X127790838Y-101368184D01*
X127792027Y-101360081D01*
X127788371Y-101345235D01*
X127776505Y-101336552D01*
X127755082Y-101333189D01*
X127748823Y-101333079D01*
X127720021Y-101333079D01*
X127720021Y-101360081D01*
X127720021Y-101387083D01*
X127702019Y-101387083D01*
X127702019Y-101360081D01*
X127702019Y-101327079D01*
X127702019Y-101315078D01*
X127719331Y-101315078D01*
X127746249Y-101315078D01*
X127767759Y-101312698D01*
X127781951Y-101306255D01*
X127782597Y-101305648D01*
X127790753Y-101294604D01*
X127789441Y-101284463D01*
X127779684Y-101272732D01*
X127764940Y-101263573D01*
X127745181Y-101262232D01*
X127731217Y-101264156D01*
X127724503Y-101269234D01*
X127721872Y-101281072D01*
X127721176Y-101289576D01*
X127719331Y-101315078D01*
X127702019Y-101315078D01*
X127702019Y-101249072D01*
X127744023Y-101249072D01*
X127768169Y-101249773D01*
G37*
G36*
X127288474Y-100782338D02*
G01*
X127314019Y-100791298D01*
X127331800Y-100804831D01*
X127335813Y-100810706D01*
X127341329Y-100824686D01*
X127337911Y-100833811D01*
X127327075Y-100840995D01*
X127316216Y-100845399D01*
X127307803Y-100842991D01*
X127297359Y-100833008D01*
X127277802Y-100819982D01*
X127254481Y-100816577D01*
X127230894Y-100822858D01*
X127217816Y-100831520D01*
X127209459Y-100839506D01*
X127204449Y-100847863D01*
X127201935Y-100859800D01*
X127201066Y-100878525D01*
X127200980Y-100895045D01*
X127201254Y-100919623D01*
X127202643Y-100935413D01*
X127205999Y-100945623D01*
X127212170Y-100953463D01*
X127217816Y-100958569D01*
X127234447Y-100968693D01*
X127251456Y-100973043D01*
X127252036Y-100973051D01*
X127267663Y-100971108D01*
X127283689Y-100966336D01*
X127295856Y-100960316D01*
X127299988Y-100955233D01*
X127303146Y-100947784D01*
X127307732Y-100940751D01*
X127315001Y-100933876D01*
X127324409Y-100934544D01*
X127331734Y-100937567D01*
X127343144Y-100943578D01*
X127346897Y-100949860D01*
X127343226Y-100959727D01*
X127334267Y-100973663D01*
X127312524Y-100995821D01*
X127284049Y-101008452D01*
X127249834Y-101011211D01*
X127232094Y-101009008D01*
X127200844Y-100997777D01*
X127176757Y-100977162D01*
X127160279Y-100947724D01*
X127151856Y-100910023D01*
X127151650Y-100907887D01*
X127152491Y-100867241D01*
X127162535Y-100833369D01*
X127181156Y-100807030D01*
X127207726Y-100788985D01*
X127241618Y-100779992D01*
X127257985Y-100779097D01*
X127288474Y-100782338D01*
G37*
G36*
X128473212Y-101296403D02*
G01*
X128482081Y-101303077D01*
X128488536Y-101311738D01*
X128492228Y-101323744D01*
X128493834Y-101342323D01*
X128494082Y-101360081D01*
X128493610Y-101383819D01*
X128491907Y-101397753D01*
X128488536Y-101404054D01*
X128485081Y-101405085D01*
X128477107Y-101401213D01*
X128476080Y-101397884D01*
X128474309Y-101393709D01*
X128468880Y-101397884D01*
X128456455Y-101403467D01*
X128438394Y-101404810D01*
X128420213Y-101402113D01*
X128407504Y-101395655D01*
X128399058Y-101379877D01*
X128399826Y-101370234D01*
X128416477Y-101370234D01*
X128419083Y-101380393D01*
X128426577Y-101386603D01*
X128442409Y-101392408D01*
X128456034Y-101388017D01*
X128464079Y-101381083D01*
X128474680Y-101366810D01*
X128474626Y-101356628D01*
X128464124Y-101351502D01*
X128457685Y-101351080D01*
X128437333Y-101353801D01*
X128423079Y-101360778D01*
X128416477Y-101370234D01*
X128399826Y-101370234D01*
X128400433Y-101362619D01*
X128411244Y-101348537D01*
X128411410Y-101348420D01*
X128425927Y-101342443D01*
X128445343Y-101339247D01*
X128450413Y-101339079D01*
X128468804Y-101336903D01*
X128476275Y-101330576D01*
X128472578Y-101320408D01*
X128468880Y-101316278D01*
X128456433Y-101310249D01*
X128440672Y-101309733D01*
X128427317Y-101314424D01*
X128423291Y-101318694D01*
X128413651Y-101325700D01*
X128406491Y-101326048D01*
X128399933Y-101323761D01*
X128400697Y-101319067D01*
X128409480Y-101309274D01*
X128411303Y-101307430D01*
X128430864Y-101294607D01*
X128452750Y-101290854D01*
X128473212Y-101296403D01*
G37*
G36*
X127012497Y-100782005D02*
G01*
X127041682Y-100783034D01*
X127061426Y-100784398D01*
X127074286Y-100786692D01*
X127082820Y-100790511D01*
X127089583Y-100796452D01*
X127093503Y-100800872D01*
X127106159Y-100823685D01*
X127108198Y-100848187D01*
X127099749Y-100871331D01*
X127090052Y-100882968D01*
X127079146Y-100894302D01*
X127076606Y-100901394D01*
X127080713Y-100906832D01*
X127086839Y-100915892D01*
X127094660Y-100932810D01*
X127102487Y-100953928D01*
X127102512Y-100954003D01*
X127109516Y-100975107D01*
X127115244Y-100992151D01*
X127118471Y-101001491D01*
X127118493Y-101001553D01*
X127116003Y-101006815D01*
X127102876Y-101008966D01*
X127097795Y-101009053D01*
X127074332Y-101009053D01*
X127060814Y-100967082D01*
X127050899Y-100940676D01*
X127040526Y-100924196D01*
X127027799Y-100915652D01*
X127010825Y-100913056D01*
X127009359Y-100913046D01*
X127001725Y-100913514D01*
X126997153Y-100916552D01*
X126994860Y-100924609D01*
X126994058Y-100940135D01*
X126993964Y-100961050D01*
X126993964Y-101009053D01*
X126969962Y-101009053D01*
X126945960Y-101009053D01*
X126945960Y-100894514D01*
X126945960Y-100877043D01*
X126993964Y-100877043D01*
X127022766Y-100877043D01*
X127041306Y-100875623D01*
X127055217Y-100872029D01*
X127058769Y-100869843D01*
X127064314Y-100858622D01*
X127065969Y-100847041D01*
X127062916Y-100830840D01*
X127052611Y-100821343D01*
X127033339Y-100817357D01*
X127022766Y-100817038D01*
X126993964Y-100817038D01*
X126993964Y-100847041D01*
X126993964Y-100877043D01*
X126945960Y-100877043D01*
X126945960Y-100847041D01*
X126945960Y-100779974D01*
X127012497Y-100782005D01*
G37*
G36*
X128236749Y-101244781D02*
G01*
X128239298Y-101251072D01*
X128240902Y-101263692D01*
X128241755Y-101284388D01*
X128242052Y-101314906D01*
X128242062Y-101324078D01*
X128241872Y-101357269D01*
X128241173Y-101380209D01*
X128239771Y-101394646D01*
X128237471Y-101402326D01*
X128234080Y-101404995D01*
X128233061Y-101405085D01*
X128225324Y-101400213D01*
X128224061Y-101395154D01*
X128223203Y-101388565D01*
X128218585Y-101390367D01*
X128213087Y-101395154D01*
X128195481Y-101403802D01*
X128173860Y-101404615D01*
X128153011Y-101397921D01*
X128142781Y-101390356D01*
X128132566Y-101376422D01*
X128128430Y-101358792D01*
X128128053Y-101348080D01*
X128128499Y-101343348D01*
X128146516Y-101343348D01*
X128146882Y-101361502D01*
X128154274Y-101377661D01*
X128169196Y-101388600D01*
X128170056Y-101388920D01*
X128183774Y-101392289D01*
X128195403Y-101389413D01*
X128200740Y-101386718D01*
X128214603Y-101373108D01*
X128220399Y-101353744D01*
X128217536Y-101334701D01*
X128208116Y-101317832D01*
X128194486Y-101310304D01*
X128182530Y-101309169D01*
X128164845Y-101313956D01*
X128152672Y-101326424D01*
X128146516Y-101343348D01*
X128128499Y-101343348D01*
X128130041Y-101326985D01*
X128137256Y-101312035D01*
X128142781Y-101305804D01*
X128162440Y-101293932D01*
X128185602Y-101291388D01*
X128207804Y-101298525D01*
X128210724Y-101300417D01*
X128218317Y-101305230D01*
X128222288Y-101304539D01*
X128223811Y-101296231D01*
X128224060Y-101278191D01*
X128224061Y-101276415D01*
X128224854Y-101256397D01*
X128227640Y-101246037D01*
X128233032Y-101243072D01*
X128233061Y-101243072D01*
X128236749Y-101244781D01*
G37*
G36*
X127974042Y-101290524D02*
G01*
X127988781Y-101293346D01*
X127995847Y-101298778D01*
X127996043Y-101300076D01*
X127991230Y-101308004D01*
X127986928Y-101309077D01*
X127980588Y-101312661D01*
X127981266Y-101322838D01*
X127980248Y-101340623D01*
X127969801Y-101355959D01*
X127952496Y-101366242D01*
X127935602Y-101369082D01*
X127918446Y-101370813D01*
X127912721Y-101374989D01*
X127918533Y-101380084D01*
X127934538Y-101384335D01*
X127957396Y-101388653D01*
X127971334Y-101392872D01*
X127979360Y-101398227D01*
X127983740Y-101404521D01*
X127987006Y-101421910D01*
X127979919Y-101438597D01*
X127965576Y-101450329D01*
X127946343Y-101457597D01*
X127928013Y-101457212D01*
X127907536Y-101450143D01*
X127893736Y-101441939D01*
X127888489Y-101431004D01*
X127888034Y-101423730D01*
X127889032Y-101416407D01*
X127907011Y-101416407D01*
X127909872Y-101430486D01*
X127921340Y-101439221D01*
X127938789Y-101441495D01*
X127956549Y-101437445D01*
X127965016Y-101429131D01*
X127965838Y-101417048D01*
X127959686Y-101406082D01*
X127951649Y-101401701D01*
X127929099Y-101399222D01*
X127913745Y-101404375D01*
X127907011Y-101416407D01*
X127889032Y-101416407D01*
X127889947Y-101409698D01*
X127894326Y-101401904D01*
X127896983Y-101395122D01*
X127893498Y-101389437D01*
X127889801Y-101380501D01*
X127895790Y-101370458D01*
X127895903Y-101370332D01*
X127901978Y-101358118D01*
X127899823Y-101350943D01*
X127895079Y-101334588D01*
X127912385Y-101334588D01*
X127914488Y-101342813D01*
X127922417Y-101349052D01*
X127936081Y-101350042D01*
X127950714Y-101346341D01*
X127961548Y-101338507D01*
X127962435Y-101337203D01*
X127965379Y-101327698D01*
X127959556Y-101318764D01*
X127955247Y-101315003D01*
X127939310Y-101307562D01*
X127924885Y-101309688D01*
X127914926Y-101319368D01*
X127912385Y-101334588D01*
X127895079Y-101334588D01*
X127894354Y-101332088D01*
X127898998Y-101312666D01*
X127906036Y-101303077D01*
X127917626Y-101296588D01*
X127935080Y-101292257D01*
X127955014Y-101290199D01*
X127974042Y-101290524D01*
G37*
G36*
X127488300Y-99827062D02*
G01*
X127515566Y-99827500D01*
X127534626Y-99828476D01*
X127547374Y-99830191D01*
X127555709Y-99832847D01*
X127561526Y-99836645D01*
X127564009Y-99838961D01*
X127571956Y-99853068D01*
X127575726Y-99875833D01*
X127575351Y-99908066D01*
X127570864Y-99950578D01*
X127569123Y-99962781D01*
X127564542Y-99988639D01*
X127559026Y-100006529D01*
X127551001Y-100020471D01*
X127542593Y-100030532D01*
X127522951Y-100051978D01*
X127460973Y-100053365D01*
X127433631Y-100053450D01*
X127409761Y-100052565D01*
X127392576Y-100050880D01*
X127386505Y-100049432D01*
X127366113Y-100035615D01*
X127350997Y-100013223D01*
X127340557Y-99981156D01*
X127336423Y-99957803D01*
X127331412Y-99918280D01*
X127328890Y-99888713D01*
X127328891Y-99867600D01*
X127349588Y-99867600D01*
X127349680Y-99885815D01*
X127352374Y-99913768D01*
X127355109Y-99934664D01*
X127361281Y-99972405D01*
X127368866Y-99999669D01*
X127379650Y-100017971D01*
X127395416Y-100028830D01*
X127417948Y-100033762D01*
X127449031Y-100034285D01*
X127471001Y-100033207D01*
X127495428Y-100030934D01*
X127511505Y-100027030D01*
X127522874Y-100020410D01*
X127527240Y-100016439D01*
X127534012Y-100007896D01*
X127539295Y-99996106D01*
X127543802Y-99978603D01*
X127548247Y-99952922D01*
X127550842Y-99935013D01*
X127555064Y-99900832D01*
X127556664Y-99877107D01*
X127555694Y-99862594D01*
X127553954Y-99857878D01*
X127550105Y-99854076D01*
X127542918Y-99851370D01*
X127530593Y-99849583D01*
X127511330Y-99848538D01*
X127483327Y-99848058D01*
X127453000Y-99847962D01*
X127416598Y-99848114D01*
X127390393Y-99848688D01*
X127372587Y-99849860D01*
X127361376Y-99851808D01*
X127354962Y-99854708D01*
X127352046Y-99857878D01*
X127349588Y-99867600D01*
X127328891Y-99867600D01*
X127328891Y-99867311D01*
X127331449Y-99852285D01*
X127336597Y-99841842D01*
X127338633Y-99839357D01*
X127343491Y-99834798D01*
X127349790Y-99831516D01*
X127359414Y-99829302D01*
X127374247Y-99827948D01*
X127396172Y-99827246D01*
X127427074Y-99826988D01*
X127450930Y-99826960D01*
X127488300Y-99827062D01*
G37*
G36*
X127523312Y-99305504D02*
G01*
X127585194Y-99310724D01*
X127635628Y-99319345D01*
X127674594Y-99331361D01*
X127702072Y-99346769D01*
X127708261Y-99352241D01*
X127720892Y-99372162D01*
X127730093Y-99402753D01*
X127735714Y-99443137D01*
X127737605Y-99492441D01*
X127737110Y-99520036D01*
X127735497Y-99552053D01*
X127732929Y-99574874D01*
X127728937Y-99591296D01*
X127723052Y-99604114D01*
X127722965Y-99604261D01*
X127704973Y-99624475D01*
X127676857Y-99642861D01*
X127640417Y-99658961D01*
X127597450Y-99672319D01*
X127549757Y-99682477D01*
X127499135Y-99688979D01*
X127447384Y-99691368D01*
X127396303Y-99689186D01*
X127390789Y-99688646D01*
X127332628Y-99679477D01*
X127277258Y-99664802D01*
X127228894Y-99645759D01*
X127225209Y-99643959D01*
X127201594Y-99630220D01*
X127184805Y-99614713D01*
X127173650Y-99595090D01*
X127168679Y-99575773D01*
X127383554Y-99575773D01*
X127387415Y-99583337D01*
X127397876Y-99590762D01*
X127400496Y-99591877D01*
X127437020Y-99601405D01*
X127471913Y-99600135D01*
X127499504Y-99591970D01*
X127511139Y-99584837D01*
X127516248Y-99577040D01*
X127514369Y-99571601D01*
X127505040Y-99571540D01*
X127502504Y-99572344D01*
X127489477Y-99574877D01*
X127469234Y-99576617D01*
X127450000Y-99577147D01*
X127427384Y-99576420D01*
X127407937Y-99574529D01*
X127397495Y-99572344D01*
X127386759Y-99571099D01*
X127383554Y-99575773D01*
X127168679Y-99575773D01*
X127166938Y-99569005D01*
X127163478Y-99534110D01*
X127162882Y-99521188D01*
X127162774Y-99485477D01*
X127163022Y-99481108D01*
X127293987Y-99481108D01*
X127295045Y-99507547D01*
X127298535Y-99524674D01*
X127303918Y-99533965D01*
X127317406Y-99541991D01*
X127335098Y-99544727D01*
X127351581Y-99541924D01*
X127359500Y-99536531D01*
X127363172Y-99525253D01*
X127364727Y-99505658D01*
X127541160Y-99505658D01*
X127543078Y-99526705D01*
X127546500Y-99536531D01*
X127558875Y-99543306D01*
X127576350Y-99544371D01*
X127593554Y-99539874D01*
X127601039Y-99535007D01*
X127607153Y-99526731D01*
X127610568Y-99513770D01*
X127611913Y-99493094D01*
X127612012Y-99482150D01*
X127610945Y-99453306D01*
X127606920Y-99434525D01*
X127598706Y-99423995D01*
X127585072Y-99419903D01*
X127569791Y-99420021D01*
X127543007Y-99421929D01*
X127541265Y-99475026D01*
X127541160Y-99505658D01*
X127364727Y-99505658D01*
X127364914Y-99503305D01*
X127364735Y-99475026D01*
X127362993Y-99421929D01*
X127336208Y-99420021D01*
X127317328Y-99420369D01*
X127304926Y-99425833D01*
X127297747Y-99438225D01*
X127294540Y-99459357D01*
X127293987Y-99481108D01*
X127163022Y-99481108D01*
X127164826Y-99449318D01*
X127168681Y-99415543D01*
X127173981Y-99386985D01*
X127180368Y-99366478D01*
X127183070Y-99361285D01*
X127199776Y-99345222D01*
X127227425Y-99331505D01*
X127265156Y-99320318D01*
X127312107Y-99311848D01*
X127367416Y-99306280D01*
X127430221Y-99303801D01*
X127450000Y-99303687D01*
X127523312Y-99305504D01*
G37*
G36*
X127566679Y-99190629D02*
G01*
X127656879Y-99207852D01*
X127693194Y-99217880D01*
X127723585Y-99228376D01*
X127746357Y-99240175D01*
X127763088Y-99255338D01*
X127775361Y-99275925D01*
X127784756Y-99303998D01*
X127792853Y-99341618D01*
X127794328Y-99349753D01*
X127798498Y-99371613D01*
X127802431Y-99384467D01*
X127807839Y-99391153D01*
X127816436Y-99394506D01*
X127822109Y-99395746D01*
X127837733Y-99400615D01*
X127848159Y-99409055D01*
X127854366Y-99423198D01*
X127857329Y-99445175D01*
X127858032Y-99474079D01*
X127858249Y-99499432D01*
X127859241Y-99515087D01*
X127861522Y-99523349D01*
X127865603Y-99526517D01*
X127869799Y-99526937D01*
X127882434Y-99531123D01*
X127893325Y-99539559D01*
X127905085Y-99552181D01*
X127910457Y-99541792D01*
X127942038Y-99541792D01*
X127946583Y-99550829D01*
X127956831Y-99552896D01*
X127964607Y-99549343D01*
X127966130Y-99546876D01*
X128011014Y-99546876D01*
X128011577Y-99558055D01*
X128017205Y-99565243D01*
X128029117Y-99573917D01*
X128038083Y-99571624D01*
X128043603Y-99563769D01*
X128045922Y-99550706D01*
X128040913Y-99539691D01*
X128031342Y-99534276D01*
X128022253Y-99536366D01*
X128011014Y-99546876D01*
X127966130Y-99546876D01*
X127968470Y-99543087D01*
X127961977Y-99535903D01*
X127961673Y-99535680D01*
X127949713Y-99530591D01*
X127942973Y-99535569D01*
X127942038Y-99541792D01*
X127910457Y-99541792D01*
X127914673Y-99533639D01*
X127924905Y-99517175D01*
X127930588Y-99509611D01*
X127961233Y-99509611D01*
X127967549Y-99518207D01*
X127971501Y-99521602D01*
X127984403Y-99528368D01*
X127993264Y-99526514D01*
X127995381Y-99517171D01*
X127993975Y-99512203D01*
X127985243Y-99501487D01*
X127973110Y-99498341D01*
X127964137Y-99502564D01*
X127961233Y-99509611D01*
X127930588Y-99509611D01*
X127938645Y-99498888D01*
X127942772Y-99494015D01*
X127961396Y-99477834D01*
X127979113Y-99473458D01*
X127996899Y-99480842D01*
X128008044Y-99490934D01*
X128020992Y-99502373D01*
X128032412Y-99508571D01*
X128034726Y-99508935D01*
X128048680Y-99514128D01*
X128062015Y-99527065D01*
X128071469Y-99543783D01*
X128074049Y-99556666D01*
X128075556Y-99569426D01*
X128079194Y-99574935D01*
X128079321Y-99574941D01*
X128085946Y-99580193D01*
X128091884Y-99593006D01*
X128095721Y-99608957D01*
X128096048Y-99623627D01*
X128095597Y-99625904D01*
X128086527Y-99640140D01*
X128066085Y-99654863D01*
X128061301Y-99657523D01*
X128038825Y-99670888D01*
X128016288Y-99686215D01*
X128007108Y-99693245D01*
X127987749Y-99706254D01*
X127963443Y-99718983D01*
X127947813Y-99725516D01*
X127928104Y-99733494D01*
X127912763Y-99741144D01*
X127906010Y-99745984D01*
X127904658Y-99753621D01*
X127909276Y-99767512D01*
X127920408Y-99789147D01*
X127924251Y-99795902D01*
X127936772Y-99816998D01*
X127946054Y-99829860D01*
X127954608Y-99836791D01*
X127964943Y-99840091D01*
X127973877Y-99841388D01*
X128000755Y-99844067D01*
X128029784Y-99845999D01*
X128058524Y-99847146D01*
X128084532Y-99847469D01*
X128105369Y-99846930D01*
X128118593Y-99845491D01*
X128122053Y-99843714D01*
X128127248Y-99840250D01*
X128140400Y-99840415D01*
X128141554Y-99840583D01*
X128151572Y-99841011D01*
X128162124Y-99838302D01*
X128175530Y-99831294D01*
X128194108Y-99818827D01*
X128214087Y-99804265D01*
X128236319Y-99786873D01*
X128255059Y-99770510D01*
X128268011Y-99757281D01*
X128272594Y-99750560D01*
X128279803Y-99739900D01*
X128292446Y-99737845D01*
X128294569Y-99738055D01*
X128306928Y-99741877D01*
X128310958Y-99751617D01*
X128311067Y-99754955D01*
X128308619Y-99766238D01*
X128298948Y-99771149D01*
X128293631Y-99771945D01*
X128280929Y-99776692D01*
X128261066Y-99788227D01*
X128235884Y-99805408D01*
X128216379Y-99819949D01*
X128192831Y-99838034D01*
X128172250Y-99853788D01*
X128156774Y-99865576D01*
X128148541Y-99871766D01*
X128148329Y-99871920D01*
X128136356Y-99874083D01*
X128127858Y-99870234D01*
X128116274Y-99866688D01*
X128094228Y-99863461D01*
X128063260Y-99860733D01*
X128030191Y-99858902D01*
X127944762Y-99855212D01*
X127937400Y-99871371D01*
X127932135Y-99883749D01*
X127930037Y-99890248D01*
X127935692Y-99891668D01*
X127951288Y-99892663D01*
X127974775Y-99893264D01*
X128004103Y-99893499D01*
X128037221Y-99893397D01*
X128072078Y-99892988D01*
X128106624Y-99892300D01*
X128138809Y-99891364D01*
X128166580Y-99890207D01*
X128187889Y-99888859D01*
X128200684Y-99887349D01*
X128203433Y-99886361D01*
X128211746Y-99882569D01*
X128224265Y-99883106D01*
X128238746Y-99883096D01*
X128250380Y-99875161D01*
X128261658Y-99857486D01*
X128262980Y-99854876D01*
X128273258Y-99842870D01*
X128285094Y-99841034D01*
X128295369Y-99849734D01*
X128296078Y-99850984D01*
X128298749Y-99865766D01*
X128291479Y-99876838D01*
X128277119Y-99880965D01*
X128263234Y-99884277D01*
X128248877Y-99892249D01*
X128238527Y-99901928D01*
X128236062Y-99908015D01*
X128231235Y-99916656D01*
X128227061Y-99919137D01*
X128214770Y-99920293D01*
X128203946Y-99916401D01*
X128200059Y-99910325D01*
X128194323Y-99908783D01*
X128178174Y-99907423D01*
X128153198Y-99906305D01*
X128120981Y-99905490D01*
X128083112Y-99905038D01*
X128059738Y-99904967D01*
X127919417Y-99904967D01*
X127909246Y-99920488D01*
X127903125Y-99932285D01*
X127902397Y-99939322D01*
X127902484Y-99939418D01*
X127910135Y-99941404D01*
X127927228Y-99943070D01*
X127951386Y-99944390D01*
X127980230Y-99945339D01*
X128011383Y-99945891D01*
X128042466Y-99946020D01*
X128071102Y-99945700D01*
X128094912Y-99944906D01*
X128111519Y-99943611D01*
X128118544Y-99941790D01*
X128118561Y-99941765D01*
X128128110Y-99935672D01*
X128140570Y-99936331D01*
X128149531Y-99943227D01*
X128150007Y-99944287D01*
X128157204Y-99951693D01*
X128172449Y-99961777D01*
X128192612Y-99972985D01*
X128214561Y-99983762D01*
X128235164Y-99992555D01*
X128251291Y-99997808D01*
X128258975Y-99998385D01*
X128273497Y-99998626D01*
X128282132Y-100008028D01*
X128283090Y-100019654D01*
X128277325Y-100031106D01*
X128266961Y-100036509D01*
X128256383Y-100034961D01*
X128250183Y-100026437D01*
X128243041Y-100017500D01*
X128227624Y-100006555D01*
X128207125Y-99995136D01*
X128184736Y-99984776D01*
X128163648Y-99977009D01*
X128147054Y-99973369D01*
X128140614Y-99973794D01*
X128124181Y-99973487D01*
X128117122Y-99969114D01*
X128110838Y-99965727D01*
X128099572Y-99963122D01*
X128081771Y-99961155D01*
X128055885Y-99959684D01*
X128020363Y-99958566D01*
X127997355Y-99958072D01*
X127887659Y-99955971D01*
X127852004Y-100018976D01*
X127816348Y-100081980D01*
X127870985Y-100136893D01*
X127899455Y-100164335D01*
X127921979Y-100183008D01*
X127939949Y-100193640D01*
X127954758Y-100196960D01*
X127967799Y-100193693D01*
X127973324Y-100190366D01*
X127985819Y-100178001D01*
X127992458Y-100167905D01*
X128002015Y-100157671D01*
X128014547Y-100153779D01*
X128025716Y-100156581D01*
X128030959Y-100164775D01*
X128029334Y-100177911D01*
X128021608Y-100187922D01*
X128011211Y-100190730D01*
X128009538Y-100190241D01*
X127999021Y-100191569D01*
X127983726Y-100199456D01*
X127967106Y-100211732D01*
X127952915Y-100225860D01*
X127943412Y-100234008D01*
X127933968Y-100232527D01*
X127931913Y-100231349D01*
X127921953Y-100220732D01*
X127919017Y-100213348D01*
X127914515Y-100205932D01*
X127903599Y-100192370D01*
X127888201Y-100174727D01*
X127870255Y-100155069D01*
X127851695Y-100135461D01*
X127834454Y-100117970D01*
X127820465Y-100104660D01*
X127811662Y-100097598D01*
X127810096Y-100096982D01*
X127804895Y-100101455D01*
X127798891Y-100109829D01*
X127796681Y-100114591D01*
X127796794Y-100119929D01*
X127800200Y-100127066D01*
X127807867Y-100137225D01*
X127820765Y-100151628D01*
X127839863Y-100171496D01*
X127866132Y-100198053D01*
X127879554Y-100211512D01*
X127906130Y-100237861D01*
X127929877Y-100260887D01*
X127949497Y-100279375D01*
X127963695Y-100292112D01*
X127971175Y-100297883D01*
X127971927Y-100298068D01*
X127979543Y-100298757D01*
X127983863Y-100300887D01*
X127992994Y-100300530D01*
X128003008Y-100292179D01*
X128010992Y-100279223D01*
X128014044Y-100265760D01*
X128018999Y-100252537D01*
X128030840Y-100245574D01*
X128045035Y-100247442D01*
X128045701Y-100247800D01*
X128055414Y-100258044D01*
X128054619Y-100270121D01*
X128044014Y-100281573D01*
X128034714Y-100286522D01*
X128016058Y-100298719D01*
X128001435Y-100315682D01*
X127991607Y-100329631D01*
X127982478Y-100338413D01*
X127980939Y-100339210D01*
X127970010Y-100337906D01*
X127959715Y-100329016D01*
X127954203Y-100316431D01*
X127954039Y-100313990D01*
X127949950Y-100306793D01*
X127938552Y-100292697D01*
X127921150Y-100273159D01*
X127899047Y-100249636D01*
X127873548Y-100223588D01*
X127869870Y-100219911D01*
X127840107Y-100190507D01*
X127817591Y-100168986D01*
X127801322Y-100154512D01*
X127790298Y-100146253D01*
X127783520Y-100143372D01*
X127780019Y-100144985D01*
X127782207Y-100151988D01*
X127791890Y-100165635D01*
X127807667Y-100184515D01*
X127828137Y-100207218D01*
X127851899Y-100232334D01*
X127877551Y-100258452D01*
X127903692Y-100284161D01*
X127928922Y-100308051D01*
X127951839Y-100328712D01*
X127971041Y-100344732D01*
X127985129Y-100354702D01*
X127990898Y-100357273D01*
X128004571Y-100363943D01*
X128008210Y-100375348D01*
X128001929Y-100389819D01*
X127987668Y-100404262D01*
X127975283Y-100416420D01*
X127968586Y-100427472D01*
X127968166Y-100430434D01*
X127964122Y-100442044D01*
X127952997Y-100449331D01*
X127939854Y-100449153D01*
X127932257Y-100440788D01*
X127930037Y-100430311D01*
X127933232Y-100418030D01*
X127944870Y-100411715D01*
X127946539Y-100411293D01*
X127965372Y-100404603D01*
X127973772Y-100395220D01*
X127973688Y-100383284D01*
X127969052Y-100376418D01*
X127957461Y-100362684D01*
X127940318Y-100343543D01*
X127919028Y-100320459D01*
X127894993Y-100294894D01*
X127869618Y-100268311D01*
X127844306Y-100242172D01*
X127820461Y-100217942D01*
X127799487Y-100197081D01*
X127782786Y-100181053D01*
X127771764Y-100171321D01*
X127768091Y-100169033D01*
X127764043Y-100173924D01*
X127755437Y-100187142D01*
X127743610Y-100206560D01*
X127732335Y-100225814D01*
X127699646Y-100282549D01*
X127651329Y-100284273D01*
X127603012Y-100285997D01*
X127601387Y-100403668D01*
X127600963Y-100445782D01*
X127601064Y-100477389D01*
X127601771Y-100499973D01*
X127603164Y-100515020D01*
X127605323Y-100524015D01*
X127608128Y-100528282D01*
X127620643Y-100532560D01*
X127632037Y-100526645D01*
X127638407Y-100514297D01*
X127645904Y-100502174D01*
X127657839Y-100496810D01*
X127669652Y-100499814D01*
X127672292Y-100502345D01*
X127677651Y-100515788D01*
X127672313Y-100527564D01*
X127657547Y-100535075D01*
X127656168Y-100535379D01*
X127637940Y-100541720D01*
X127619810Y-100551742D01*
X127619275Y-100552119D01*
X127604945Y-100561340D01*
X127594928Y-100564026D01*
X127584373Y-100561389D01*
X127583510Y-100561045D01*
X127577286Y-100553184D01*
X127576590Y-100541293D01*
X127581773Y-100532168D01*
X127582010Y-100532016D01*
X127584116Y-100524780D01*
X127585820Y-100506619D01*
X127587069Y-100478600D01*
X127587813Y-100441795D01*
X127588010Y-100405652D01*
X127587965Y-100364382D01*
X127587729Y-100333583D01*
X127587153Y-100311725D01*
X127586086Y-100297279D01*
X127584380Y-100288714D01*
X127581885Y-100284502D01*
X127578450Y-100283112D01*
X127576010Y-100282996D01*
X127570547Y-100283820D01*
X127567051Y-100287739D01*
X127565085Y-100296925D01*
X127564216Y-100313550D01*
X127564010Y-100339787D01*
X127564009Y-100343001D01*
X127564633Y-100373305D01*
X127566450Y-100393401D01*
X127569380Y-100402522D01*
X127570408Y-100403006D01*
X127574436Y-100408105D01*
X127574908Y-100419507D01*
X127569943Y-100433068D01*
X127559481Y-100437929D01*
X127546816Y-100435269D01*
X127540916Y-100425193D01*
X127543463Y-100411154D01*
X127545060Y-100408293D01*
X127548299Y-100397079D01*
X127550682Y-100376834D01*
X127551908Y-100350511D01*
X127552008Y-100340082D01*
X127551686Y-100312887D01*
X127550511Y-100295669D01*
X127548164Y-100286419D01*
X127544329Y-100283125D01*
X127543007Y-100282996D01*
X127539370Y-100284681D01*
X127536839Y-100290883D01*
X127535228Y-100303326D01*
X127534352Y-100323732D01*
X127534025Y-100353823D01*
X127534006Y-100366649D01*
X127534425Y-100399990D01*
X127535600Y-100426797D01*
X127537411Y-100445312D01*
X127539736Y-100453775D01*
X127540007Y-100454010D01*
X127545683Y-100463402D01*
X127544005Y-100475921D01*
X127535862Y-100485972D01*
X127534835Y-100486569D01*
X127521095Y-100488851D01*
X127513022Y-100484767D01*
X127499758Y-100480061D01*
X127484208Y-100480482D01*
X127472342Y-100485613D01*
X127470558Y-100487729D01*
X127461523Y-100492665D01*
X127448678Y-100491198D01*
X127438317Y-100484396D01*
X127434249Y-100473679D01*
X127437793Y-100463394D01*
X127448120Y-100452587D01*
X127460086Y-100453079D01*
X127467304Y-100459171D01*
X127478259Y-100464219D01*
X127494019Y-100463446D01*
X127509281Y-100457495D01*
X127514399Y-100453472D01*
X127517867Y-100445391D01*
X127520229Y-100428534D01*
X127521578Y-100401836D01*
X127522005Y-100364431D01*
X127522005Y-100282996D01*
X127354396Y-100282996D01*
X127305230Y-100282973D01*
X127266721Y-100282839D01*
X127237528Y-100282493D01*
X127216308Y-100281837D01*
X127201717Y-100280771D01*
X127192414Y-100279197D01*
X127187055Y-100277015D01*
X127184298Y-100274125D01*
X127182799Y-100270430D01*
X127182762Y-100270313D01*
X127180036Y-100264576D01*
X127175609Y-100263963D01*
X127167532Y-100269509D01*
X127153856Y-100282245D01*
X127146355Y-100289610D01*
X127129208Y-100308255D01*
X127117814Y-100324162D01*
X127113973Y-100334365D01*
X127118777Y-100348902D01*
X127130244Y-100361336D01*
X127143957Y-100366982D01*
X127144748Y-100367003D01*
X127157293Y-100371353D01*
X127165391Y-100381714D01*
X127167693Y-100394053D01*
X127162851Y-100404335D01*
X127158161Y-100407149D01*
X127144686Y-100407240D01*
X127133209Y-100399846D01*
X127128894Y-100389371D01*
X127123928Y-100376303D01*
X127111430Y-100361748D01*
X127094712Y-100349363D01*
X127090795Y-100347292D01*
X127078965Y-100339617D01*
X127073645Y-100333197D01*
X127075764Y-100323524D01*
X127084366Y-100314247D01*
X127094669Y-100309896D01*
X127097747Y-100310359D01*
X127105247Y-100307749D01*
X127118265Y-100298242D01*
X127134202Y-100283780D01*
X127136897Y-100281088D01*
X127152959Y-100264417D01*
X127161775Y-100253372D01*
X127164716Y-100245226D01*
X127163149Y-100237248D01*
X127161191Y-100232664D01*
X127153763Y-100216361D01*
X127070863Y-100299102D01*
X127045210Y-100325209D01*
X127022784Y-100348993D01*
X127004898Y-100368981D01*
X126992867Y-100383701D01*
X126988005Y-100391679D01*
X126987963Y-100392044D01*
X126992563Y-100400236D01*
X127007273Y-100404107D01*
X127007465Y-100404126D01*
X127022316Y-100407920D01*
X127028423Y-100416701D01*
X127028756Y-100418532D01*
X127026438Y-100432657D01*
X127017334Y-100440649D01*
X127005460Y-100441600D01*
X126994833Y-100434607D01*
X126990977Y-100427050D01*
X126982931Y-100417304D01*
X126972920Y-100412532D01*
X126957777Y-100404768D01*
X126950393Y-100392934D01*
X126952351Y-100380296D01*
X126955401Y-100376420D01*
X126967437Y-100368716D01*
X126974974Y-100367003D01*
X126982237Y-100362918D01*
X126996356Y-100351552D01*
X127015833Y-100334238D01*
X127039170Y-100312309D01*
X127064868Y-100287100D01*
X127065531Y-100286436D01*
X127145932Y-100205869D01*
X127135315Y-100189666D01*
X127124699Y-100173464D01*
X127059331Y-100238628D01*
X127036672Y-100261833D01*
X127017420Y-100282719D01*
X127003065Y-100299581D01*
X126995093Y-100310711D01*
X126993964Y-100313662D01*
X126989662Y-100325480D01*
X126984460Y-100331418D01*
X126972284Y-100336143D01*
X126962118Y-100330421D01*
X126955668Y-100315801D01*
X126954308Y-100304062D01*
X126950991Y-100285339D01*
X126943807Y-100275910D01*
X126935343Y-100265638D01*
X126934517Y-100252227D01*
X126940940Y-100240942D01*
X126946629Y-100237780D01*
X126961558Y-100237641D01*
X126971051Y-100245742D01*
X126972371Y-100258933D01*
X126970086Y-100264764D01*
X126965830Y-100279546D01*
X126968823Y-100290854D01*
X126977372Y-100294997D01*
X126984068Y-100290925D01*
X126997485Y-100279684D01*
X127016007Y-100262733D01*
X127038016Y-100241534D01*
X127052114Y-100227492D01*
X127119069Y-100159987D01*
X127046923Y-100035477D01*
X126974777Y-99910967D01*
X126866431Y-99910967D01*
X126758085Y-99910967D01*
X126769138Y-99923180D01*
X126779648Y-99931262D01*
X126787486Y-99932592D01*
X126797624Y-99933606D01*
X126805866Y-99938030D01*
X126813330Y-99946609D01*
X126810628Y-99956570D01*
X126810295Y-99957119D01*
X126799926Y-99965926D01*
X126787068Y-99967804D01*
X126776432Y-99962899D01*
X126772909Y-99955971D01*
X126764611Y-99937705D01*
X126749604Y-99924968D01*
X126739817Y-99921803D01*
X126728966Y-99915700D01*
X126725041Y-99903432D01*
X126727527Y-99888512D01*
X126737397Y-99881651D01*
X126751914Y-99884457D01*
X126754658Y-99886018D01*
X126766089Y-99889051D01*
X126789047Y-99891238D01*
X126823087Y-99892552D01*
X126865211Y-99892966D01*
X126964640Y-99892966D01*
X126954006Y-99874964D01*
X126943372Y-99856963D01*
X126822011Y-99856963D01*
X126773161Y-99857296D01*
X126736292Y-99858294D01*
X126711400Y-99859959D01*
X126698484Y-99862289D01*
X126696617Y-99863486D01*
X126688303Y-99867436D01*
X126680343Y-99866808D01*
X126663347Y-99867689D01*
X126645391Y-99876266D01*
X126631374Y-99889760D01*
X126627674Y-99896652D01*
X126620449Y-99907822D01*
X126608154Y-99910119D01*
X126605482Y-99909865D01*
X126591216Y-99904236D01*
X126586831Y-99896362D01*
X126589486Y-99883902D01*
X126599271Y-99874618D01*
X126611656Y-99872461D01*
X126613563Y-99873036D01*
X126625390Y-99871995D01*
X126641435Y-99863594D01*
X126658416Y-99849844D01*
X126663367Y-99844515D01*
X126963961Y-99844515D01*
X126966835Y-99850562D01*
X126974934Y-99865626D01*
X126987477Y-99888337D01*
X127003683Y-99917324D01*
X127022770Y-99951214D01*
X127043958Y-99988637D01*
X127066465Y-100028221D01*
X127089509Y-100068595D01*
X127112309Y-100108387D01*
X127134084Y-100146227D01*
X127154052Y-100180742D01*
X127171433Y-100210561D01*
X127185444Y-100234314D01*
X127195304Y-100250628D01*
X127195884Y-100251562D01*
X127204346Y-100265131D01*
X127445570Y-100263563D01*
X127686794Y-100261995D01*
X127805235Y-100057979D01*
X127831374Y-100012757D01*
X127855524Y-99970599D01*
X127877033Y-99932669D01*
X127895250Y-99900132D01*
X127909524Y-99874153D01*
X127919206Y-99855897D01*
X127923642Y-99846529D01*
X127923857Y-99845692D01*
X127921182Y-99836325D01*
X127914209Y-99821338D01*
X127904873Y-99804125D01*
X127895106Y-99788080D01*
X127886842Y-99776596D01*
X127882418Y-99772956D01*
X127875373Y-99776440D01*
X127862669Y-99785323D01*
X127854356Y-99791806D01*
X127837772Y-99803408D01*
X127814607Y-99817352D01*
X127789223Y-99831050D01*
X127783026Y-99834140D01*
X127752005Y-99849315D01*
X127730103Y-99860419D01*
X127715736Y-99868811D01*
X127707322Y-99875852D01*
X127703279Y-99882903D01*
X127702022Y-99891322D01*
X127701970Y-99902470D01*
X127701970Y-99903794D01*
X127701247Y-99923067D01*
X127699370Y-99949401D01*
X127696700Y-99977953D01*
X127695827Y-99985973D01*
X127687521Y-100033240D01*
X127673250Y-100072915D01*
X127651283Y-100108637D01*
X127621426Y-100142510D01*
X127591151Y-100169565D01*
X127561218Y-100188374D01*
X127528533Y-100200127D01*
X127490002Y-100206014D01*
X127453000Y-100207301D01*
X127421112Y-100206690D01*
X127397028Y-100204451D01*
X127376594Y-100199972D01*
X127356992Y-100193169D01*
X127325393Y-100176104D01*
X127293237Y-100150711D01*
X127263712Y-100120062D01*
X127240008Y-100087230D01*
X127232289Y-100072980D01*
X127230732Y-100068706D01*
X127261674Y-100068706D01*
X127264139Y-100075847D01*
X127274197Y-100091377D01*
X127275511Y-100093291D01*
X127307816Y-100130212D01*
X127346766Y-100157879D01*
X127390874Y-100175867D01*
X127438654Y-100183748D01*
X127488620Y-100181096D01*
X127537006Y-100168340D01*
X127577756Y-100146956D01*
X127613241Y-100115340D01*
X127630330Y-100093521D01*
X127641147Y-100077067D01*
X127644419Y-100069103D01*
X127639842Y-100068548D01*
X127627113Y-100074323D01*
X127625215Y-100075292D01*
X127600899Y-100084627D01*
X127567964Y-100092867D01*
X127529779Y-100099428D01*
X127489716Y-100103724D01*
X127453000Y-100105176D01*
X127414272Y-100103571D01*
X127374223Y-100099147D01*
X127336222Y-100092487D01*
X127303640Y-100084178D01*
X127280784Y-100075292D01*
X127267117Y-100068879D01*
X127261674Y-100068706D01*
X127230732Y-100068706D01*
X127221777Y-100044130D01*
X127213195Y-100006806D01*
X127207131Y-99964460D01*
X127204174Y-99920545D01*
X127203980Y-99906774D01*
X127203980Y-99875264D01*
X127136475Y-99842977D01*
X127106899Y-99828029D01*
X127078126Y-99812090D01*
X127053700Y-99797203D01*
X127038771Y-99786714D01*
X127008572Y-99762737D01*
X126986266Y-99800445D01*
X126975340Y-99819739D01*
X126967388Y-99835344D01*
X126963990Y-99844144D01*
X126963961Y-99844515D01*
X126663367Y-99844515D01*
X126667707Y-99839843D01*
X126677643Y-99829678D01*
X126686497Y-99827980D01*
X126696491Y-99831665D01*
X126709999Y-99834802D01*
X126734917Y-99837056D01*
X126771426Y-99838438D01*
X126819705Y-99838957D01*
X126825543Y-99838961D01*
X126938579Y-99838961D01*
X126948270Y-99824171D01*
X126955219Y-99812588D01*
X126957961Y-99806170D01*
X126952285Y-99805118D01*
X126936552Y-99804211D01*
X126912707Y-99803509D01*
X126882694Y-99803074D01*
X126855524Y-99802959D01*
X126816488Y-99803146D01*
X126787772Y-99803798D01*
X126767702Y-99805051D01*
X126754602Y-99807039D01*
X126746798Y-99809899D01*
X126744087Y-99811959D01*
X126732714Y-99820046D01*
X126722399Y-99817625D01*
X126715382Y-99811543D01*
X126710362Y-99799983D01*
X126713117Y-99787688D01*
X126721899Y-99779761D01*
X126726532Y-99778957D01*
X126735117Y-99774749D01*
X126747373Y-99764112D01*
X126753140Y-99757955D01*
X126768987Y-99743238D01*
X126784295Y-99737349D01*
X126790499Y-99736953D01*
X126802823Y-99737758D01*
X126805159Y-99741201D01*
X126801949Y-99745954D01*
X126790678Y-99753630D01*
X126784258Y-99754955D01*
X126774146Y-99758919D01*
X126761801Y-99768240D01*
X126751622Y-99779056D01*
X126747944Y-99786844D01*
X126753632Y-99788147D01*
X126769443Y-99789281D01*
X126793500Y-99790174D01*
X126823927Y-99790756D01*
X126857848Y-99790958D01*
X126967752Y-99790958D01*
X126981062Y-99767276D01*
X126988010Y-99754144D01*
X126989868Y-99745372D01*
X126985070Y-99739001D01*
X126972056Y-99733068D01*
X126949262Y-99725613D01*
X126947392Y-99725025D01*
X126926449Y-99715765D01*
X126911584Y-99706426D01*
X126999964Y-99706426D01*
X127004771Y-99717286D01*
X127017732Y-99732524D01*
X127036655Y-99750438D01*
X127059349Y-99769322D01*
X127083623Y-99787471D01*
X127107285Y-99803182D01*
X127128146Y-99814749D01*
X127144012Y-99820469D01*
X127146976Y-99820786D01*
X127149729Y-99815133D01*
X127151727Y-99799083D01*
X127152818Y-99774224D01*
X127152918Y-99763946D01*
X127179978Y-99763946D01*
X127181174Y-99801157D01*
X127184797Y-99826862D01*
X127190906Y-99841319D01*
X127197805Y-99844962D01*
X127200163Y-99839370D01*
X127202371Y-99824228D01*
X127203004Y-99816321D01*
X127228523Y-99816321D01*
X127228579Y-99850301D01*
X127229281Y-99886494D01*
X127230544Y-99922451D01*
X127232287Y-99955726D01*
X127234428Y-99983871D01*
X127236885Y-100004439D01*
X127239042Y-100013844D01*
X127249739Y-100027509D01*
X127270102Y-100041415D01*
X127297878Y-100054410D01*
X127330814Y-100065346D01*
X127348344Y-100069645D01*
X127382547Y-100074783D01*
X127423937Y-100077560D01*
X127468027Y-100077962D01*
X127510328Y-100075976D01*
X127546351Y-100071587D01*
X127552986Y-100070298D01*
X127588182Y-100060940D01*
X127619593Y-100049011D01*
X127644966Y-100035623D01*
X127662046Y-100021887D01*
X127667411Y-100013858D01*
X127669238Y-100003843D01*
X127670851Y-99984407D01*
X127672225Y-99957631D01*
X127673335Y-99925597D01*
X127674153Y-99890386D01*
X127674654Y-99854079D01*
X127674812Y-99818758D01*
X127674601Y-99786504D01*
X127673995Y-99759397D01*
X127672968Y-99739520D01*
X127671494Y-99728954D01*
X127670983Y-99727932D01*
X127663393Y-99726957D01*
X127647931Y-99728619D01*
X127633007Y-99731479D01*
X127613291Y-99736571D01*
X127601708Y-99742389D01*
X127594540Y-99751545D01*
X127590029Y-99761659D01*
X127583026Y-99776910D01*
X127574756Y-99788219D01*
X127563422Y-99796166D01*
X127547227Y-99801333D01*
X127524374Y-99804300D01*
X127493067Y-99805648D01*
X127453000Y-99805959D01*
X127411422Y-99805588D01*
X127380090Y-99804110D01*
X127357261Y-99800979D01*
X127341191Y-99795649D01*
X127330138Y-99787572D01*
X127322361Y-99776202D01*
X127316928Y-99763281D01*
X127313625Y-99755308D01*
X127335992Y-99755308D01*
X127339137Y-99762240D01*
X127344245Y-99769951D01*
X127356038Y-99777689D01*
X127377390Y-99783727D01*
X127405954Y-99787860D01*
X127439384Y-99789882D01*
X127475331Y-99789586D01*
X127511447Y-99786768D01*
X127521381Y-99785482D01*
X127545524Y-99779360D01*
X127562402Y-99769577D01*
X127569841Y-99757482D01*
X127570010Y-99755308D01*
X127564313Y-99754276D01*
X127548435Y-99753374D01*
X127524194Y-99752651D01*
X127493410Y-99752162D01*
X127457902Y-99751957D01*
X127453003Y-99751954D01*
X127417011Y-99752118D01*
X127385505Y-99752573D01*
X127360304Y-99753268D01*
X127343227Y-99754150D01*
X127336094Y-99755168D01*
X127335992Y-99755308D01*
X127313625Y-99755308D01*
X127312808Y-99753336D01*
X127307385Y-99746318D01*
X127298219Y-99740913D01*
X127282867Y-99735803D01*
X127258888Y-99729673D01*
X127251017Y-99727768D01*
X127242557Y-99726237D01*
X127237436Y-99728327D01*
X127234343Y-99736420D01*
X127231972Y-99752898D01*
X127230672Y-99764786D01*
X127229193Y-99787000D01*
X127228523Y-99816321D01*
X127203004Y-99816321D01*
X127204153Y-99801986D01*
X127205094Y-99780457D01*
X127205861Y-99754168D01*
X127206478Y-99732898D01*
X127206873Y-99719135D01*
X127206980Y-99715197D01*
X127202064Y-99713104D01*
X127193479Y-99710292D01*
X127187261Y-99708819D01*
X127183323Y-99710410D01*
X127181145Y-99717134D01*
X127180205Y-99731059D01*
X127179983Y-99754257D01*
X127179978Y-99763946D01*
X127152918Y-99763946D01*
X127152976Y-99757911D01*
X127152976Y-99694890D01*
X127133445Y-99688444D01*
X127118106Y-99681322D01*
X127098344Y-99669459D01*
X127082602Y-99658472D01*
X127064113Y-99644918D01*
X127052066Y-99637716D01*
X127043436Y-99635841D01*
X127035197Y-99638270D01*
X127030294Y-99640771D01*
X127021156Y-99650301D01*
X127011668Y-99667005D01*
X127003940Y-99686311D01*
X127000085Y-99703648D01*
X126999964Y-99706426D01*
X126911584Y-99706426D01*
X126905144Y-99702380D01*
X126899388Y-99697825D01*
X126879282Y-99682681D01*
X126856911Y-99668623D01*
X126851204Y-99665556D01*
X126841294Y-99659852D01*
X126905799Y-99659852D01*
X126909833Y-99673605D01*
X126922711Y-99685211D01*
X126942960Y-99695769D01*
X126961138Y-99703605D01*
X126971048Y-99706006D01*
X126975164Y-99702889D01*
X126975962Y-99694652D01*
X126980110Y-99676128D01*
X126991117Y-99653820D01*
X127006829Y-99631867D01*
X127011150Y-99627015D01*
X127026966Y-99610084D01*
X127026268Y-99609443D01*
X127082869Y-99609443D01*
X127083536Y-99620712D01*
X127089970Y-99630862D01*
X127104367Y-99643101D01*
X127107496Y-99645423D01*
X127122340Y-99655837D01*
X127132697Y-99662190D01*
X127135716Y-99663207D01*
X127134896Y-99657098D01*
X127130969Y-99643243D01*
X127127192Y-99631727D01*
X127118980Y-99610566D01*
X127111259Y-99598710D01*
X127102001Y-99593731D01*
X127094870Y-99593034D01*
X127086102Y-99598338D01*
X127082869Y-99609443D01*
X127026268Y-99609443D01*
X127004553Y-99589512D01*
X126990513Y-99577674D01*
X126979498Y-99570237D01*
X126975916Y-99568940D01*
X126965537Y-99573500D01*
X126951280Y-99585267D01*
X126935788Y-99601373D01*
X126921704Y-99618949D01*
X126911669Y-99635127D01*
X126909081Y-99641504D01*
X126905799Y-99659852D01*
X126841294Y-99659852D01*
X126832969Y-99655060D01*
X126817649Y-99644208D01*
X126813701Y-99640697D01*
X126811864Y-99637436D01*
X126859583Y-99637436D01*
X126863419Y-99642930D01*
X126863763Y-99643075D01*
X126874711Y-99645952D01*
X126879923Y-99640728D01*
X126881636Y-99635166D01*
X126880911Y-99622704D01*
X126877277Y-99617211D01*
X126870206Y-99615610D01*
X126863607Y-99624725D01*
X126863205Y-99625595D01*
X126859583Y-99637436D01*
X126811864Y-99637436D01*
X126803808Y-99623137D01*
X126803420Y-99602733D01*
X126803577Y-99602409D01*
X126829602Y-99602409D01*
X126829794Y-99615160D01*
X126833032Y-99621246D01*
X126839654Y-99626627D01*
X126845943Y-99622213D01*
X126848217Y-99619228D01*
X126853706Y-99608059D01*
X126854036Y-99602185D01*
X126846796Y-99595097D01*
X126836467Y-99595475D01*
X126829602Y-99602409D01*
X126803577Y-99602409D01*
X126808344Y-99592564D01*
X126888722Y-99592564D01*
X126895778Y-99598516D01*
X126903857Y-99593491D01*
X126909006Y-99586234D01*
X126913499Y-99573621D01*
X126910032Y-99567216D01*
X126901214Y-99569290D01*
X126895426Y-99574421D01*
X126888820Y-99585302D01*
X126888722Y-99592564D01*
X126808344Y-99592564D01*
X126812517Y-99583944D01*
X126813950Y-99582323D01*
X126822927Y-99567438D01*
X126825950Y-99553917D01*
X126826523Y-99551948D01*
X126852935Y-99551948D01*
X126855578Y-99562240D01*
X126864088Y-99573121D01*
X126873532Y-99572769D01*
X126882794Y-99565243D01*
X126886183Y-99559613D01*
X127026261Y-99559613D01*
X127027666Y-99567651D01*
X127033910Y-99580017D01*
X127042618Y-99593225D01*
X127051414Y-99603790D01*
X127057920Y-99608226D01*
X127059113Y-99607799D01*
X127058674Y-99601204D01*
X127054658Y-99587311D01*
X127051338Y-99578075D01*
X127042336Y-99558870D01*
X127034532Y-99551419D01*
X127028022Y-99555791D01*
X127026261Y-99559613D01*
X126886183Y-99559613D01*
X126890089Y-99553124D01*
X126885667Y-99542295D01*
X126932361Y-99542295D01*
X126934703Y-99548835D01*
X126944160Y-99553372D01*
X126953882Y-99550391D01*
X126957961Y-99542296D01*
X126954607Y-99531971D01*
X126945032Y-99531738D01*
X126939618Y-99534543D01*
X126932361Y-99542295D01*
X126885667Y-99542295D01*
X126885652Y-99542259D01*
X126878210Y-99536468D01*
X126866167Y-99534099D01*
X126856761Y-99540376D01*
X126852935Y-99551948D01*
X126826523Y-99551948D01*
X126830341Y-99538817D01*
X126841117Y-99523582D01*
X126845296Y-99520115D01*
X126905323Y-99520115D01*
X126906210Y-99524154D01*
X126910309Y-99530793D01*
X126917205Y-99529344D01*
X126923203Y-99525606D01*
X126934021Y-99516492D01*
X126938629Y-99509925D01*
X126935951Y-99502245D01*
X126930992Y-99499117D01*
X126918910Y-99499821D01*
X126908982Y-99508206D01*
X126905323Y-99520115D01*
X126845296Y-99520115D01*
X126854689Y-99512322D01*
X126865274Y-99508935D01*
X126875400Y-99504807D01*
X126888393Y-99494535D01*
X126891956Y-99490934D01*
X126910254Y-99476495D01*
X126927895Y-99473789D01*
X126945856Y-99482861D01*
X126957227Y-99494015D01*
X126971076Y-99511509D01*
X126982882Y-99529246D01*
X126985326Y-99533639D01*
X126994914Y-99552181D01*
X127006674Y-99539559D01*
X127019014Y-99530212D01*
X127029447Y-99526937D01*
X127034661Y-99525947D01*
X127037666Y-99521454D01*
X127038806Y-99511172D01*
X127038426Y-99492815D01*
X127037436Y-99473881D01*
X127037205Y-99462482D01*
X127062523Y-99462482D01*
X127064519Y-99489745D01*
X127065741Y-99498503D01*
X127071411Y-99529721D01*
X127077113Y-99550641D01*
X127083581Y-99562947D01*
X127091550Y-99568324D01*
X127096465Y-99568940D01*
X127105564Y-99566801D01*
X127105045Y-99558837D01*
X127104882Y-99558439D01*
X127102984Y-99548647D01*
X127100977Y-99529537D01*
X127099090Y-99503789D01*
X127097551Y-99474081D01*
X127097443Y-99471432D01*
X127096525Y-99451005D01*
X127121338Y-99451005D01*
X127123105Y-99492954D01*
X127125671Y-99515335D01*
X127133203Y-99557274D01*
X127142764Y-99595730D01*
X127153659Y-99628640D01*
X127165194Y-99653939D01*
X127176673Y-99669564D01*
X127177940Y-99670633D01*
X127190997Y-99678214D01*
X127211676Y-99687344D01*
X127236045Y-99696329D01*
X127242281Y-99698362D01*
X127327933Y-99719324D01*
X127416363Y-99729142D01*
X127505513Y-99727659D01*
X127552033Y-99722285D01*
X127558339Y-99721139D01*
X127699519Y-99721139D01*
X127699839Y-99731210D01*
X127700281Y-99750040D01*
X127700772Y-99774394D01*
X127701019Y-99787957D01*
X127702277Y-99818110D01*
X127704898Y-99836737D01*
X127709057Y-99844257D01*
X127714925Y-99841086D01*
X127719810Y-99833355D01*
X127722466Y-99822577D01*
X127724555Y-99803030D01*
X127725798Y-99777944D01*
X127726021Y-99761543D01*
X127726000Y-99754941D01*
X127752615Y-99754941D01*
X127752962Y-99781465D01*
X127753592Y-99802901D01*
X127754409Y-99816825D01*
X127755184Y-99820947D01*
X127761165Y-99818349D01*
X127774735Y-99811536D01*
X127792447Y-99802251D01*
X127816399Y-99787724D01*
X127840739Y-99769995D01*
X127863362Y-99750968D01*
X127882166Y-99732547D01*
X127895047Y-99716636D01*
X127899903Y-99705140D01*
X127899903Y-99704947D01*
X127896656Y-99687423D01*
X127888689Y-99667928D01*
X127878200Y-99650591D01*
X127867389Y-99639540D01*
X127864251Y-99638015D01*
X127847672Y-99638594D01*
X127838196Y-99643606D01*
X127810514Y-99663094D01*
X127787190Y-99677810D01*
X127769978Y-99686713D01*
X127761941Y-99688950D01*
X127757639Y-99690398D01*
X127754839Y-99696070D01*
X127753259Y-99707955D01*
X127752619Y-99728044D01*
X127752615Y-99754941D01*
X127726000Y-99754941D01*
X127725933Y-99734295D01*
X127725342Y-99717043D01*
X127723756Y-99707782D01*
X127720688Y-99704509D01*
X127715645Y-99705218D01*
X127712520Y-99706332D01*
X127702257Y-99713812D01*
X127699519Y-99721139D01*
X127558339Y-99721139D01*
X127597248Y-99714068D01*
X127639007Y-99703812D01*
X127675293Y-99692184D01*
X127704090Y-99679848D01*
X127723382Y-99667472D01*
X127726203Y-99664753D01*
X127727228Y-99663182D01*
X127762024Y-99663182D01*
X127766218Y-99662700D01*
X127776503Y-99657143D01*
X127789434Y-99648726D01*
X127801565Y-99639659D01*
X127808394Y-99633408D01*
X127815042Y-99623437D01*
X127811472Y-99619005D01*
X127797353Y-99619831D01*
X127793335Y-99620583D01*
X127777408Y-99627584D01*
X127768375Y-99642521D01*
X127763984Y-99655799D01*
X127762030Y-99663056D01*
X127762024Y-99663182D01*
X127727228Y-99663182D01*
X127737919Y-99646799D01*
X127749556Y-99619070D01*
X127752484Y-99609540D01*
X127873558Y-99609540D01*
X127892910Y-99631581D01*
X127906625Y-99651324D01*
X127917321Y-99673801D01*
X127919397Y-99680295D01*
X127924487Y-99695813D01*
X127930933Y-99703088D01*
X127941427Y-99702767D01*
X127958662Y-99695496D01*
X127966477Y-99691585D01*
X127985154Y-99679641D01*
X127993472Y-99666516D01*
X127992926Y-99649150D01*
X127990918Y-99641504D01*
X127983987Y-99627502D01*
X128017923Y-99627502D01*
X128018364Y-99635166D01*
X128021626Y-99644935D01*
X128027149Y-99645974D01*
X128034196Y-99643442D01*
X128040041Y-99638568D01*
X128038209Y-99628859D01*
X128036746Y-99625487D01*
X128030132Y-99615794D01*
X128023119Y-99616892D01*
X128022722Y-99617211D01*
X128017923Y-99627502D01*
X127983987Y-99627502D01*
X127983739Y-99627000D01*
X127971253Y-99609732D01*
X127969826Y-99608116D01*
X128046847Y-99608116D01*
X128050355Y-99617520D01*
X128056488Y-99626154D01*
X128062638Y-99624681D01*
X128065854Y-99621709D01*
X128071315Y-99610096D01*
X128070627Y-99603008D01*
X128062777Y-99594354D01*
X128052499Y-99594059D01*
X128047123Y-99598818D01*
X128046847Y-99608116D01*
X127969826Y-99608116D01*
X127956102Y-99592569D01*
X127942469Y-99579819D01*
X127986968Y-99579819D01*
X127989697Y-99586297D01*
X127998767Y-99597360D01*
X128007460Y-99596996D01*
X128011277Y-99592564D01*
X128010658Y-99583893D01*
X128004573Y-99574421D01*
X127993936Y-99567121D01*
X127987178Y-99569631D01*
X127986968Y-99579819D01*
X127942469Y-99579819D01*
X127940928Y-99578378D01*
X127928373Y-99570030D01*
X127924083Y-99568940D01*
X127916370Y-99572709D01*
X127903642Y-99582314D01*
X127895709Y-99589240D01*
X127873558Y-99609540D01*
X127752484Y-99609540D01*
X127754781Y-99602064D01*
X127840030Y-99602064D01*
X127843215Y-99604934D01*
X127851575Y-99599240D01*
X127863115Y-99586456D01*
X127871576Y-99571662D01*
X127873473Y-99558998D01*
X127868647Y-99551663D01*
X127864872Y-99550939D01*
X127860179Y-99555852D01*
X127853319Y-99567779D01*
X127846344Y-99582495D01*
X127841306Y-99595778D01*
X127840030Y-99602064D01*
X127754781Y-99602064D01*
X127760400Y-99583773D01*
X127760706Y-99582441D01*
X127788287Y-99582441D01*
X127789033Y-99590811D01*
X127797929Y-99592942D01*
X127809313Y-99588266D01*
X127818854Y-99573235D01*
X127819670Y-99571331D01*
X127824736Y-99553409D01*
X127829002Y-99527945D01*
X127832109Y-99499000D01*
X127833696Y-99470638D01*
X127833406Y-99446920D01*
X127831754Y-99434678D01*
X127824427Y-99421715D01*
X127815914Y-99418928D01*
X127809598Y-99420119D01*
X127806014Y-99425421D01*
X127804408Y-99437424D01*
X127804028Y-99458723D01*
X127804027Y-99459830D01*
X127802606Y-99492228D01*
X127798809Y-99527847D01*
X127793336Y-99561232D01*
X127788287Y-99582441D01*
X127760706Y-99582441D01*
X127769736Y-99543119D01*
X127774648Y-99514936D01*
X127778259Y-99477295D01*
X127778604Y-99436183D01*
X127776008Y-99394277D01*
X127770794Y-99354250D01*
X127763289Y-99318779D01*
X127753818Y-99290538D01*
X127745588Y-99275670D01*
X127732012Y-99263733D01*
X127710053Y-99251269D01*
X127683138Y-99239898D01*
X127654690Y-99231242D01*
X127648904Y-99229934D01*
X127635496Y-99227687D01*
X127630890Y-99230553D01*
X127632172Y-99241056D01*
X127632788Y-99243886D01*
X127633943Y-99258344D01*
X127628224Y-99266479D01*
X127625899Y-99267855D01*
X127616755Y-99269546D01*
X127597544Y-99270941D01*
X127570199Y-99272040D01*
X127536650Y-99272843D01*
X127498827Y-99273350D01*
X127458663Y-99273561D01*
X127418088Y-99273476D01*
X127379033Y-99273095D01*
X127343430Y-99272418D01*
X127313208Y-99271445D01*
X127290301Y-99270176D01*
X127276637Y-99268611D01*
X127274101Y-99267855D01*
X127266690Y-99260546D01*
X127266424Y-99247860D01*
X127267040Y-99244751D01*
X127289749Y-99244751D01*
X127290185Y-99249617D01*
X127296681Y-99250839D01*
X127313246Y-99251855D01*
X127337946Y-99252663D01*
X127368852Y-99253262D01*
X127404032Y-99253650D01*
X127441553Y-99253826D01*
X127479485Y-99253788D01*
X127515897Y-99253536D01*
X127548856Y-99253066D01*
X127576432Y-99252379D01*
X127596694Y-99251473D01*
X127607708Y-99250346D01*
X127609072Y-99249855D01*
X127610607Y-99241420D01*
X127603852Y-99231312D01*
X127591576Y-99222515D01*
X127579963Y-99218487D01*
X127541945Y-99212845D01*
X127501003Y-99209329D01*
X127459044Y-99207837D01*
X127417977Y-99208267D01*
X127379710Y-99210517D01*
X127346150Y-99214487D01*
X127319206Y-99220075D01*
X127300786Y-99227179D01*
X127293547Y-99233736D01*
X127289749Y-99244751D01*
X127267040Y-99244751D01*
X127267211Y-99243886D01*
X127269228Y-99231777D01*
X127265871Y-99227749D01*
X127254224Y-99229279D01*
X127251095Y-99229934D01*
X127222758Y-99237823D01*
X127195242Y-99248763D01*
X127171972Y-99261133D01*
X127156373Y-99273314D01*
X127154411Y-99275670D01*
X127143255Y-99297428D01*
X127134056Y-99328456D01*
X127127127Y-99366140D01*
X127122784Y-99407862D01*
X127121338Y-99451005D01*
X127096525Y-99451005D01*
X127096020Y-99439765D01*
X127094514Y-99418201D01*
X127092581Y-99404845D01*
X127089874Y-99397801D01*
X127086050Y-99395175D01*
X127083528Y-99394926D01*
X127072753Y-99397317D01*
X127069639Y-99399843D01*
X127065230Y-99413817D01*
X127062809Y-99435934D01*
X127062523Y-99462482D01*
X127037205Y-99462482D01*
X127036730Y-99439007D01*
X127038822Y-99411597D01*
X127041666Y-99398841D01*
X127048099Y-99384261D01*
X127057777Y-99375984D01*
X127074976Y-99370297D01*
X127101032Y-99363736D01*
X127110989Y-99318982D01*
X127120656Y-99284908D01*
X127133651Y-99259928D01*
X127152290Y-99241554D01*
X127178893Y-99227294D01*
X127205088Y-99217922D01*
X127290766Y-99196671D01*
X127381204Y-99185038D01*
X127473981Y-99183024D01*
X127566679Y-99190629D01*
G37*
D10*
%TO.C,R1*%
X110697936Y-96115000D02*
X112152064Y-96115000D01*
X110697936Y-97935000D02*
X112152064Y-97935000D01*
%TO.C,J5*%
X125130000Y-85740000D02*
X125130000Y-86542470D01*
X125130000Y-87157530D02*
X125130000Y-87960000D01*
X126335000Y-85740000D02*
X125130000Y-85740000D01*
X126335000Y-85740000D02*
X126335000Y-86286529D01*
X126335000Y-87413471D02*
X126335000Y-87960000D01*
X126335000Y-87960000D02*
X125130000Y-87960000D01*
X127095000Y-85740000D02*
X127855000Y-85740000D01*
X127855000Y-85740000D02*
X127855000Y-86850000D01*
%TO.C,D2*%
X114565000Y-88975000D02*
X114565000Y-90975000D01*
X114565000Y-88975000D02*
X118575000Y-88975000D01*
X114565000Y-90975000D02*
X118575000Y-90975000D01*
%TO.C,J2*%
X109635000Y-85765000D02*
X109635000Y-86567470D01*
X109635000Y-87182530D02*
X109635000Y-87985000D01*
X110840000Y-85765000D02*
X109635000Y-85765000D01*
X110840000Y-85765000D02*
X110840000Y-86311529D01*
X110840000Y-87438471D02*
X110840000Y-87985000D01*
X110840000Y-87985000D02*
X109635000Y-87985000D01*
X111600000Y-85765000D02*
X112360000Y-85765000D01*
X112360000Y-85765000D02*
X112360000Y-86875000D01*
%TO.C,D1*%
X109140000Y-89025000D02*
X109140000Y-91025000D01*
X109140000Y-89025000D02*
X113150000Y-89025000D01*
X109140000Y-91025000D02*
X113150000Y-91025000D01*
%TO.C,Q3*%
X120890000Y-93587500D02*
X120890000Y-92937500D01*
X120890000Y-93587500D02*
X120890000Y-94237500D01*
X124010000Y-93587500D02*
X124010000Y-92937500D01*
X124010000Y-93587500D02*
X124010000Y-94237500D01*
X120940000Y-94750000D02*
X120610000Y-94990000D01*
X120610000Y-94510000D01*
X120940000Y-94750000D01*
G36*
X120940000Y-94750000D02*
G01*
X120610000Y-94990000D01*
X120610000Y-94510000D01*
X120940000Y-94750000D01*
G37*
%TO.C,J4*%
X119930000Y-85765000D02*
X119930000Y-86567470D01*
X119930000Y-87182530D02*
X119930000Y-87985000D01*
X121135000Y-85765000D02*
X119930000Y-85765000D01*
X121135000Y-85765000D02*
X121135000Y-86311529D01*
X121135000Y-87438471D02*
X121135000Y-87985000D01*
X121135000Y-87985000D02*
X119930000Y-87985000D01*
X121895000Y-85765000D02*
X122655000Y-85765000D01*
X122655000Y-85765000D02*
X122655000Y-86875000D01*
%TO.C,J3*%
X114835000Y-85765000D02*
X114835000Y-86567470D01*
X114835000Y-87182530D02*
X114835000Y-87985000D01*
X116040000Y-85765000D02*
X114835000Y-85765000D01*
X116040000Y-85765000D02*
X116040000Y-86311529D01*
X116040000Y-87438471D02*
X116040000Y-87985000D01*
X116040000Y-87985000D02*
X114835000Y-87985000D01*
X116800000Y-85765000D02*
X117560000Y-85765000D01*
X117560000Y-85765000D02*
X117560000Y-86875000D01*
%TO.C,IN1*%
X114040000Y-101160000D02*
X114040000Y-100050000D01*
X114800000Y-101160000D02*
X114040000Y-101160000D01*
X115560000Y-98940000D02*
X115495000Y-98940000D01*
X115560000Y-99486529D02*
X115560000Y-98940000D01*
X115560000Y-101160000D02*
X115495000Y-101160000D01*
X115560000Y-101160000D02*
X115560000Y-98940000D01*
X115560000Y-101160000D02*
X115560000Y-100613471D01*
%TO.C,D3*%
X119890000Y-89000000D02*
X119890000Y-91000000D01*
X119890000Y-89000000D02*
X123900000Y-89000000D01*
X119890000Y-91000000D02*
X123900000Y-91000000D01*
%TO.C,R4*%
X126597936Y-96140000D02*
X128052064Y-96140000D01*
X126597936Y-97960000D02*
X128052064Y-97960000D01*
%TO.C,IN3*%
X119215000Y-101185000D02*
X119215000Y-100075000D01*
X119975000Y-101185000D02*
X119215000Y-101185000D01*
X120735000Y-98965000D02*
X120670000Y-98965000D01*
X120735000Y-99511529D02*
X120735000Y-98965000D01*
X120735000Y-101185000D02*
X120670000Y-101185000D01*
X120735000Y-101185000D02*
X120735000Y-98965000D01*
X120735000Y-101185000D02*
X120735000Y-100638471D01*
%TO.C,IN4*%
X121865000Y-101210000D02*
X121865000Y-100100000D01*
X122625000Y-101210000D02*
X121865000Y-101210000D01*
X123385000Y-98990000D02*
X123320000Y-98990000D01*
X123385000Y-99536529D02*
X123385000Y-98990000D01*
X123385000Y-101210000D02*
X123320000Y-101210000D01*
X123385000Y-101210000D02*
X123385000Y-98990000D01*
X123385000Y-101210000D02*
X123385000Y-100663471D01*
%TO.C,Q4*%
X126565000Y-93437500D02*
X126565000Y-92787500D01*
X126565000Y-93437500D02*
X126565000Y-94087500D01*
X129685000Y-93437500D02*
X129685000Y-92787500D01*
X129685000Y-93437500D02*
X129685000Y-94087500D01*
X126615000Y-94600000D02*
X126285000Y-94840000D01*
X126285000Y-94360000D01*
X126615000Y-94600000D01*
G36*
X126615000Y-94600000D02*
G01*
X126285000Y-94840000D01*
X126285000Y-94360000D01*
X126615000Y-94600000D01*
G37*
%TO.C,J7*%
X116640000Y-101160000D02*
X116640000Y-100050000D01*
X117400000Y-101160000D02*
X116640000Y-101160000D01*
X118160000Y-98940000D02*
X118095000Y-98940000D01*
X118160000Y-99486529D02*
X118160000Y-98940000D01*
X118160000Y-101160000D02*
X118095000Y-101160000D01*
X118160000Y-101160000D02*
X118160000Y-98940000D01*
X118160000Y-101160000D02*
X118160000Y-100613471D01*
%TO.C,Q1*%
X109765000Y-93487500D02*
X109765000Y-92837500D01*
X109765000Y-93487500D02*
X109765000Y-94137500D01*
X112885000Y-93487500D02*
X112885000Y-92837500D01*
X112885000Y-93487500D02*
X112885000Y-94137500D01*
X109815000Y-94650000D02*
X109485000Y-94890000D01*
X109485000Y-94410000D01*
X109815000Y-94650000D01*
G36*
X109815000Y-94650000D02*
G01*
X109485000Y-94890000D01*
X109485000Y-94410000D01*
X109815000Y-94650000D01*
G37*
%TO.C,D4*%
X125190000Y-88900000D02*
X125190000Y-90900000D01*
X125190000Y-88900000D02*
X129200000Y-88900000D01*
X125190000Y-90900000D02*
X129200000Y-90900000D01*
%TD*%
M02*
