%TF.GenerationSoftware,KiCad,Pcbnew,9.0.0*%
%TF.CreationDate,2025-06-16T15:16:05+05:00*%
%TF.ProjectId,dronemotordriver,64726f6e-656d-46f7-946f-726472697665,rev?*%
%TF.SameCoordinates,Original*%
%TF.FileFunction,Copper,L1,Top*%
%TF.FilePolarity,Positive*%
%FSLAX46Y46*%
G04 Gerber Fmt 4.6, Leading zero omitted, Abs format (unit mm)*
G04 Created by KiCad (PCBNEW 9.0.0) date 2025-06-16 15:16:05*
%MOMM*%
%LPD*%
G01*
G04 APERTURE LIST*
G04 Aperture macros list*
%AMRoundRect*
0 Rectangle with rounded corners*
0 $1 Rounding radius*
0 $2 $3 $4 $5 $6 $7 $8 $9 X,Y pos of 4 corners*
0 Add a 4 corners polygon primitive as box body*
4,1,4,$2,$3,$4,$5,$6,$7,$8,$9,$2,$3,0*
0 Add four circle primitives for the rounded corners*
1,1,$1+$1,$2,$3*
1,1,$1+$1,$4,$5*
1,1,$1+$1,$6,$7*
1,1,$1+$1,$8,$9*
0 Add four rect primitives between the rounded corners*
20,1,$1+$1,$2,$3,$4,$5,0*
20,1,$1+$1,$4,$5,$6,$7,0*
20,1,$1+$1,$6,$7,$8,$9,0*
20,1,$1+$1,$8,$9,$2,$3,0*%
G04 Aperture macros list end*
%TA.AperFunction,SMDPad,CuDef*%
%ADD10RoundRect,0.250000X-0.400000X-0.625000X0.400000X-0.625000X0.400000X0.625000X-0.400000X0.625000X0*%
%TD*%
%TA.AperFunction,SMDPad,CuDef*%
%ADD11RoundRect,0.150000X0.150000X-0.587500X0.150000X0.587500X-0.150000X0.587500X-0.150000X-0.587500X0*%
%TD*%
%TA.AperFunction,ComponentPad*%
%ADD12R,1.000000X1.000000*%
%TD*%
%TA.AperFunction,ComponentPad*%
%ADD13O,1.000000X1.000000*%
%TD*%
%TA.AperFunction,SMDPad,CuDef*%
%ADD14RoundRect,0.225000X-0.225000X-0.375000X0.225000X-0.375000X0.225000X0.375000X-0.225000X0.375000X0*%
%TD*%
%TA.AperFunction,ViaPad*%
%ADD15C,0.600000*%
%TD*%
%TA.AperFunction,Conductor*%
%ADD16C,0.200000*%
%TD*%
G04 APERTURE END LIST*
D10*
%TO.P,R3,1*%
%TO.N,Net-(J8-Pin_1)*%
X120500000Y-97025000D03*
%TO.P,R3,2*%
%TO.N,GND*%
X123600000Y-97025000D03*
%TD*%
%TO.P,R2,1*%
%TO.N,Net-(J7-Pin_1)*%
X115100000Y-97000000D03*
%TO.P,R2,2*%
%TO.N,GND*%
X118200000Y-97000000D03*
%TD*%
D11*
%TO.P,Q2,1,G*%
%TO.N,Net-(J7-Pin_1)*%
X115975000Y-94475000D03*
%TO.P,Q2,2,S*%
%TO.N,GND*%
X117875000Y-94475000D03*
%TO.P,Q2,3,D*%
%TO.N,Net-(D2-A)*%
X116925000Y-92600000D03*
%TD*%
D12*
%TO.P,+5V,1,Pin_1*%
%TO.N,/M+*%
X110700000Y-100275000D03*
D13*
%TO.P,+5V,2,Pin_2*%
%TO.N,GND*%
X111970000Y-100275000D03*
%TD*%
D10*
%TO.P,R1,1*%
%TO.N,Net-(J6-Pin_1)*%
X109875000Y-97025000D03*
%TO.P,R1,2*%
%TO.N,GND*%
X112975000Y-97025000D03*
%TD*%
D12*
%TO.P,J5,1,Pin_1*%
%TO.N,Net-(D4-A)*%
X127095000Y-86850000D03*
D13*
%TO.P,J5,2,Pin_2*%
%TO.N,/M+*%
X125825000Y-86850000D03*
%TD*%
D14*
%TO.P,D2,1,K*%
%TO.N,/M+*%
X115275000Y-89975000D03*
%TO.P,D2,2,A*%
%TO.N,Net-(D2-A)*%
X118575000Y-89975000D03*
%TD*%
D12*
%TO.P,J2,1,Pin_1*%
%TO.N,Net-(D1-A)*%
X111600000Y-86875000D03*
D13*
%TO.P,J2,2,Pin_2*%
%TO.N,/M+*%
X110330000Y-86875000D03*
%TD*%
D14*
%TO.P,D1,1,K*%
%TO.N,/M+*%
X109850000Y-90025000D03*
%TO.P,D1,2,A*%
%TO.N,Net-(D1-A)*%
X113150000Y-90025000D03*
%TD*%
D11*
%TO.P,Q3,1,G*%
%TO.N,Net-(J8-Pin_1)*%
X121500000Y-94525000D03*
%TO.P,Q3,2,S*%
%TO.N,GND*%
X123400000Y-94525000D03*
%TO.P,Q3,3,D*%
%TO.N,Net-(D3-A)*%
X122450000Y-92650000D03*
%TD*%
D12*
%TO.P,J4,1,Pin_1*%
%TO.N,Net-(D3-A)*%
X121895000Y-86875000D03*
D13*
%TO.P,J4,2,Pin_2*%
%TO.N,/M+*%
X120625000Y-86875000D03*
%TD*%
D12*
%TO.P,J3,1,Pin_1*%
%TO.N,Net-(D2-A)*%
X116800000Y-86875000D03*
D13*
%TO.P,J3,2,Pin_2*%
%TO.N,/M+*%
X115530000Y-86875000D03*
%TD*%
D12*
%TO.P,IN1,1,Pin_1*%
%TO.N,Net-(J6-Pin_1)*%
X114800000Y-100050000D03*
%TD*%
D14*
%TO.P,D3,1,K*%
%TO.N,/M+*%
X120600000Y-90000000D03*
%TO.P,D3,2,A*%
%TO.N,Net-(D3-A)*%
X123900000Y-90000000D03*
%TD*%
D10*
%TO.P,R4,1*%
%TO.N,Net-(J9-Pin_1)*%
X125775000Y-97050000D03*
%TO.P,R4,2*%
%TO.N,GND*%
X128875000Y-97050000D03*
%TD*%
D12*
%TO.P,IN3,1,Pin_1*%
%TO.N,Net-(J8-Pin_1)*%
X119975000Y-100075000D03*
%TD*%
%TO.P,IN4,1,Pin_1*%
%TO.N,Net-(J9-Pin_1)*%
X122625000Y-100100000D03*
%TD*%
D11*
%TO.P,Q4,1,G*%
%TO.N,Net-(J9-Pin_1)*%
X127175000Y-94375000D03*
%TO.P,Q4,2,S*%
%TO.N,GND*%
X129075000Y-94375000D03*
%TO.P,Q4,3,D*%
%TO.N,Net-(D4-A)*%
X128125000Y-92500000D03*
%TD*%
D12*
%TO.P,J7,1,Pin_1*%
%TO.N,Net-(J7-Pin_1)*%
X117400000Y-100050000D03*
%TD*%
D11*
%TO.P,Q1,1,G*%
%TO.N,Net-(J6-Pin_1)*%
X110375000Y-94425000D03*
%TO.P,Q1,2,S*%
%TO.N,GND*%
X112275000Y-94425000D03*
%TO.P,Q1,3,D*%
%TO.N,Net-(D1-A)*%
X111325000Y-92550000D03*
%TD*%
D14*
%TO.P,D4,1,K*%
%TO.N,/M+*%
X125900000Y-89900000D03*
%TO.P,D4,2,A*%
%TO.N,Net-(D4-A)*%
X129200000Y-89900000D03*
%TD*%
D15*
%TO.N,Net-(J6-Pin_1)*%
X113025000Y-98525000D03*
X110175000Y-98525000D03*
%TD*%
D16*
%TO.N,Net-(D1-A)*%
X111600000Y-86875000D02*
X111600000Y-88475000D01*
X111600000Y-88475000D02*
X113150000Y-90025000D01*
X113150000Y-90725000D02*
X113150000Y-90025000D01*
X111325000Y-92550000D02*
X113150000Y-90725000D01*
%TO.N,/M+*%
X125049000Y-86074000D02*
X120718894Y-86074000D01*
X120625000Y-89975000D02*
X120600000Y-90000000D01*
X110330000Y-86543000D02*
X110799000Y-86074000D01*
X125825000Y-86850000D02*
X125825000Y-89825000D01*
X115530000Y-89720000D02*
X115275000Y-89975000D01*
X115530000Y-86875000D02*
X115530000Y-89720000D01*
X120625000Y-86167894D02*
X120625000Y-86875000D01*
X108924000Y-98499000D02*
X110700000Y-100275000D01*
X120625000Y-86875000D02*
X119824000Y-86074000D01*
X125825000Y-89825000D02*
X125900000Y-89900000D01*
X119824000Y-86074000D02*
X115623894Y-86074000D01*
X120625000Y-86875000D02*
X120625000Y-89975000D01*
X110330000Y-86875000D02*
X110330000Y-89545000D01*
X110330000Y-86875000D02*
X110330000Y-86543000D01*
X110330000Y-89545000D02*
X109850000Y-90025000D01*
X115530000Y-86167894D02*
X115530000Y-86875000D01*
X120718894Y-86074000D02*
X120625000Y-86167894D01*
X115623894Y-86074000D02*
X115530000Y-86167894D01*
X110799000Y-86074000D02*
X114729000Y-86074000D01*
X108924000Y-90951000D02*
X108924000Y-98499000D01*
X114729000Y-86074000D02*
X115530000Y-86875000D01*
X125825000Y-86850000D02*
X125049000Y-86074000D01*
X109850000Y-90025000D02*
X108924000Y-90951000D01*
%TO.N,Net-(D2-A)*%
X116800000Y-88200000D02*
X118575000Y-89975000D01*
X116800000Y-86875000D02*
X116800000Y-88200000D01*
X116925000Y-92600000D02*
X116925000Y-91625000D01*
X116925000Y-91625000D02*
X118575000Y-89975000D01*
%TO.N,Net-(D3-A)*%
X122450000Y-92650000D02*
X122450000Y-91450000D01*
X123900000Y-90000000D02*
X123900000Y-88880000D01*
X123900000Y-88880000D02*
X121895000Y-86875000D01*
X122450000Y-91450000D02*
X123900000Y-90000000D01*
%TO.N,Net-(D4-A)*%
X128125000Y-92500000D02*
X128125000Y-90975000D01*
X127095000Y-87795000D02*
X129200000Y-89900000D01*
X127095000Y-86850000D02*
X127095000Y-87795000D01*
X128125000Y-90975000D02*
X129200000Y-89900000D01*
%TO.N,GND*%
X117420532Y-94475000D02*
X116382032Y-93436500D01*
X117875000Y-94475000D02*
X117875000Y-96675000D01*
X123400000Y-94525000D02*
X122945532Y-94525000D01*
X129075000Y-94375000D02*
X128554468Y-94375000D01*
X127515968Y-93336500D02*
X124588500Y-93336500D01*
X111970000Y-98030000D02*
X112975000Y-97025000D01*
X124588500Y-93336500D02*
X123400000Y-94525000D01*
X118863500Y-93486500D02*
X117875000Y-94475000D01*
X122945532Y-94525000D02*
X121907032Y-93486500D01*
X123400000Y-96825000D02*
X123600000Y-97025000D01*
X128554468Y-94375000D02*
X127515968Y-93336500D01*
X117875000Y-96675000D02*
X118200000Y-97000000D01*
X111970000Y-100275000D02*
X111970000Y-98030000D01*
X129075000Y-94375000D02*
X129075000Y-96850000D01*
X123400000Y-94525000D02*
X123400000Y-96825000D01*
X113263500Y-93436500D02*
X112275000Y-94425000D01*
X112275000Y-94425000D02*
X112275000Y-96325000D01*
X112275000Y-96325000D02*
X112975000Y-97025000D01*
X116382032Y-93436500D02*
X113263500Y-93436500D01*
X117875000Y-94475000D02*
X117420532Y-94475000D01*
X121907032Y-93486500D02*
X118863500Y-93486500D01*
X129075000Y-96850000D02*
X128875000Y-97050000D01*
%TO.N,Net-(J6-Pin_1)*%
X110375000Y-96525000D02*
X109875000Y-97025000D01*
X114800000Y-100050000D02*
X113275000Y-98525000D01*
X110175000Y-97325000D02*
X109875000Y-97025000D01*
X110175000Y-98525000D02*
X110175000Y-97325000D01*
X113275000Y-98525000D02*
X113025000Y-98525000D01*
X110375000Y-94425000D02*
X110375000Y-96525000D01*
%TO.N,Net-(J7-Pin_1)*%
X115975000Y-94475000D02*
X115975000Y-96125000D01*
X117400000Y-100050000D02*
X117400000Y-99300000D01*
X117400000Y-99300000D02*
X115100000Y-97000000D01*
X115975000Y-96125000D02*
X115100000Y-97000000D01*
%TO.N,Net-(J8-Pin_1)*%
X119975000Y-97550000D02*
X120500000Y-97025000D01*
X119975000Y-100075000D02*
X119975000Y-97550000D01*
X121500000Y-96025000D02*
X120500000Y-97025000D01*
X121500000Y-94525000D02*
X121500000Y-96025000D01*
%TO.N,Net-(J9-Pin_1)*%
X127175000Y-94375000D02*
X127175000Y-95650000D01*
X125675000Y-97050000D02*
X125775000Y-97050000D01*
X127175000Y-95650000D02*
X125775000Y-97050000D01*
X122625000Y-100100000D02*
X125675000Y-97050000D01*
%TD*%
%TA.AperFunction,Conductor*%
%TO.N,GND*%
G36*
X122061941Y-87895184D02*
G01*
X122082583Y-87911818D01*
X123134695Y-88963930D01*
X123168180Y-89025253D01*
X123163196Y-89094945D01*
X123134696Y-89139291D01*
X123102032Y-89171954D01*
X123102029Y-89171959D01*
X123013001Y-89316294D01*
X123012996Y-89316305D01*
X122959651Y-89477290D01*
X122949500Y-89576647D01*
X122949500Y-90049901D01*
X122929815Y-90116940D01*
X122913181Y-90137582D01*
X122081286Y-90969478D01*
X121969481Y-91081282D01*
X121969479Y-91081285D01*
X121962302Y-91093716D01*
X121932994Y-91144480D01*
X121890423Y-91218215D01*
X121849499Y-91370943D01*
X121849499Y-91370945D01*
X121849499Y-91539046D01*
X121849500Y-91539059D01*
X121849500Y-91541691D01*
X121829815Y-91608730D01*
X121813181Y-91629372D01*
X121781923Y-91660629D01*
X121781917Y-91660637D01*
X121698255Y-91802103D01*
X121698254Y-91802106D01*
X121652402Y-91959926D01*
X121652401Y-91959932D01*
X121649500Y-91996798D01*
X121649500Y-93163000D01*
X121629815Y-93230039D01*
X121577011Y-93275794D01*
X121525500Y-93287000D01*
X121284298Y-93287000D01*
X121247432Y-93289901D01*
X121247426Y-93289902D01*
X121089606Y-93335754D01*
X121089603Y-93335755D01*
X120948137Y-93419417D01*
X120948129Y-93419423D01*
X120831923Y-93535629D01*
X120831917Y-93535637D01*
X120748255Y-93677103D01*
X120748254Y-93677106D01*
X120702402Y-93834926D01*
X120702401Y-93834932D01*
X120699500Y-93871798D01*
X120699500Y-95178201D01*
X120702401Y-95215067D01*
X120702402Y-95215073D01*
X120748254Y-95372893D01*
X120748254Y-95372894D01*
X120748255Y-95372896D01*
X120748256Y-95372898D01*
X120761697Y-95395626D01*
X120801175Y-95462380D01*
X120818357Y-95530104D01*
X120796196Y-95596366D01*
X120741730Y-95640129D01*
X120694442Y-95649500D01*
X120049998Y-95649500D01*
X120049980Y-95649501D01*
X119947203Y-95660000D01*
X119947200Y-95660001D01*
X119780668Y-95715185D01*
X119780663Y-95715187D01*
X119631342Y-95807289D01*
X119507288Y-95931343D01*
X119507285Y-95931347D01*
X119462954Y-96003219D01*
X119411006Y-96049944D01*
X119342044Y-96061165D01*
X119277962Y-96033322D01*
X119251877Y-96003219D01*
X119192315Y-95906654D01*
X119068345Y-95782684D01*
X118919124Y-95690643D01*
X118919119Y-95690641D01*
X118752697Y-95635494D01*
X118752690Y-95635493D01*
X118651803Y-95625186D01*
X118587111Y-95598790D01*
X118546960Y-95541609D01*
X118544097Y-95471798D01*
X118557674Y-95438707D01*
X118626282Y-95322696D01*
X118626283Y-95322693D01*
X118672099Y-95164995D01*
X118672100Y-95164989D01*
X118674999Y-95128149D01*
X118675000Y-95128134D01*
X118675000Y-94725000D01*
X117075000Y-94725000D01*
X117075000Y-95128149D01*
X117077899Y-95164989D01*
X117077900Y-95164995D01*
X117123716Y-95322693D01*
X117123717Y-95322696D01*
X117207314Y-95464052D01*
X117207321Y-95464061D01*
X117323438Y-95580178D01*
X117329607Y-95584963D01*
X117327964Y-95587080D01*
X117366844Y-95628709D01*
X117379357Y-95697449D01*
X117352719Y-95762042D01*
X117332972Y-95781641D01*
X117331661Y-95782677D01*
X117207684Y-95906654D01*
X117115643Y-96055875D01*
X117115641Y-96055880D01*
X117060494Y-96222302D01*
X117060493Y-96222309D01*
X117050000Y-96325013D01*
X117050000Y-96750000D01*
X118076000Y-96750000D01*
X118143039Y-96769685D01*
X118188794Y-96822489D01*
X118200000Y-96874000D01*
X118200000Y-97000000D01*
X118326000Y-97000000D01*
X118393039Y-97019685D01*
X118438794Y-97072489D01*
X118450000Y-97124000D01*
X118450000Y-98374999D01*
X118649972Y-98374999D01*
X118649986Y-98374998D01*
X118752697Y-98364505D01*
X118919119Y-98309358D01*
X118919124Y-98309356D01*
X119068345Y-98217315D01*
X119162819Y-98122842D01*
X119224142Y-98089357D01*
X119293834Y-98094341D01*
X119349767Y-98136213D01*
X119374184Y-98201677D01*
X119374500Y-98210523D01*
X119374500Y-98992209D01*
X119354815Y-99059248D01*
X119302011Y-99105003D01*
X119293833Y-99108391D01*
X119232671Y-99131202D01*
X119232664Y-99131206D01*
X119117455Y-99217452D01*
X119117452Y-99217455D01*
X119031206Y-99332664D01*
X119031202Y-99332671D01*
X118980908Y-99467517D01*
X118977187Y-99502135D01*
X118974501Y-99527123D01*
X118974500Y-99527135D01*
X118974500Y-100622870D01*
X118974501Y-100622876D01*
X118980908Y-100682483D01*
X119031202Y-100817328D01*
X119031206Y-100817335D01*
X119117452Y-100932544D01*
X119117455Y-100932547D01*
X119232664Y-101018793D01*
X119232671Y-101018797D01*
X119367517Y-101069091D01*
X119367516Y-101069091D01*
X119374444Y-101069835D01*
X119427127Y-101075500D01*
X120522872Y-101075499D01*
X120582483Y-101069091D01*
X120717331Y-101018796D01*
X120832546Y-100932546D01*
X120918796Y-100817331D01*
X120969091Y-100682483D01*
X120975500Y-100622873D01*
X120975499Y-99527128D01*
X120969091Y-99467517D01*
X120959766Y-99442516D01*
X120918797Y-99332671D01*
X120918793Y-99332664D01*
X120832547Y-99217455D01*
X120832544Y-99217452D01*
X120717335Y-99131206D01*
X120717328Y-99131202D01*
X120656167Y-99108391D01*
X120600233Y-99066520D01*
X120575816Y-99001056D01*
X120575500Y-98992209D01*
X120575500Y-98524499D01*
X120595185Y-98457460D01*
X120647989Y-98411705D01*
X120699500Y-98400499D01*
X120950002Y-98400499D01*
X120950008Y-98400499D01*
X121052797Y-98389999D01*
X121219334Y-98334814D01*
X121368656Y-98242712D01*
X121492712Y-98118656D01*
X121584814Y-97969334D01*
X121639999Y-97802797D01*
X121650500Y-97700009D01*
X121650499Y-96775097D01*
X121670183Y-96708059D01*
X121686818Y-96687417D01*
X121768715Y-96605520D01*
X121980520Y-96393716D01*
X122005752Y-96350013D01*
X122450000Y-96350013D01*
X122450000Y-96775000D01*
X123350000Y-96775000D01*
X123350000Y-95892500D01*
X123274000Y-95892500D01*
X123206961Y-95872815D01*
X123161206Y-95820011D01*
X123150000Y-95768500D01*
X123150000Y-94775000D01*
X122600000Y-94775000D01*
X122600000Y-95178149D01*
X122602899Y-95214989D01*
X122602900Y-95214995D01*
X122648716Y-95372693D01*
X122648717Y-95372696D01*
X122732314Y-95514052D01*
X122732321Y-95514061D01*
X122802782Y-95584522D01*
X122836267Y-95645845D01*
X122831283Y-95715537D01*
X122789411Y-95771470D01*
X122780199Y-95777741D01*
X122731656Y-95807682D01*
X122607684Y-95931654D01*
X122515643Y-96080875D01*
X122515641Y-96080880D01*
X122460494Y-96247302D01*
X122460493Y-96247309D01*
X122450000Y-96350013D01*
X122005752Y-96350013D01*
X122059577Y-96256784D01*
X122100501Y-96104057D01*
X122100501Y-95945942D01*
X122100501Y-95938347D01*
X122100500Y-95938329D01*
X122100500Y-95633308D01*
X122120185Y-95566269D01*
X122136820Y-95545626D01*
X122168076Y-95514370D01*
X122168081Y-95514365D01*
X122251744Y-95372898D01*
X122285505Y-95256691D01*
X122297597Y-95215073D01*
X122297598Y-95215067D01*
X122300499Y-95178201D01*
X122300500Y-95178194D01*
X122300500Y-94012000D01*
X122303050Y-94003314D01*
X122301762Y-93994353D01*
X122312740Y-93970312D01*
X122320185Y-93944961D01*
X122327025Y-93939033D01*
X122330787Y-93930797D01*
X122353021Y-93916507D01*
X122372989Y-93899206D01*
X122383503Y-93896918D01*
X122389565Y-93893023D01*
X122424500Y-93888000D01*
X122476000Y-93888000D01*
X122543039Y-93907685D01*
X122588794Y-93960489D01*
X122600000Y-94012000D01*
X122600000Y-94275000D01*
X123150000Y-94275000D01*
X123650000Y-94275000D01*
X124200000Y-94275000D01*
X124200000Y-93871865D01*
X124199999Y-93871850D01*
X124197100Y-93835010D01*
X124197099Y-93835004D01*
X124151283Y-93677306D01*
X124151282Y-93677303D01*
X124067685Y-93535947D01*
X124067678Y-93535938D01*
X123951561Y-93419821D01*
X123951552Y-93419814D01*
X123810196Y-93336217D01*
X123810193Y-93336216D01*
X123652494Y-93290400D01*
X123652497Y-93290400D01*
X123650000Y-93290203D01*
X123650000Y-94275000D01*
X123150000Y-94275000D01*
X123150000Y-93619314D01*
X123167267Y-93556194D01*
X123201744Y-93497898D01*
X123239072Y-93369417D01*
X123247597Y-93340073D01*
X123247598Y-93340067D01*
X123247937Y-93335756D01*
X123250500Y-93303194D01*
X123250500Y-91996806D01*
X123247598Y-91959931D01*
X123243782Y-91946798D01*
X123204019Y-91809932D01*
X123201744Y-91802102D01*
X123161170Y-91733495D01*
X123156086Y-91724898D01*
X123138903Y-91657174D01*
X123161063Y-91590911D01*
X123175131Y-91574102D01*
X123612416Y-91136818D01*
X123673739Y-91103333D01*
X123700097Y-91100499D01*
X124173338Y-91100499D01*
X124173344Y-91100499D01*
X124173352Y-91100498D01*
X124173355Y-91100498D01*
X124227760Y-91094940D01*
X124272708Y-91090349D01*
X124433697Y-91037003D01*
X124578044Y-90947968D01*
X124697968Y-90828044D01*
X124787003Y-90683697D01*
X124803895Y-90632718D01*
X124843667Y-90575274D01*
X124908183Y-90548450D01*
X124976959Y-90560765D01*
X125027139Y-90606625D01*
X125102029Y-90728040D01*
X125102032Y-90728044D01*
X125221955Y-90847967D01*
X125221959Y-90847970D01*
X125366294Y-90936998D01*
X125366297Y-90936999D01*
X125366303Y-90937003D01*
X125527292Y-90990349D01*
X125626655Y-91000500D01*
X126173344Y-91000499D01*
X126173352Y-91000498D01*
X126173355Y-91000498D01*
X126227760Y-90994940D01*
X126272708Y-90990349D01*
X126433697Y-90937003D01*
X126578044Y-90847968D01*
X126697968Y-90728044D01*
X126787003Y-90583697D01*
X126840349Y-90422708D01*
X126850500Y-90323345D01*
X126850499Y-89476656D01*
X126840349Y-89377292D01*
X126787003Y-89216303D01*
X126786999Y-89216297D01*
X126786998Y-89216294D01*
X126697970Y-89071959D01*
X126697967Y-89071955D01*
X126578043Y-88952031D01*
X126484402Y-88894272D01*
X126437678Y-88842324D01*
X126425500Y-88788734D01*
X126425500Y-88274098D01*
X126431738Y-88252852D01*
X126433318Y-88230765D01*
X126441390Y-88219981D01*
X126445185Y-88207059D01*
X126461916Y-88192560D01*
X126475189Y-88174831D01*
X126487811Y-88170123D01*
X126497989Y-88161304D01*
X126519904Y-88158152D01*
X126540653Y-88150414D01*
X126553814Y-88153276D01*
X126567147Y-88151360D01*
X126587288Y-88160558D01*
X126608926Y-88165265D01*
X126626652Y-88178535D01*
X126630703Y-88180385D01*
X126637166Y-88186402D01*
X126726284Y-88275520D01*
X126726286Y-88275521D01*
X128213182Y-89762418D01*
X128246666Y-89823739D01*
X128249500Y-89850097D01*
X128249500Y-89949901D01*
X128229815Y-90016940D01*
X128213181Y-90037582D01*
X127759295Y-90491468D01*
X127759288Y-90491475D01*
X127756286Y-90494478D01*
X127756284Y-90494480D01*
X127644480Y-90606284D01*
X127621584Y-90645942D01*
X127615572Y-90656354D01*
X127615572Y-90656355D01*
X127585348Y-90708705D01*
X127565423Y-90743215D01*
X127524499Y-90895943D01*
X127524499Y-90895945D01*
X127524499Y-91064046D01*
X127524500Y-91064059D01*
X127524500Y-91391691D01*
X127504815Y-91458730D01*
X127488181Y-91479372D01*
X127456923Y-91510629D01*
X127456917Y-91510637D01*
X127373255Y-91652103D01*
X127373254Y-91652106D01*
X127327402Y-91809926D01*
X127327401Y-91809932D01*
X127324500Y-91846798D01*
X127324500Y-93013000D01*
X127304815Y-93080039D01*
X127252011Y-93125794D01*
X127200500Y-93137000D01*
X126959298Y-93137000D01*
X126922432Y-93139901D01*
X126922426Y-93139902D01*
X126764606Y-93185754D01*
X126764603Y-93185755D01*
X126623137Y-93269417D01*
X126623129Y-93269423D01*
X126506923Y-93385629D01*
X126506917Y-93385637D01*
X126423255Y-93527103D01*
X126423254Y-93527106D01*
X126377402Y-93684926D01*
X126377401Y-93684932D01*
X126374500Y-93721798D01*
X126374500Y-95028201D01*
X126377401Y-95065067D01*
X126377402Y-95065073D01*
X126423254Y-95222893D01*
X126423255Y-95222896D01*
X126496784Y-95347228D01*
X126503786Y-95374828D01*
X126513736Y-95401503D01*
X126512267Y-95408253D01*
X126513967Y-95414952D01*
X126504935Y-95441958D01*
X126498884Y-95469776D01*
X126493007Y-95477626D01*
X126491807Y-95481215D01*
X126477733Y-95498030D01*
X126335861Y-95639902D01*
X126274538Y-95673387D01*
X126235582Y-95675579D01*
X126225028Y-95674501D01*
X126225012Y-95674500D01*
X126225009Y-95674500D01*
X126225003Y-95674500D01*
X125324998Y-95674500D01*
X125324980Y-95674501D01*
X125222203Y-95685000D01*
X125222200Y-95685001D01*
X125055668Y-95740185D01*
X125055663Y-95740187D01*
X124906345Y-95832287D01*
X124785099Y-95953533D01*
X124723776Y-95987017D01*
X124654084Y-95982033D01*
X124598151Y-95940161D01*
X124592641Y-95932066D01*
X124592316Y-95931655D01*
X124468345Y-95807684D01*
X124319124Y-95715643D01*
X124319119Y-95715641D01*
X124155248Y-95661340D01*
X124097803Y-95621567D01*
X124070980Y-95557052D01*
X124083295Y-95488276D01*
X124087520Y-95480513D01*
X124151282Y-95372696D01*
X124151283Y-95372693D01*
X124197099Y-95214995D01*
X124197100Y-95214989D01*
X124199999Y-95178149D01*
X124200000Y-95178134D01*
X124200000Y-94775000D01*
X123650000Y-94775000D01*
X123650000Y-95520000D01*
X123726000Y-95520000D01*
X123793039Y-95539685D01*
X123838794Y-95592489D01*
X123850000Y-95644000D01*
X123850000Y-96901000D01*
X123830315Y-96968039D01*
X123777511Y-97013794D01*
X123726000Y-97025000D01*
X123600000Y-97025000D01*
X123600000Y-97151000D01*
X123580315Y-97218039D01*
X123527511Y-97263794D01*
X123476000Y-97275000D01*
X122450001Y-97275000D01*
X122450001Y-97699986D01*
X122460494Y-97802697D01*
X122515641Y-97969119D01*
X122515643Y-97969124D01*
X122607684Y-98118345D01*
X122731654Y-98242315D01*
X122880875Y-98334356D01*
X122880880Y-98334358D01*
X123047302Y-98389505D01*
X123047309Y-98389506D01*
X123150018Y-98399999D01*
X123176397Y-98399999D01*
X123243437Y-98419681D01*
X123289194Y-98472484D01*
X123299139Y-98541642D01*
X123270117Y-98605199D01*
X123264082Y-98611680D01*
X122812582Y-99063181D01*
X122751259Y-99096666D01*
X122724901Y-99099500D01*
X122077129Y-99099500D01*
X122077123Y-99099501D01*
X122017516Y-99105908D01*
X121882671Y-99156202D01*
X121882664Y-99156206D01*
X121767455Y-99242452D01*
X121767452Y-99242455D01*
X121681206Y-99357664D01*
X121681202Y-99357671D01*
X121630908Y-99492517D01*
X121624501Y-99552116D01*
X121624500Y-99552135D01*
X121624500Y-100647870D01*
X121624501Y-100647876D01*
X121630908Y-100707483D01*
X121681202Y-100842328D01*
X121681206Y-100842335D01*
X121767452Y-100957544D01*
X121767455Y-100957547D01*
X121882664Y-101043793D01*
X121882671Y-101043797D01*
X122017517Y-101094091D01*
X122017516Y-101094091D01*
X122024444Y-101094835D01*
X122077127Y-101100500D01*
X123172872Y-101100499D01*
X123232483Y-101094091D01*
X123367331Y-101043796D01*
X123482546Y-100957546D01*
X123568796Y-100842331D01*
X123619091Y-100707483D01*
X123625500Y-100647873D01*
X123625499Y-100000095D01*
X123645183Y-99933057D01*
X123661813Y-99912420D01*
X125123408Y-98450825D01*
X125184729Y-98417342D01*
X125223684Y-98415150D01*
X125324991Y-98425500D01*
X126225008Y-98425499D01*
X126225016Y-98425498D01*
X126225019Y-98425498D01*
X126304860Y-98417342D01*
X126327797Y-98414999D01*
X126494334Y-98359814D01*
X126643656Y-98267712D01*
X126767712Y-98143656D01*
X126859814Y-97994334D01*
X126914999Y-97827797D01*
X126925500Y-97725009D01*
X126925500Y-97724986D01*
X127725001Y-97724986D01*
X127735494Y-97827697D01*
X127790641Y-97994119D01*
X127790643Y-97994124D01*
X127882684Y-98143345D01*
X128006654Y-98267315D01*
X128155875Y-98359356D01*
X128155880Y-98359358D01*
X128322302Y-98414505D01*
X128322309Y-98414506D01*
X128425019Y-98424999D01*
X128624999Y-98424999D01*
X128625000Y-98424998D01*
X128625000Y-97300000D01*
X127725001Y-97300000D01*
X127725001Y-97724986D01*
X126925500Y-97724986D01*
X126925499Y-96800095D01*
X126945184Y-96733057D01*
X126961813Y-96712420D01*
X127530848Y-96143385D01*
X127592169Y-96109902D01*
X127661861Y-96114886D01*
X127717794Y-96156758D01*
X127742211Y-96222222D01*
X127736786Y-96265662D01*
X127736911Y-96265689D01*
X127736603Y-96267124D01*
X127736237Y-96270060D01*
X127735496Y-96272296D01*
X127735493Y-96272309D01*
X127725000Y-96375013D01*
X127725000Y-96800000D01*
X128625000Y-96800000D01*
X128625000Y-95669000D01*
X128644685Y-95601961D01*
X128697489Y-95556206D01*
X128749000Y-95545000D01*
X128825000Y-95545000D01*
X128825000Y-94625000D01*
X128275000Y-94625000D01*
X128275000Y-95028149D01*
X128277899Y-95064989D01*
X128277900Y-95064995D01*
X128323716Y-95222693D01*
X128323717Y-95222696D01*
X128407314Y-95364052D01*
X128407321Y-95364061D01*
X128506723Y-95463463D01*
X128540208Y-95524786D01*
X128535224Y-95594478D01*
X128493352Y-95650411D01*
X128427888Y-95674828D01*
X128425374Y-95674982D01*
X128425039Y-95674999D01*
X128322302Y-95685494D01*
X128155880Y-95740641D01*
X128155875Y-95740643D01*
X128006656Y-95832682D01*
X127980191Y-95859148D01*
X127918867Y-95892632D01*
X127849176Y-95887646D01*
X127793243Y-95845774D01*
X127768827Y-95780309D01*
X127768581Y-95767304D01*
X127769057Y-95753102D01*
X127775501Y-95729057D01*
X127775501Y-95570943D01*
X127775500Y-95570939D01*
X127775500Y-95483308D01*
X127795185Y-95416269D01*
X127811820Y-95395626D01*
X127843076Y-95364370D01*
X127843081Y-95364365D01*
X127926744Y-95222898D01*
X127972598Y-95065069D01*
X127975500Y-95028194D01*
X127975500Y-93862000D01*
X127978050Y-93853314D01*
X127976762Y-93844353D01*
X127987740Y-93820312D01*
X127995185Y-93794961D01*
X128002025Y-93789033D01*
X128005787Y-93780797D01*
X128028021Y-93766507D01*
X128047989Y-93749206D01*
X128058503Y-93746918D01*
X128064565Y-93743023D01*
X128099500Y-93738000D01*
X128151000Y-93738000D01*
X128218039Y-93757685D01*
X128263794Y-93810489D01*
X128275000Y-93862000D01*
X128275000Y-94125000D01*
X128825000Y-94125000D01*
X129325000Y-94125000D01*
X129875000Y-94125000D01*
X129875000Y-93721865D01*
X129874999Y-93721850D01*
X129872100Y-93685010D01*
X129872099Y-93685004D01*
X129826283Y-93527306D01*
X129826282Y-93527303D01*
X129742685Y-93385947D01*
X129742678Y-93385938D01*
X129626561Y-93269821D01*
X129626552Y-93269814D01*
X129485196Y-93186217D01*
X129485193Y-93186216D01*
X129327494Y-93140400D01*
X129327497Y-93140400D01*
X129325000Y-93140203D01*
X129325000Y-94125000D01*
X128825000Y-94125000D01*
X128825000Y-93469314D01*
X128842267Y-93406194D01*
X128876744Y-93347898D01*
X128922598Y-93190069D01*
X128925500Y-93153194D01*
X128925500Y-91846806D01*
X128922598Y-91809931D01*
X128920323Y-91802102D01*
X128879221Y-91660629D01*
X128876744Y-91652102D01*
X128793081Y-91510635D01*
X128793079Y-91510633D01*
X128793076Y-91510629D01*
X128761819Y-91479372D01*
X128747115Y-91452444D01*
X128730523Y-91426626D01*
X128729631Y-91420425D01*
X128728334Y-91418049D01*
X128725500Y-91391691D01*
X128725500Y-91275096D01*
X128745185Y-91208057D01*
X128761815Y-91187419D01*
X128912416Y-91036817D01*
X128973739Y-91003333D01*
X129000097Y-91000499D01*
X129473338Y-91000499D01*
X129473344Y-91000499D01*
X129473352Y-91000498D01*
X129473355Y-91000498D01*
X129527760Y-90994940D01*
X129572708Y-90990349D01*
X129733697Y-90937003D01*
X129878044Y-90847968D01*
X129997968Y-90728044D01*
X130019962Y-90692385D01*
X130071909Y-90645663D01*
X130140872Y-90634440D01*
X130204954Y-90662284D01*
X130243810Y-90720353D01*
X130249500Y-90757484D01*
X130249500Y-96213043D01*
X130229815Y-96280082D01*
X130177011Y-96325837D01*
X130107853Y-96335781D01*
X130044297Y-96306756D01*
X130007794Y-96252047D01*
X129959358Y-96105880D01*
X129959356Y-96105875D01*
X129867315Y-95956654D01*
X129743345Y-95832684D01*
X129594124Y-95740643D01*
X129594111Y-95740637D01*
X129591318Y-95739712D01*
X129589653Y-95738559D01*
X129587579Y-95737592D01*
X129587744Y-95737237D01*
X129533877Y-95699935D01*
X129507060Y-95635416D01*
X129519381Y-95566642D01*
X129566929Y-95515446D01*
X129567213Y-95515277D01*
X129626555Y-95480182D01*
X129626561Y-95480178D01*
X129742678Y-95364061D01*
X129742685Y-95364052D01*
X129826282Y-95222696D01*
X129826283Y-95222693D01*
X129872099Y-95064995D01*
X129872100Y-95064989D01*
X129874999Y-95028149D01*
X129875000Y-95028134D01*
X129875000Y-94625000D01*
X129325000Y-94625000D01*
X129325000Y-95618500D01*
X129305315Y-95685539D01*
X129252511Y-95731294D01*
X129201000Y-95742500D01*
X129125000Y-95742500D01*
X129125000Y-98424999D01*
X129324972Y-98424999D01*
X129324986Y-98424998D01*
X129427697Y-98414505D01*
X129594119Y-98359358D01*
X129594124Y-98359356D01*
X129743345Y-98267315D01*
X129867315Y-98143345D01*
X129959356Y-97994124D01*
X129959358Y-97994119D01*
X130007794Y-97847950D01*
X130047566Y-97790505D01*
X130112082Y-97763682D01*
X130180858Y-97775997D01*
X130232058Y-97823540D01*
X130249500Y-97886954D01*
X130249500Y-101763000D01*
X130229815Y-101830039D01*
X130177011Y-101875794D01*
X130125500Y-101887000D01*
X108699500Y-101887000D01*
X108632461Y-101867315D01*
X108586706Y-101814511D01*
X108575500Y-101763000D01*
X108575500Y-99299097D01*
X108595185Y-99232058D01*
X108647989Y-99186303D01*
X108717147Y-99176359D01*
X108780703Y-99205384D01*
X108787181Y-99211416D01*
X109663181Y-100087416D01*
X109696666Y-100148739D01*
X109699500Y-100175097D01*
X109699500Y-100822870D01*
X109699501Y-100822876D01*
X109705908Y-100882483D01*
X109756202Y-101017328D01*
X109756206Y-101017335D01*
X109842452Y-101132544D01*
X109842455Y-101132547D01*
X109957664Y-101218793D01*
X109957671Y-101218797D01*
X110092517Y-101269091D01*
X110092516Y-101269091D01*
X110099444Y-101269835D01*
X110152127Y-101275500D01*
X111247872Y-101275499D01*
X111307483Y-101269091D01*
X111442331Y-101218796D01*
X111454575Y-101209629D01*
X111520035Y-101185210D01*
X111576339Y-101194333D01*
X111678308Y-101236569D01*
X111720000Y-101244862D01*
X112220000Y-101244862D01*
X112261690Y-101236569D01*
X112261692Y-101236569D01*
X112443671Y-101161192D01*
X112443684Y-101161185D01*
X112607462Y-101051751D01*
X112607466Y-101051748D01*
X112746748Y-100912466D01*
X112746751Y-100912462D01*
X112856185Y-100748684D01*
X112856192Y-100748671D01*
X112931569Y-100566692D01*
X112931569Y-100566690D01*
X112939862Y-100525000D01*
X112220000Y-100525000D01*
X112220000Y-101244862D01*
X111720000Y-101244862D01*
X111720000Y-100484618D01*
X111770446Y-100535064D01*
X111844555Y-100577851D01*
X111927213Y-100600000D01*
X112012787Y-100600000D01*
X112095445Y-100577851D01*
X112169554Y-100535064D01*
X112230064Y-100474554D01*
X112272851Y-100400445D01*
X112295000Y-100317787D01*
X112295000Y-100232213D01*
X112272851Y-100149555D01*
X112230064Y-100075446D01*
X112179618Y-100025000D01*
X112220000Y-100025000D01*
X112939862Y-100025000D01*
X112931569Y-99983309D01*
X112931569Y-99983307D01*
X112856192Y-99801328D01*
X112856185Y-99801315D01*
X112746751Y-99637537D01*
X112746748Y-99637533D01*
X112607466Y-99498251D01*
X112607460Y-99498246D01*
X112554870Y-99463106D01*
X112411432Y-99375453D01*
X112261691Y-99313429D01*
X112261683Y-99313427D01*
X112220000Y-99305135D01*
X112220000Y-100025000D01*
X112179618Y-100025000D01*
X112169554Y-100014936D01*
X112095445Y-99972149D01*
X112012787Y-99950000D01*
X111927213Y-99950000D01*
X111844555Y-99972149D01*
X111770446Y-100014936D01*
X111720000Y-100065382D01*
X111720000Y-99305136D01*
X111719999Y-99305135D01*
X111678316Y-99313427D01*
X111576339Y-99355666D01*
X111506870Y-99363133D01*
X111454578Y-99340372D01*
X111442330Y-99331203D01*
X111442328Y-99331202D01*
X111307482Y-99280908D01*
X111307483Y-99280908D01*
X111247883Y-99274501D01*
X111247881Y-99274500D01*
X111247873Y-99274500D01*
X111247865Y-99274500D01*
X110856941Y-99274500D01*
X110789902Y-99254815D01*
X110744147Y-99202011D01*
X110734203Y-99132853D01*
X110763228Y-99069297D01*
X110769260Y-99062819D01*
X110796786Y-99035292D01*
X110796789Y-99035289D01*
X110884394Y-98904179D01*
X110944737Y-98758497D01*
X110975500Y-98603842D01*
X110975500Y-98446158D01*
X110975500Y-98446157D01*
X110975500Y-98446155D01*
X110975499Y-98446153D01*
X110966418Y-98400499D01*
X110944737Y-98291503D01*
X110895224Y-98171969D01*
X110887756Y-98102501D01*
X110904248Y-98059421D01*
X110944527Y-97994119D01*
X110959814Y-97969334D01*
X111014999Y-97802797D01*
X111025500Y-97700009D01*
X111025499Y-96349992D01*
X111014999Y-96247203D01*
X111006715Y-96222203D01*
X110981794Y-96146996D01*
X110975500Y-96107992D01*
X110975500Y-95533308D01*
X110995185Y-95466269D01*
X111011820Y-95445626D01*
X111043076Y-95414370D01*
X111043081Y-95414365D01*
X111126744Y-95272898D01*
X111172598Y-95115069D01*
X111175500Y-95078194D01*
X111175500Y-95078149D01*
X111475000Y-95078149D01*
X111477899Y-95114989D01*
X111477900Y-95114995D01*
X111523716Y-95272693D01*
X111523717Y-95272696D01*
X111607314Y-95414052D01*
X111607321Y-95414061D01*
X111723438Y-95530178D01*
X111723447Y-95530185D01*
X111864803Y-95613782D01*
X111864806Y-95613783D01*
X112001111Y-95653384D01*
X112059997Y-95690990D01*
X112089203Y-95754462D01*
X112079457Y-95823649D01*
X112054198Y-95860141D01*
X111982682Y-95931657D01*
X111890643Y-96080875D01*
X111890641Y-96080880D01*
X111835494Y-96247302D01*
X111835493Y-96247309D01*
X111825000Y-96350013D01*
X111825000Y-96775000D01*
X112725000Y-96775000D01*
X112725000Y-95644000D01*
X112744685Y-95576961D01*
X112797489Y-95531206D01*
X112823175Y-95525617D01*
X112836737Y-95520000D01*
X112942681Y-95414057D01*
X112942685Y-95414052D01*
X113026282Y-95272696D01*
X113026283Y-95272693D01*
X113072099Y-95114995D01*
X113072100Y-95114989D01*
X113074999Y-95078149D01*
X113075000Y-95078134D01*
X113075000Y-94675000D01*
X111475000Y-94675000D01*
X111475000Y-95078149D01*
X111175500Y-95078149D01*
X111175500Y-93912000D01*
X111195185Y-93844961D01*
X111247989Y-93799206D01*
X111299500Y-93788000D01*
X111351000Y-93788000D01*
X111418039Y-93807685D01*
X111463794Y-93860489D01*
X111475000Y-93912000D01*
X111475000Y-94175000D01*
X112025000Y-94175000D01*
X112525000Y-94175000D01*
X113075000Y-94175000D01*
X113075000Y-93771865D01*
X113074999Y-93771850D01*
X113072100Y-93735010D01*
X113072099Y-93735004D01*
X113026283Y-93577306D01*
X113026282Y-93577303D01*
X112942685Y-93435947D01*
X112942678Y-93435938D01*
X112826561Y-93319821D01*
X112826552Y-93319814D01*
X112685196Y-93236217D01*
X112685193Y-93236216D01*
X112527494Y-93190400D01*
X112527497Y-93190400D01*
X112525000Y-93190203D01*
X112525000Y-94175000D01*
X112025000Y-94175000D01*
X112025000Y-93519314D01*
X112042267Y-93456194D01*
X112076744Y-93397898D01*
X112122598Y-93240069D01*
X112125500Y-93203194D01*
X112125500Y-92650097D01*
X112145185Y-92583058D01*
X112161819Y-92562416D01*
X112877437Y-91846798D01*
X113630520Y-91093716D01*
X113630521Y-91093713D01*
X113630814Y-91093421D01*
X113679497Y-91063394D01*
X113683697Y-91062003D01*
X113828044Y-90972968D01*
X113947968Y-90853044D01*
X114037003Y-90708697D01*
X114090349Y-90547708D01*
X114092954Y-90522203D01*
X114119348Y-90457512D01*
X114176528Y-90417359D01*
X114246339Y-90414494D01*
X114306616Y-90449827D01*
X114334018Y-90495800D01*
X114387996Y-90658694D01*
X114388001Y-90658705D01*
X114477029Y-90803040D01*
X114477032Y-90803044D01*
X114596955Y-90922967D01*
X114596959Y-90922970D01*
X114741294Y-91011998D01*
X114741297Y-91011999D01*
X114741303Y-91012003D01*
X114902292Y-91065349D01*
X115001655Y-91075500D01*
X115548344Y-91075499D01*
X115548352Y-91075498D01*
X115548355Y-91075498D01*
X115602760Y-91069940D01*
X115647708Y-91065349D01*
X115808697Y-91012003D01*
X115953044Y-90922968D01*
X116072968Y-90803044D01*
X116162003Y-90658697D01*
X116215349Y-90497708D01*
X116225500Y-90398345D01*
X116225499Y-89551656D01*
X116220456Y-89502292D01*
X116215349Y-89452292D01*
X116215348Y-89452289D01*
X116192972Y-89384762D01*
X116162003Y-89291303D01*
X116161999Y-89291296D01*
X116148961Y-89270158D01*
X116130500Y-89205062D01*
X116130500Y-88679098D01*
X116136738Y-88657852D01*
X116138318Y-88635765D01*
X116146390Y-88624981D01*
X116150185Y-88612059D01*
X116166916Y-88597560D01*
X116180189Y-88579831D01*
X116192811Y-88575123D01*
X116202989Y-88566304D01*
X116224904Y-88563152D01*
X116245653Y-88555414D01*
X116258814Y-88558276D01*
X116272147Y-88556360D01*
X116292288Y-88565558D01*
X116313926Y-88570265D01*
X116331652Y-88583535D01*
X116335703Y-88585385D01*
X116342166Y-88591402D01*
X116431284Y-88680520D01*
X116431286Y-88680521D01*
X116438356Y-88687591D01*
X117588181Y-89837416D01*
X117621666Y-89898739D01*
X117624500Y-89925097D01*
X117624500Y-90024902D01*
X117604815Y-90091941D01*
X117588181Y-90112583D01*
X116444481Y-91256282D01*
X116444479Y-91256285D01*
X116399645Y-91333941D01*
X116394360Y-91343095D01*
X116365423Y-91393215D01*
X116332684Y-91515394D01*
X116330712Y-91520739D01*
X116318107Y-91537698D01*
X116302063Y-91565490D01*
X116256919Y-91610634D01*
X116256915Y-91610640D01*
X116173255Y-91752103D01*
X116173254Y-91752106D01*
X116127402Y-91909926D01*
X116127401Y-91909932D01*
X116124500Y-91946798D01*
X116124500Y-93113000D01*
X116104815Y-93180039D01*
X116052011Y-93225794D01*
X116000500Y-93237000D01*
X115759298Y-93237000D01*
X115722432Y-93239901D01*
X115722426Y-93239902D01*
X115564606Y-93285754D01*
X115564603Y-93285755D01*
X115423137Y-93369417D01*
X115423129Y-93369423D01*
X115306923Y-93485629D01*
X115306917Y-93485637D01*
X115223255Y-93627103D01*
X115223254Y-93627106D01*
X115177402Y-93784926D01*
X115177401Y-93784932D01*
X115174500Y-93821798D01*
X115174500Y-95128201D01*
X115177401Y-95165067D01*
X115177402Y-95165073D01*
X115223254Y-95322893D01*
X115223257Y-95322900D01*
X115290959Y-95437380D01*
X115308142Y-95505104D01*
X115285982Y-95571366D01*
X115231515Y-95615129D01*
X115184227Y-95624500D01*
X114649998Y-95624500D01*
X114649980Y-95624501D01*
X114547203Y-95635000D01*
X114547200Y-95635001D01*
X114380668Y-95690185D01*
X114380663Y-95690187D01*
X114231345Y-95782287D01*
X114112327Y-95901305D01*
X114051004Y-95934789D01*
X113981312Y-95929805D01*
X113936965Y-95901304D01*
X113843345Y-95807684D01*
X113694124Y-95715643D01*
X113694119Y-95715641D01*
X113527697Y-95660494D01*
X113527690Y-95660493D01*
X113424986Y-95650000D01*
X113225000Y-95650000D01*
X113225000Y-96901000D01*
X113205315Y-96968039D01*
X113152511Y-97013794D01*
X113101000Y-97025000D01*
X112975000Y-97025000D01*
X112975000Y-97151000D01*
X112955315Y-97218039D01*
X112902511Y-97263794D01*
X112851000Y-97275000D01*
X111825001Y-97275000D01*
X111825001Y-97699986D01*
X111835494Y-97802697D01*
X111890641Y-97969119D01*
X111890643Y-97969124D01*
X111982684Y-98118345D01*
X112106655Y-98242316D01*
X112106657Y-98242317D01*
X112174407Y-98284106D01*
X112221132Y-98336054D01*
X112232355Y-98405016D01*
X112230929Y-98413834D01*
X112224500Y-98446157D01*
X112224500Y-98603846D01*
X112255261Y-98758489D01*
X112255264Y-98758501D01*
X112315602Y-98904172D01*
X112315609Y-98904185D01*
X112403210Y-99035288D01*
X112403213Y-99035292D01*
X112514707Y-99146786D01*
X112514711Y-99146789D01*
X112645821Y-99234394D01*
X112791503Y-99294737D01*
X112946153Y-99325499D01*
X112946156Y-99325500D01*
X112946158Y-99325500D01*
X113103842Y-99325500D01*
X113140946Y-99318119D01*
X113210537Y-99324345D01*
X113252820Y-99352055D01*
X113763181Y-99862416D01*
X113796666Y-99923739D01*
X113799500Y-99950097D01*
X113799500Y-100597870D01*
X113799501Y-100597876D01*
X113805908Y-100657483D01*
X113856202Y-100792328D01*
X113856206Y-100792335D01*
X113942452Y-100907544D01*
X113942455Y-100907547D01*
X114057664Y-100993793D01*
X114057671Y-100993797D01*
X114192517Y-101044091D01*
X114192516Y-101044091D01*
X114199444Y-101044835D01*
X114252127Y-101050500D01*
X115347872Y-101050499D01*
X115407483Y-101044091D01*
X115542331Y-100993796D01*
X115657546Y-100907546D01*
X115743796Y-100792331D01*
X115794091Y-100657483D01*
X115800500Y-100597873D01*
X115800499Y-99502128D01*
X115800498Y-99502126D01*
X115800498Y-99502114D01*
X115794091Y-99442516D01*
X115743797Y-99307671D01*
X115743793Y-99307664D01*
X115657547Y-99192455D01*
X115657544Y-99192452D01*
X115542335Y-99106206D01*
X115542328Y-99106202D01*
X115407482Y-99055908D01*
X115407483Y-99055908D01*
X115347883Y-99049501D01*
X115347881Y-99049500D01*
X115347873Y-99049500D01*
X115347865Y-99049500D01*
X114700098Y-99049500D01*
X114633059Y-99029815D01*
X114612417Y-99013181D01*
X113930129Y-98330893D01*
X113925790Y-98322947D01*
X113918543Y-98317522D01*
X113909308Y-98292762D01*
X113896644Y-98269570D01*
X113897289Y-98260540D01*
X113894126Y-98252058D01*
X113899742Y-98226237D01*
X113901628Y-98199878D01*
X113907446Y-98190824D01*
X113908978Y-98183785D01*
X113930129Y-98155531D01*
X113961965Y-98123695D01*
X114023288Y-98090210D01*
X114092980Y-98095194D01*
X114137327Y-98123695D01*
X114231344Y-98217712D01*
X114380666Y-98309814D01*
X114547203Y-98364999D01*
X114649991Y-98375500D01*
X115550008Y-98375499D01*
X115560576Y-98374419D01*
X115629268Y-98387187D01*
X115660861Y-98410096D01*
X116427625Y-99176860D01*
X116461110Y-99238183D01*
X116456126Y-99307873D01*
X116405909Y-99442514D01*
X116405908Y-99442516D01*
X116399501Y-99502114D01*
X116399500Y-99502135D01*
X116399500Y-100597870D01*
X116399501Y-100597876D01*
X116405908Y-100657483D01*
X116456202Y-100792328D01*
X116456206Y-100792335D01*
X116542452Y-100907544D01*
X116542455Y-100907547D01*
X116657664Y-100993793D01*
X116657671Y-100993797D01*
X116792517Y-101044091D01*
X116792516Y-101044091D01*
X116799444Y-101044835D01*
X116852127Y-101050500D01*
X117947872Y-101050499D01*
X118007483Y-101044091D01*
X118142331Y-100993796D01*
X118257546Y-100907546D01*
X118343796Y-100792331D01*
X118394091Y-100657483D01*
X118400500Y-100597873D01*
X118400499Y-99502128D01*
X118400498Y-99502126D01*
X118400498Y-99502114D01*
X118394091Y-99442516D01*
X118343797Y-99307671D01*
X118343793Y-99307664D01*
X118257547Y-99192455D01*
X118257544Y-99192452D01*
X118142335Y-99106206D01*
X118142328Y-99106202D01*
X118007482Y-99055908D01*
X117999938Y-99054126D01*
X118000488Y-99051795D01*
X117946890Y-99029578D01*
X117917334Y-98995047D01*
X117880522Y-98931287D01*
X117880521Y-98931286D01*
X117880520Y-98931284D01*
X117768716Y-98819480D01*
X117768715Y-98819479D01*
X117764385Y-98815149D01*
X117764374Y-98815139D01*
X117518388Y-98569153D01*
X117484903Y-98507830D01*
X117489887Y-98438138D01*
X117531759Y-98382205D01*
X117597223Y-98357788D01*
X117640661Y-98363215D01*
X117640689Y-98363089D01*
X117642143Y-98363400D01*
X117645077Y-98363767D01*
X117647308Y-98364506D01*
X117750019Y-98374999D01*
X117949999Y-98374999D01*
X117950000Y-98374998D01*
X117950000Y-97250000D01*
X117050001Y-97250000D01*
X117050001Y-97674986D01*
X117060494Y-97777699D01*
X117061233Y-97779929D01*
X117061283Y-97781385D01*
X117061911Y-97784319D01*
X117061387Y-97784431D01*
X117063633Y-97849757D01*
X117027899Y-97909798D01*
X116965378Y-97940988D01*
X116895918Y-97933426D01*
X116855845Y-97906610D01*
X116286818Y-97337583D01*
X116253333Y-97276260D01*
X116250499Y-97249902D01*
X116250499Y-96750097D01*
X116259142Y-96720660D01*
X116265666Y-96690671D01*
X116269421Y-96685654D01*
X116270184Y-96683058D01*
X116286817Y-96662417D01*
X116333505Y-96615729D01*
X116333510Y-96615725D01*
X116343714Y-96605520D01*
X116343716Y-96605520D01*
X116455520Y-96493716D01*
X116509916Y-96399499D01*
X116534577Y-96356785D01*
X116575501Y-96204057D01*
X116575501Y-96045943D01*
X116575501Y-96038348D01*
X116575500Y-96038330D01*
X116575500Y-95583308D01*
X116595185Y-95516269D01*
X116611820Y-95495626D01*
X116643076Y-95464370D01*
X116643081Y-95464365D01*
X116726744Y-95322898D01*
X116772598Y-95165069D01*
X116775500Y-95128194D01*
X116775500Y-93962000D01*
X116778050Y-93953314D01*
X116776762Y-93944353D01*
X116787740Y-93920312D01*
X116795185Y-93894961D01*
X116802025Y-93889033D01*
X116805787Y-93880797D01*
X116828021Y-93866507D01*
X116847989Y-93849206D01*
X116858503Y-93846918D01*
X116864565Y-93843023D01*
X116899500Y-93838000D01*
X116951000Y-93838000D01*
X117018039Y-93857685D01*
X117063794Y-93910489D01*
X117075000Y-93962000D01*
X117075000Y-94225000D01*
X117625000Y-94225000D01*
X118125000Y-94225000D01*
X118675000Y-94225000D01*
X118675000Y-93821865D01*
X118674999Y-93821850D01*
X118672100Y-93785010D01*
X118672099Y-93785004D01*
X118626283Y-93627306D01*
X118626282Y-93627303D01*
X118542685Y-93485947D01*
X118542678Y-93485938D01*
X118426561Y-93369821D01*
X118426552Y-93369814D01*
X118285196Y-93286217D01*
X118285193Y-93286216D01*
X118127494Y-93240400D01*
X118127497Y-93240400D01*
X118125000Y-93240203D01*
X118125000Y-94225000D01*
X117625000Y-94225000D01*
X117625000Y-93569314D01*
X117642267Y-93506194D01*
X117676744Y-93447898D01*
X117714072Y-93319417D01*
X117722597Y-93290073D01*
X117722598Y-93290067D01*
X117722611Y-93289901D01*
X117725500Y-93253194D01*
X117725500Y-91946806D01*
X117722598Y-91909931D01*
X117718782Y-91896798D01*
X117690537Y-91799577D01*
X117690736Y-91729708D01*
X117721930Y-91677303D01*
X118287416Y-91111818D01*
X118348739Y-91078333D01*
X118375097Y-91075499D01*
X118848338Y-91075499D01*
X118848344Y-91075499D01*
X118848352Y-91075498D01*
X118848355Y-91075498D01*
X118902760Y-91069940D01*
X118947708Y-91065349D01*
X119108697Y-91012003D01*
X119253044Y-90922968D01*
X119372968Y-90803044D01*
X119462003Y-90658697D01*
X119465652Y-90647684D01*
X119505419Y-90590243D01*
X119569934Y-90563417D01*
X119638710Y-90575729D01*
X119689912Y-90623269D01*
X119701062Y-90647682D01*
X119712994Y-90683690D01*
X119713001Y-90683705D01*
X119802029Y-90828040D01*
X119802032Y-90828044D01*
X119921955Y-90947967D01*
X119921959Y-90947970D01*
X120066294Y-91036998D01*
X120066297Y-91036999D01*
X120066303Y-91037003D01*
X120227292Y-91090349D01*
X120326655Y-91100500D01*
X120873344Y-91100499D01*
X120873352Y-91100498D01*
X120873355Y-91100498D01*
X120927760Y-91094940D01*
X120972708Y-91090349D01*
X121133697Y-91037003D01*
X121278044Y-90947968D01*
X121397968Y-90828044D01*
X121487003Y-90683697D01*
X121540349Y-90522708D01*
X121550500Y-90423345D01*
X121550499Y-89576656D01*
X121547793Y-89550169D01*
X121540349Y-89477292D01*
X121540348Y-89477289D01*
X121514494Y-89399267D01*
X121487003Y-89316303D01*
X121486999Y-89316297D01*
X121486998Y-89316294D01*
X121397970Y-89171959D01*
X121397969Y-89171958D01*
X121397968Y-89171956D01*
X121278044Y-89052032D01*
X121278043Y-89052031D01*
X121278041Y-89052029D01*
X121272590Y-89047719D01*
X121232213Y-88990697D01*
X121225500Y-88950452D01*
X121225500Y-87999499D01*
X121245185Y-87932460D01*
X121297989Y-87886705D01*
X121349495Y-87875499D01*
X121994902Y-87875499D01*
X122061941Y-87895184D01*
G37*
%TD.AperFunction*%
%TD*%
%TA.AperFunction,NonConductor*%
G36*
X124767539Y-86694185D02*
G01*
X124813294Y-86746989D01*
X124824500Y-86798500D01*
X124824500Y-86948541D01*
X124824500Y-86948543D01*
X124824499Y-86948543D01*
X124862947Y-87141829D01*
X124862950Y-87141839D01*
X124938364Y-87323907D01*
X124938371Y-87323920D01*
X125047860Y-87487781D01*
X125047863Y-87487785D01*
X125188181Y-87628103D01*
X125221666Y-87689426D01*
X125224500Y-87715784D01*
X125224500Y-88898125D01*
X125204815Y-88965164D01*
X125188182Y-88985806D01*
X125102029Y-89071959D01*
X125013001Y-89216294D01*
X125012998Y-89216301D01*
X125012997Y-89216303D01*
X125012995Y-89216308D01*
X125012995Y-89216309D01*
X124996103Y-89267283D01*
X124956330Y-89324727D01*
X124891814Y-89351549D01*
X124823038Y-89339233D01*
X124772861Y-89293376D01*
X124697968Y-89171956D01*
X124578044Y-89052032D01*
X124559399Y-89040531D01*
X124512677Y-88988582D01*
X124500500Y-88934995D01*
X124500500Y-88800945D01*
X124500500Y-88800943D01*
X124500382Y-88800500D01*
X124459577Y-88648215D01*
X124413678Y-88568716D01*
X124380520Y-88511284D01*
X124268716Y-88399480D01*
X124268715Y-88399479D01*
X124264385Y-88395149D01*
X124264374Y-88395139D01*
X122931818Y-87062583D01*
X122917114Y-87035655D01*
X122900522Y-87009837D01*
X122899630Y-87003636D01*
X122898333Y-87001260D01*
X122895499Y-86974902D01*
X122895499Y-86798500D01*
X122915184Y-86731461D01*
X122967988Y-86685706D01*
X123019499Y-86674500D01*
X124700500Y-86674500D01*
X124767539Y-86694185D01*
G37*
%TD.AperFunction*%
%TA.AperFunction,NonConductor*%
G36*
X119509185Y-86677050D02*
G01*
X119518147Y-86675762D01*
X119542187Y-86686740D01*
X119567539Y-86694185D01*
X119573466Y-86701025D01*
X119581703Y-86704787D01*
X119595992Y-86727021D01*
X119613294Y-86746989D01*
X119615581Y-86757503D01*
X119619477Y-86763565D01*
X119624500Y-86798500D01*
X119624500Y-86973541D01*
X119624500Y-86973543D01*
X119624499Y-86973543D01*
X119662947Y-87166829D01*
X119662950Y-87166839D01*
X119738364Y-87348907D01*
X119738371Y-87348920D01*
X119847860Y-87512781D01*
X119847863Y-87512785D01*
X119988181Y-87653103D01*
X120021666Y-87714426D01*
X120024500Y-87740784D01*
X120024500Y-88919574D01*
X120004815Y-88986613D01*
X119965598Y-89025112D01*
X119921957Y-89052030D01*
X119802029Y-89171959D01*
X119713001Y-89316294D01*
X119712995Y-89316307D01*
X119709347Y-89327318D01*
X119669573Y-89384762D01*
X119605057Y-89411583D01*
X119536281Y-89399267D01*
X119485082Y-89351723D01*
X119473936Y-89327316D01*
X119462003Y-89291303D01*
X119461999Y-89291296D01*
X119461998Y-89291294D01*
X119372970Y-89146959D01*
X119372967Y-89146955D01*
X119253044Y-89027032D01*
X119253040Y-89027029D01*
X119108705Y-88938001D01*
X119108699Y-88937998D01*
X119108697Y-88937997D01*
X119108694Y-88937996D01*
X118947709Y-88884651D01*
X118848352Y-88874500D01*
X118848345Y-88874500D01*
X118375097Y-88874500D01*
X118308058Y-88854815D01*
X118287416Y-88838181D01*
X117478981Y-88029746D01*
X117445496Y-87968423D01*
X117450480Y-87898731D01*
X117492352Y-87842798D01*
X117523332Y-87825882D01*
X117542328Y-87818797D01*
X117542327Y-87818797D01*
X117542331Y-87818796D01*
X117657546Y-87732546D01*
X117743796Y-87617331D01*
X117794091Y-87482483D01*
X117800500Y-87422873D01*
X117800499Y-86798499D01*
X117820183Y-86731461D01*
X117872987Y-86685706D01*
X117924499Y-86674500D01*
X119500500Y-86674500D01*
X119509185Y-86677050D01*
G37*
%TD.AperFunction*%
%TA.AperFunction,NonConductor*%
G36*
X114472539Y-86694185D02*
G01*
X114518294Y-86746989D01*
X114529500Y-86798500D01*
X114529500Y-86973541D01*
X114529500Y-86973543D01*
X114529499Y-86973543D01*
X114567947Y-87166829D01*
X114567950Y-87166839D01*
X114643364Y-87348907D01*
X114643371Y-87348920D01*
X114752860Y-87512781D01*
X114752863Y-87512785D01*
X114893181Y-87653103D01*
X114926666Y-87714426D01*
X114929500Y-87740784D01*
X114929500Y-88786094D01*
X114909815Y-88853133D01*
X114857011Y-88898888D01*
X114844505Y-88903799D01*
X114817016Y-88912908D01*
X114741305Y-88937996D01*
X114741294Y-88938001D01*
X114596959Y-89027029D01*
X114596955Y-89027032D01*
X114477032Y-89146955D01*
X114477029Y-89146959D01*
X114388001Y-89291294D01*
X114387996Y-89291305D01*
X114334651Y-89452290D01*
X114332045Y-89477799D01*
X114305648Y-89542490D01*
X114248467Y-89582641D01*
X114178656Y-89585504D01*
X114118380Y-89550169D01*
X114090981Y-89504199D01*
X114078304Y-89465942D01*
X114037003Y-89341303D01*
X114036999Y-89341297D01*
X114036998Y-89341294D01*
X113947970Y-89196959D01*
X113947967Y-89196955D01*
X113828044Y-89077032D01*
X113828040Y-89077029D01*
X113683705Y-88988001D01*
X113683699Y-88987998D01*
X113683697Y-88987997D01*
X113611067Y-88963930D01*
X113522709Y-88934651D01*
X113423352Y-88924500D01*
X113423345Y-88924500D01*
X112950097Y-88924500D01*
X112883058Y-88904815D01*
X112862416Y-88888181D01*
X112236819Y-88262584D01*
X112222115Y-88235656D01*
X112205523Y-88209838D01*
X112204631Y-88203637D01*
X112203334Y-88201261D01*
X112200500Y-88174903D01*
X112200500Y-87957790D01*
X112220185Y-87890751D01*
X112272989Y-87844996D01*
X112281146Y-87841616D01*
X112342331Y-87818796D01*
X112457546Y-87732546D01*
X112543796Y-87617331D01*
X112594091Y-87482483D01*
X112600500Y-87422873D01*
X112600499Y-86798499D01*
X112620183Y-86731461D01*
X112672987Y-86685706D01*
X112724499Y-86674500D01*
X114405500Y-86674500D01*
X114472539Y-86694185D01*
G37*
%TD.AperFunction*%
%TA.AperFunction,NonConductor*%
G36*
X130192539Y-84957685D02*
G01*
X130238294Y-85010489D01*
X130249500Y-85062000D01*
X130249500Y-89042515D01*
X130229815Y-89109554D01*
X130177011Y-89155309D01*
X130107853Y-89165253D01*
X130044297Y-89136228D01*
X130019962Y-89107613D01*
X129997968Y-89071956D01*
X129878044Y-88952032D01*
X129878040Y-88952029D01*
X129733705Y-88863001D01*
X129733699Y-88862998D01*
X129733697Y-88862997D01*
X129733694Y-88862996D01*
X129572709Y-88809651D01*
X129473352Y-88799500D01*
X129473345Y-88799500D01*
X129000098Y-88799500D01*
X128933059Y-88779815D01*
X128912417Y-88763181D01*
X128544375Y-88395139D01*
X127987523Y-87838288D01*
X127954039Y-87776966D01*
X127959023Y-87707275D01*
X127975936Y-87676299D01*
X128038796Y-87592331D01*
X128089091Y-87457483D01*
X128095500Y-87397873D01*
X128095499Y-86302128D01*
X128089091Y-86242517D01*
X128038796Y-86107669D01*
X128038795Y-86107668D01*
X128038793Y-86107664D01*
X127952547Y-85992455D01*
X127952544Y-85992452D01*
X127837335Y-85906206D01*
X127837328Y-85906202D01*
X127702482Y-85855908D01*
X127702483Y-85855908D01*
X127642883Y-85849501D01*
X127642881Y-85849500D01*
X127642873Y-85849500D01*
X127642864Y-85849500D01*
X126547129Y-85849500D01*
X126547123Y-85849501D01*
X126487516Y-85855908D01*
X126352671Y-85906202D01*
X126352670Y-85906203D01*
X126340884Y-85915026D01*
X126275419Y-85939441D01*
X126219124Y-85930318D01*
X126116836Y-85887949D01*
X126116828Y-85887947D01*
X125923543Y-85849500D01*
X125923541Y-85849500D01*
X125726459Y-85849500D01*
X125725097Y-85849500D01*
X125695656Y-85840855D01*
X125665670Y-85834332D01*
X125660654Y-85830577D01*
X125658058Y-85829815D01*
X125637416Y-85813181D01*
X125536590Y-85712355D01*
X125536588Y-85712352D01*
X125417717Y-85593481D01*
X125417716Y-85593480D01*
X125330904Y-85543360D01*
X125330904Y-85543359D01*
X125330900Y-85543358D01*
X125280785Y-85514423D01*
X125128057Y-85473499D01*
X124969943Y-85473499D01*
X124962347Y-85473499D01*
X124962331Y-85473500D01*
X120797951Y-85473500D01*
X120639837Y-85473500D01*
X120487109Y-85514423D01*
X120487108Y-85514423D01*
X120487106Y-85514424D01*
X120487103Y-85514425D01*
X120437727Y-85542932D01*
X120437619Y-85542995D01*
X120436989Y-85543360D01*
X120350178Y-85593480D01*
X120346333Y-85597324D01*
X120334863Y-85604151D01*
X120307814Y-85611093D01*
X120281767Y-85621164D01*
X120274435Y-85619660D01*
X120267186Y-85621521D01*
X120240678Y-85612737D01*
X120213322Y-85607127D01*
X120202225Y-85599995D01*
X120200863Y-85599544D01*
X120200149Y-85598661D01*
X120195959Y-85595968D01*
X120192719Y-85593482D01*
X120105904Y-85543360D01*
X120105904Y-85543359D01*
X120105900Y-85543358D01*
X120055785Y-85514423D01*
X119903057Y-85473499D01*
X119744943Y-85473499D01*
X119737347Y-85473499D01*
X119737331Y-85473500D01*
X115702951Y-85473500D01*
X115544837Y-85473500D01*
X115392109Y-85514423D01*
X115392108Y-85514423D01*
X115392106Y-85514424D01*
X115392103Y-85514425D01*
X115342727Y-85542932D01*
X115342619Y-85542995D01*
X115341989Y-85543360D01*
X115255178Y-85593480D01*
X115251333Y-85597324D01*
X115239863Y-85604151D01*
X115212814Y-85611093D01*
X115186767Y-85621164D01*
X115179435Y-85619660D01*
X115172186Y-85621521D01*
X115145678Y-85612737D01*
X115118322Y-85607127D01*
X115107225Y-85599995D01*
X115105863Y-85599544D01*
X115105149Y-85598661D01*
X115100959Y-85595968D01*
X115097719Y-85593482D01*
X115010904Y-85543360D01*
X115010904Y-85543359D01*
X115010900Y-85543358D01*
X114960785Y-85514423D01*
X114808057Y-85473499D01*
X114649943Y-85473499D01*
X114642347Y-85473499D01*
X114642331Y-85473500D01*
X110878057Y-85473500D01*
X110719943Y-85473500D01*
X110567215Y-85514423D01*
X110567214Y-85514423D01*
X110567212Y-85514424D01*
X110567209Y-85514425D01*
X110517096Y-85543359D01*
X110517095Y-85543360D01*
X110473689Y-85568420D01*
X110430285Y-85593479D01*
X110430282Y-85593481D01*
X110318480Y-85705283D01*
X110318480Y-85705284D01*
X110318478Y-85705286D01*
X110210583Y-85813181D01*
X110155452Y-85868312D01*
X110094129Y-85901796D01*
X110091963Y-85902247D01*
X110038170Y-85912947D01*
X110038160Y-85912950D01*
X109856092Y-85988364D01*
X109856079Y-85988371D01*
X109692218Y-86097860D01*
X109692214Y-86097863D01*
X109552863Y-86237214D01*
X109552860Y-86237218D01*
X109443371Y-86401079D01*
X109443364Y-86401092D01*
X109367950Y-86583160D01*
X109367947Y-86583170D01*
X109329500Y-86776456D01*
X109329500Y-86776459D01*
X109329500Y-86973541D01*
X109329500Y-86973543D01*
X109329499Y-86973543D01*
X109367947Y-87166829D01*
X109367950Y-87166839D01*
X109443364Y-87348907D01*
X109443371Y-87348920D01*
X109552860Y-87512781D01*
X109552863Y-87512785D01*
X109693181Y-87653103D01*
X109726666Y-87714426D01*
X109729500Y-87740784D01*
X109729500Y-88800500D01*
X109709815Y-88867539D01*
X109657011Y-88913294D01*
X109605504Y-88924500D01*
X109576664Y-88924500D01*
X109576644Y-88924501D01*
X109477292Y-88934650D01*
X109477289Y-88934651D01*
X109316305Y-88987996D01*
X109316294Y-88988001D01*
X109171959Y-89077029D01*
X109171955Y-89077032D01*
X109052032Y-89196955D01*
X109052029Y-89196959D01*
X108963001Y-89341294D01*
X108962996Y-89341305D01*
X108909651Y-89502290D01*
X108899500Y-89601647D01*
X108899500Y-90074901D01*
X108890855Y-90104341D01*
X108884332Y-90134328D01*
X108880577Y-90139343D01*
X108879815Y-90141940D01*
X108863181Y-90162582D01*
X108787181Y-90238582D01*
X108725858Y-90272067D01*
X108656166Y-90267083D01*
X108600233Y-90225211D01*
X108575816Y-90159747D01*
X108575500Y-90150901D01*
X108575500Y-85062000D01*
X108595185Y-84994961D01*
X108647989Y-84949206D01*
X108699500Y-84938000D01*
X130125500Y-84938000D01*
X130192539Y-84957685D01*
G37*
%TD.AperFunction*%
%TA.AperFunction,NonConductor*%
G36*
X111058814Y-88833276D02*
G01*
X111072147Y-88831360D01*
X111092288Y-88840558D01*
X111113926Y-88845265D01*
X111131654Y-88858536D01*
X111135703Y-88860385D01*
X111142175Y-88866411D01*
X111231284Y-88955520D01*
X111231286Y-88955521D01*
X111238355Y-88962590D01*
X112163181Y-89887416D01*
X112196666Y-89948739D01*
X112199500Y-89975097D01*
X112199500Y-90448337D01*
X112199501Y-90448355D01*
X112209650Y-90547707D01*
X112209651Y-90547711D01*
X112252396Y-90676706D01*
X112254798Y-90746535D01*
X112222371Y-90803391D01*
X111732708Y-91293054D01*
X111671385Y-91326539D01*
X111610433Y-91324450D01*
X111577569Y-91314902D01*
X111577563Y-91314901D01*
X111540701Y-91312000D01*
X111540694Y-91312000D01*
X111109306Y-91312000D01*
X111109298Y-91312000D01*
X111072432Y-91314901D01*
X111072426Y-91314902D01*
X110914606Y-91360754D01*
X110914603Y-91360755D01*
X110773137Y-91444417D01*
X110773129Y-91444423D01*
X110656923Y-91560629D01*
X110656917Y-91560637D01*
X110573255Y-91702103D01*
X110573254Y-91702106D01*
X110527402Y-91859926D01*
X110527401Y-91859932D01*
X110524500Y-91896798D01*
X110524500Y-93063000D01*
X110504815Y-93130039D01*
X110452011Y-93175794D01*
X110400500Y-93187000D01*
X110159298Y-93187000D01*
X110122432Y-93189901D01*
X110122426Y-93189902D01*
X109964606Y-93235754D01*
X109964603Y-93235755D01*
X109823137Y-93319417D01*
X109823129Y-93319423D01*
X109736181Y-93406372D01*
X109674858Y-93439857D01*
X109605166Y-93434873D01*
X109549233Y-93393001D01*
X109524816Y-93327537D01*
X109524500Y-93318691D01*
X109524500Y-91251097D01*
X109533144Y-91221656D01*
X109539668Y-91191670D01*
X109543422Y-91186654D01*
X109544185Y-91184058D01*
X109560819Y-91163416D01*
X109562417Y-91161818D01*
X109623740Y-91128333D01*
X109650098Y-91125499D01*
X110123338Y-91125499D01*
X110123344Y-91125499D01*
X110123352Y-91125498D01*
X110123355Y-91125498D01*
X110177760Y-91119940D01*
X110222708Y-91115349D01*
X110383697Y-91062003D01*
X110528044Y-90972968D01*
X110647968Y-90853044D01*
X110737003Y-90708697D01*
X110790349Y-90547708D01*
X110800500Y-90448345D01*
X110800499Y-89964297D01*
X110817112Y-89902298D01*
X110854571Y-89837416D01*
X110889577Y-89776784D01*
X110930501Y-89624057D01*
X110930501Y-89465942D01*
X110930501Y-89458347D01*
X110930500Y-89458329D01*
X110930500Y-88954098D01*
X110936738Y-88932852D01*
X110938318Y-88910765D01*
X110946390Y-88899981D01*
X110950185Y-88887059D01*
X110966916Y-88872560D01*
X110980189Y-88854831D01*
X110992811Y-88850123D01*
X111002989Y-88841304D01*
X111024904Y-88838152D01*
X111045653Y-88830414D01*
X111058814Y-88833276D01*
G37*
%TD.AperFunction*%
M02*
