%TF.GenerationSoftware,KiCad,Pcbnew,9.0.0*%
%TF.CreationDate,2025-06-16T15:16:05+05:00*%
%TF.ProjectId,dronemotordriver,64726f6e-656d-46f7-946f-726472697665,rev?*%
%TF.SameCoordinates,Original*%
%TF.FileFunction,Copper,L2,Bot*%
%TF.FilePolarity,Positive*%
%FSLAX46Y46*%
G04 Gerber Fmt 4.6, Leading zero omitted, Abs format (unit mm)*
G04 Created by KiCad (PCBNEW 9.0.0) date 2025-06-16 15:16:05*
%MOMM*%
%LPD*%
G01*
G04 APERTURE LIST*
%TA.AperFunction,ComponentPad*%
%ADD10R,1.000000X1.000000*%
%TD*%
%TA.AperFunction,ComponentPad*%
%ADD11O,1.000000X1.000000*%
%TD*%
%TA.AperFunction,ViaPad*%
%ADD12C,0.600000*%
%TD*%
%TA.AperFunction,Conductor*%
%ADD13C,0.200000*%
%TD*%
G04 APERTURE END LIST*
D10*
%TO.P,+5V,1,Pin_1*%
%TO.N,/M+*%
X110700000Y-100275000D03*
D11*
%TO.P,+5V,2,Pin_2*%
%TO.N,GND*%
X111970000Y-100275000D03*
%TD*%
D10*
%TO.P,J5,1,Pin_1*%
%TO.N,Net-(D4-A)*%
X127095000Y-86850000D03*
D11*
%TO.P,J5,2,Pin_2*%
%TO.N,/M+*%
X125825000Y-86850000D03*
%TD*%
D10*
%TO.P,J2,1,Pin_1*%
%TO.N,Net-(D1-A)*%
X111600000Y-86875000D03*
D11*
%TO.P,J2,2,Pin_2*%
%TO.N,/M+*%
X110330000Y-86875000D03*
%TD*%
D10*
%TO.P,J4,1,Pin_1*%
%TO.N,Net-(D3-A)*%
X121895000Y-86875000D03*
D11*
%TO.P,J4,2,Pin_2*%
%TO.N,/M+*%
X120625000Y-86875000D03*
%TD*%
D10*
%TO.P,J3,1,Pin_1*%
%TO.N,Net-(D2-A)*%
X116800000Y-86875000D03*
D11*
%TO.P,J3,2,Pin_2*%
%TO.N,/M+*%
X115530000Y-86875000D03*
%TD*%
D10*
%TO.P,IN1,1,Pin_1*%
%TO.N,Net-(J6-Pin_1)*%
X114800000Y-100050000D03*
%TD*%
%TO.P,IN3,1,Pin_1*%
%TO.N,Net-(J8-Pin_1)*%
X119975000Y-100075000D03*
%TD*%
%TO.P,IN4,1,Pin_1*%
%TO.N,Net-(J9-Pin_1)*%
X122625000Y-100100000D03*
%TD*%
%TO.P,J7,1,Pin_1*%
%TO.N,Net-(J7-Pin_1)*%
X117400000Y-100050000D03*
%TD*%
D12*
%TO.N,Net-(J6-Pin_1)*%
X113025000Y-98525000D03*
X110175000Y-98525000D03*
%TD*%
D13*
%TO.N,Net-(J6-Pin_1)*%
X113025000Y-98525000D02*
X110175000Y-98525000D01*
%TD*%
%TA.AperFunction,Conductor*%
%TO.N,GND*%
G36*
X130192539Y-84957685D02*
G01*
X130238294Y-85010489D01*
X130249500Y-85062000D01*
X130249500Y-101763000D01*
X130229815Y-101830039D01*
X130177011Y-101875794D01*
X130125500Y-101887000D01*
X108699500Y-101887000D01*
X108632461Y-101867315D01*
X108586706Y-101814511D01*
X108575500Y-101763000D01*
X108575500Y-98446153D01*
X109374500Y-98446153D01*
X109374500Y-98603846D01*
X109405261Y-98758489D01*
X109405264Y-98758501D01*
X109465602Y-98904172D01*
X109465609Y-98904185D01*
X109553210Y-99035288D01*
X109553213Y-99035292D01*
X109664707Y-99146786D01*
X109664711Y-99146789D01*
X109795819Y-99234393D01*
X109799650Y-99236441D01*
X109849495Y-99285403D01*
X109864956Y-99353541D01*
X109841125Y-99419221D01*
X109840465Y-99420111D01*
X109756204Y-99532669D01*
X109756202Y-99532671D01*
X109705908Y-99667517D01*
X109699501Y-99727116D01*
X109699500Y-99727135D01*
X109699500Y-100822870D01*
X109699501Y-100822876D01*
X109705908Y-100882483D01*
X109756202Y-101017328D01*
X109756206Y-101017335D01*
X109842452Y-101132544D01*
X109842455Y-101132547D01*
X109957664Y-101218793D01*
X109957671Y-101218797D01*
X110092517Y-101269091D01*
X110092516Y-101269091D01*
X110099444Y-101269835D01*
X110152127Y-101275500D01*
X111247872Y-101275499D01*
X111307483Y-101269091D01*
X111442331Y-101218796D01*
X111454575Y-101209629D01*
X111520035Y-101185210D01*
X111576339Y-101194333D01*
X111678308Y-101236569D01*
X111720000Y-101244862D01*
X112220000Y-101244862D01*
X112261690Y-101236569D01*
X112261692Y-101236569D01*
X112443671Y-101161192D01*
X112443684Y-101161185D01*
X112607462Y-101051751D01*
X112607466Y-101051748D01*
X112746748Y-100912466D01*
X112746751Y-100912462D01*
X112856185Y-100748684D01*
X112856192Y-100748671D01*
X112931569Y-100566692D01*
X112931569Y-100566690D01*
X112939862Y-100525000D01*
X112220000Y-100525000D01*
X112220000Y-101244862D01*
X111720000Y-101244862D01*
X111720000Y-100484618D01*
X111770446Y-100535064D01*
X111844555Y-100577851D01*
X111927213Y-100600000D01*
X112012787Y-100600000D01*
X112095445Y-100577851D01*
X112169554Y-100535064D01*
X112230064Y-100474554D01*
X112272851Y-100400445D01*
X112295000Y-100317787D01*
X112295000Y-100232213D01*
X112272851Y-100149555D01*
X112230064Y-100075446D01*
X112179618Y-100025000D01*
X112939862Y-100025000D01*
X112931569Y-99983309D01*
X112931569Y-99983307D01*
X112856192Y-99801328D01*
X112856185Y-99801315D01*
X112746751Y-99637537D01*
X112746748Y-99637533D01*
X112698826Y-99589611D01*
X112597926Y-99502135D01*
X113799500Y-99502135D01*
X113799500Y-100597870D01*
X113799501Y-100597876D01*
X113805908Y-100657483D01*
X113856202Y-100792328D01*
X113856206Y-100792335D01*
X113942452Y-100907544D01*
X113942455Y-100907547D01*
X114057664Y-100993793D01*
X114057671Y-100993797D01*
X114192517Y-101044091D01*
X114192516Y-101044091D01*
X114199444Y-101044835D01*
X114252127Y-101050500D01*
X115347872Y-101050499D01*
X115407483Y-101044091D01*
X115542331Y-100993796D01*
X115657546Y-100907546D01*
X115743796Y-100792331D01*
X115794091Y-100657483D01*
X115800500Y-100597873D01*
X115800499Y-99502135D01*
X116399500Y-99502135D01*
X116399500Y-100597870D01*
X116399501Y-100597876D01*
X116405908Y-100657483D01*
X116456202Y-100792328D01*
X116456206Y-100792335D01*
X116542452Y-100907544D01*
X116542455Y-100907547D01*
X116657664Y-100993793D01*
X116657671Y-100993797D01*
X116792517Y-101044091D01*
X116792516Y-101044091D01*
X116799444Y-101044835D01*
X116852127Y-101050500D01*
X117947872Y-101050499D01*
X118007483Y-101044091D01*
X118142331Y-100993796D01*
X118257546Y-100907546D01*
X118343796Y-100792331D01*
X118394091Y-100657483D01*
X118400500Y-100597873D01*
X118400499Y-99527135D01*
X118974500Y-99527135D01*
X118974500Y-100622870D01*
X118974501Y-100622876D01*
X118980908Y-100682483D01*
X119031202Y-100817328D01*
X119031206Y-100817335D01*
X119117452Y-100932544D01*
X119117455Y-100932547D01*
X119232664Y-101018793D01*
X119232671Y-101018797D01*
X119367517Y-101069091D01*
X119367516Y-101069091D01*
X119374444Y-101069835D01*
X119427127Y-101075500D01*
X120522872Y-101075499D01*
X120582483Y-101069091D01*
X120717331Y-101018796D01*
X120832546Y-100932546D01*
X120918796Y-100817331D01*
X120969091Y-100682483D01*
X120975500Y-100622873D01*
X120975499Y-99552135D01*
X121624500Y-99552135D01*
X121624500Y-100647870D01*
X121624501Y-100647876D01*
X121630908Y-100707483D01*
X121681202Y-100842328D01*
X121681206Y-100842335D01*
X121767452Y-100957544D01*
X121767455Y-100957547D01*
X121882664Y-101043793D01*
X121882671Y-101043797D01*
X122017517Y-101094091D01*
X122017516Y-101094091D01*
X122024444Y-101094835D01*
X122077127Y-101100500D01*
X123172872Y-101100499D01*
X123232483Y-101094091D01*
X123367331Y-101043796D01*
X123482546Y-100957546D01*
X123568796Y-100842331D01*
X123619091Y-100707483D01*
X123625500Y-100647873D01*
X123625499Y-99552128D01*
X123619091Y-99492517D01*
X123609766Y-99467516D01*
X123568797Y-99357671D01*
X123568793Y-99357664D01*
X123482547Y-99242455D01*
X123482544Y-99242452D01*
X123367335Y-99156206D01*
X123367328Y-99156202D01*
X123232482Y-99105908D01*
X123232483Y-99105908D01*
X123172883Y-99099501D01*
X123172881Y-99099500D01*
X123172873Y-99099500D01*
X123172864Y-99099500D01*
X122077129Y-99099500D01*
X122077123Y-99099501D01*
X122017516Y-99105908D01*
X121882671Y-99156202D01*
X121882664Y-99156206D01*
X121767455Y-99242452D01*
X121767452Y-99242455D01*
X121681206Y-99357664D01*
X121681202Y-99357671D01*
X121630908Y-99492517D01*
X121624501Y-99552116D01*
X121624501Y-99552123D01*
X121624500Y-99552135D01*
X120975499Y-99552135D01*
X120975499Y-99527128D01*
X120969091Y-99467517D01*
X120963414Y-99452297D01*
X120918797Y-99332671D01*
X120918793Y-99332664D01*
X120832547Y-99217455D01*
X120832544Y-99217452D01*
X120717335Y-99131206D01*
X120717328Y-99131202D01*
X120582482Y-99080908D01*
X120582483Y-99080908D01*
X120522883Y-99074501D01*
X120522881Y-99074500D01*
X120522873Y-99074500D01*
X120522864Y-99074500D01*
X119427129Y-99074500D01*
X119427123Y-99074501D01*
X119367516Y-99080908D01*
X119232671Y-99131202D01*
X119232664Y-99131206D01*
X119117455Y-99217452D01*
X119117452Y-99217455D01*
X119031206Y-99332664D01*
X119031202Y-99332671D01*
X118980908Y-99467517D01*
X118977187Y-99502135D01*
X118974501Y-99527123D01*
X118974500Y-99527135D01*
X118400499Y-99527135D01*
X118400499Y-99502128D01*
X118400498Y-99502126D01*
X118400498Y-99502114D01*
X118394091Y-99442516D01*
X118343797Y-99307671D01*
X118343793Y-99307664D01*
X118257547Y-99192455D01*
X118257544Y-99192452D01*
X118142335Y-99106206D01*
X118142328Y-99106202D01*
X118007482Y-99055908D01*
X118007483Y-99055908D01*
X117947883Y-99049501D01*
X117947881Y-99049500D01*
X117947873Y-99049500D01*
X117947864Y-99049500D01*
X116852129Y-99049500D01*
X116852123Y-99049501D01*
X116792516Y-99055908D01*
X116657671Y-99106202D01*
X116657664Y-99106206D01*
X116542455Y-99192452D01*
X116542452Y-99192455D01*
X116456206Y-99307664D01*
X116456202Y-99307671D01*
X116405908Y-99442517D01*
X116399501Y-99502114D01*
X116399500Y-99502135D01*
X115800499Y-99502135D01*
X115800499Y-99502128D01*
X115800498Y-99502125D01*
X115800498Y-99502114D01*
X115794091Y-99442516D01*
X115743797Y-99307671D01*
X115743793Y-99307664D01*
X115657547Y-99192455D01*
X115657544Y-99192452D01*
X115542335Y-99106206D01*
X115542328Y-99106202D01*
X115407482Y-99055908D01*
X115407483Y-99055908D01*
X115347883Y-99049501D01*
X115347881Y-99049500D01*
X115347873Y-99049500D01*
X115347864Y-99049500D01*
X114252129Y-99049500D01*
X114252123Y-99049501D01*
X114192516Y-99055908D01*
X114057671Y-99106202D01*
X114057664Y-99106206D01*
X113942455Y-99192452D01*
X113942452Y-99192455D01*
X113856206Y-99307664D01*
X113856202Y-99307671D01*
X113805908Y-99442517D01*
X113799501Y-99502114D01*
X113799500Y-99502135D01*
X112597926Y-99502135D01*
X112540440Y-99452297D01*
X112525590Y-99429176D01*
X112507971Y-99408094D01*
X112506979Y-99400201D01*
X112502681Y-99393509D01*
X112502688Y-99366031D01*
X112499264Y-99338769D01*
X112502696Y-99331593D01*
X112502699Y-99323639D01*
X112517559Y-99300529D01*
X112529419Y-99275741D01*
X112536187Y-99271560D01*
X112540489Y-99264871D01*
X112565483Y-99253464D01*
X112588863Y-99239023D01*
X112596816Y-99239165D01*
X112604052Y-99235863D01*
X112631247Y-99239780D01*
X112658721Y-99240271D01*
X112669106Y-99244039D01*
X112791503Y-99294737D01*
X112936802Y-99323639D01*
X112946153Y-99325499D01*
X112946156Y-99325500D01*
X112946158Y-99325500D01*
X113103844Y-99325500D01*
X113103845Y-99325499D01*
X113258497Y-99294737D01*
X113399237Y-99236441D01*
X113404172Y-99234397D01*
X113404172Y-99234396D01*
X113404179Y-99234394D01*
X113535289Y-99146789D01*
X113646789Y-99035289D01*
X113734394Y-98904179D01*
X113794737Y-98758497D01*
X113825500Y-98603842D01*
X113825500Y-98446158D01*
X113825500Y-98446155D01*
X113825499Y-98446153D01*
X113794738Y-98291510D01*
X113794737Y-98291503D01*
X113794735Y-98291498D01*
X113734397Y-98145827D01*
X113734390Y-98145814D01*
X113646789Y-98014711D01*
X113646786Y-98014707D01*
X113535292Y-97903213D01*
X113535288Y-97903210D01*
X113404185Y-97815609D01*
X113404172Y-97815602D01*
X113258501Y-97755264D01*
X113258489Y-97755261D01*
X113103845Y-97724500D01*
X113103842Y-97724500D01*
X112946158Y-97724500D01*
X112946155Y-97724500D01*
X112791510Y-97755261D01*
X112791498Y-97755264D01*
X112645827Y-97815602D01*
X112645814Y-97815609D01*
X112514125Y-97903602D01*
X112447447Y-97924480D01*
X112445234Y-97924500D01*
X110754766Y-97924500D01*
X110687727Y-97904815D01*
X110685875Y-97903602D01*
X110554185Y-97815609D01*
X110554172Y-97815602D01*
X110408501Y-97755264D01*
X110408489Y-97755261D01*
X110253845Y-97724500D01*
X110253842Y-97724500D01*
X110096158Y-97724500D01*
X110096155Y-97724500D01*
X109941510Y-97755261D01*
X109941498Y-97755264D01*
X109795827Y-97815602D01*
X109795814Y-97815609D01*
X109664711Y-97903210D01*
X109664707Y-97903213D01*
X109553213Y-98014707D01*
X109553210Y-98014711D01*
X109465609Y-98145814D01*
X109465602Y-98145827D01*
X109405264Y-98291498D01*
X109405261Y-98291510D01*
X109374500Y-98446153D01*
X108575500Y-98446153D01*
X108575500Y-86973543D01*
X109329499Y-86973543D01*
X109367947Y-87166829D01*
X109367950Y-87166839D01*
X109443364Y-87348907D01*
X109443371Y-87348920D01*
X109552860Y-87512781D01*
X109552863Y-87512785D01*
X109692214Y-87652136D01*
X109692218Y-87652139D01*
X109856079Y-87761628D01*
X109856092Y-87761635D01*
X110038160Y-87837049D01*
X110038165Y-87837051D01*
X110038169Y-87837051D01*
X110038170Y-87837052D01*
X110231456Y-87875500D01*
X110231459Y-87875500D01*
X110428543Y-87875500D01*
X110558582Y-87849632D01*
X110621835Y-87837051D01*
X110724126Y-87794680D01*
X110793590Y-87787212D01*
X110845887Y-87809976D01*
X110857668Y-87818795D01*
X110857671Y-87818797D01*
X110992517Y-87869091D01*
X110992516Y-87869091D01*
X110999444Y-87869835D01*
X111052127Y-87875500D01*
X112147872Y-87875499D01*
X112207483Y-87869091D01*
X112342331Y-87818796D01*
X112457546Y-87732546D01*
X112543796Y-87617331D01*
X112594091Y-87482483D01*
X112600500Y-87422873D01*
X112600500Y-86973543D01*
X114529499Y-86973543D01*
X114567947Y-87166829D01*
X114567950Y-87166839D01*
X114643364Y-87348907D01*
X114643371Y-87348920D01*
X114752860Y-87512781D01*
X114752863Y-87512785D01*
X114892214Y-87652136D01*
X114892218Y-87652139D01*
X115056079Y-87761628D01*
X115056092Y-87761635D01*
X115238160Y-87837049D01*
X115238165Y-87837051D01*
X115238169Y-87837051D01*
X115238170Y-87837052D01*
X115431456Y-87875500D01*
X115431459Y-87875500D01*
X115628543Y-87875500D01*
X115758582Y-87849632D01*
X115821835Y-87837051D01*
X115924126Y-87794680D01*
X115993590Y-87787212D01*
X116045887Y-87809976D01*
X116057668Y-87818795D01*
X116057671Y-87818797D01*
X116192517Y-87869091D01*
X116192516Y-87869091D01*
X116199444Y-87869835D01*
X116252127Y-87875500D01*
X117347872Y-87875499D01*
X117407483Y-87869091D01*
X117542331Y-87818796D01*
X117657546Y-87732546D01*
X117743796Y-87617331D01*
X117794091Y-87482483D01*
X117800500Y-87422873D01*
X117800500Y-86973543D01*
X119624499Y-86973543D01*
X119662947Y-87166829D01*
X119662950Y-87166839D01*
X119738364Y-87348907D01*
X119738371Y-87348920D01*
X119847860Y-87512781D01*
X119847863Y-87512785D01*
X119987214Y-87652136D01*
X119987218Y-87652139D01*
X120151079Y-87761628D01*
X120151092Y-87761635D01*
X120333160Y-87837049D01*
X120333165Y-87837051D01*
X120333169Y-87837051D01*
X120333170Y-87837052D01*
X120526456Y-87875500D01*
X120526459Y-87875500D01*
X120723543Y-87875500D01*
X120853582Y-87849632D01*
X120916835Y-87837051D01*
X121019126Y-87794680D01*
X121088590Y-87787212D01*
X121140887Y-87809976D01*
X121152668Y-87818795D01*
X121152671Y-87818797D01*
X121287517Y-87869091D01*
X121287516Y-87869091D01*
X121294444Y-87869835D01*
X121347127Y-87875500D01*
X122442872Y-87875499D01*
X122502483Y-87869091D01*
X122637331Y-87818796D01*
X122752546Y-87732546D01*
X122838796Y-87617331D01*
X122889091Y-87482483D01*
X122895500Y-87422873D01*
X122895500Y-86948543D01*
X124824499Y-86948543D01*
X124862947Y-87141829D01*
X124862950Y-87141839D01*
X124938364Y-87323907D01*
X124938371Y-87323920D01*
X125047860Y-87487781D01*
X125047863Y-87487785D01*
X125187214Y-87627136D01*
X125187218Y-87627139D01*
X125351079Y-87736628D01*
X125351092Y-87736635D01*
X125528155Y-87809976D01*
X125533165Y-87812051D01*
X125533169Y-87812051D01*
X125533170Y-87812052D01*
X125726456Y-87850500D01*
X125726459Y-87850500D01*
X125923543Y-87850500D01*
X126053582Y-87824632D01*
X126116835Y-87812051D01*
X126219126Y-87769680D01*
X126288590Y-87762212D01*
X126340887Y-87784976D01*
X126352668Y-87793795D01*
X126352671Y-87793797D01*
X126487517Y-87844091D01*
X126487516Y-87844091D01*
X126494444Y-87844835D01*
X126547127Y-87850500D01*
X127642872Y-87850499D01*
X127702483Y-87844091D01*
X127837331Y-87793796D01*
X127952546Y-87707546D01*
X128038796Y-87592331D01*
X128089091Y-87457483D01*
X128095500Y-87397873D01*
X128095499Y-86302128D01*
X128089091Y-86242517D01*
X128077790Y-86212218D01*
X128038797Y-86107671D01*
X128038793Y-86107664D01*
X127952547Y-85992455D01*
X127952544Y-85992452D01*
X127837335Y-85906206D01*
X127837328Y-85906202D01*
X127702482Y-85855908D01*
X127702483Y-85855908D01*
X127642883Y-85849501D01*
X127642881Y-85849500D01*
X127642873Y-85849500D01*
X127642864Y-85849500D01*
X126547129Y-85849500D01*
X126547123Y-85849501D01*
X126487516Y-85855908D01*
X126352671Y-85906202D01*
X126352670Y-85906203D01*
X126340884Y-85915026D01*
X126275419Y-85939441D01*
X126219124Y-85930318D01*
X126116836Y-85887949D01*
X126116828Y-85887947D01*
X125923543Y-85849500D01*
X125923541Y-85849500D01*
X125726459Y-85849500D01*
X125726457Y-85849500D01*
X125533170Y-85887947D01*
X125533160Y-85887950D01*
X125351092Y-85963364D01*
X125351079Y-85963371D01*
X125187218Y-86072860D01*
X125187214Y-86072863D01*
X125047863Y-86212214D01*
X125047860Y-86212218D01*
X124938371Y-86376079D01*
X124938364Y-86376092D01*
X124862950Y-86558160D01*
X124862947Y-86558170D01*
X124824500Y-86751456D01*
X124824500Y-86751459D01*
X124824500Y-86948541D01*
X124824500Y-86948543D01*
X124824499Y-86948543D01*
X122895500Y-86948543D01*
X122895499Y-86327128D01*
X122889091Y-86267517D01*
X122879766Y-86242516D01*
X122838797Y-86132671D01*
X122838793Y-86132664D01*
X122752547Y-86017455D01*
X122752544Y-86017452D01*
X122637335Y-85931206D01*
X122637328Y-85931202D01*
X122502482Y-85880908D01*
X122502483Y-85880908D01*
X122442883Y-85874501D01*
X122442881Y-85874500D01*
X122442873Y-85874500D01*
X122442864Y-85874500D01*
X121347129Y-85874500D01*
X121347123Y-85874501D01*
X121287516Y-85880908D01*
X121152671Y-85931202D01*
X121152670Y-85931203D01*
X121140884Y-85940026D01*
X121075419Y-85964441D01*
X121019124Y-85955318D01*
X120916836Y-85912949D01*
X120916828Y-85912947D01*
X120723543Y-85874500D01*
X120723541Y-85874500D01*
X120526459Y-85874500D01*
X120526457Y-85874500D01*
X120333170Y-85912947D01*
X120333160Y-85912950D01*
X120151092Y-85988364D01*
X120151079Y-85988371D01*
X119987218Y-86097860D01*
X119987214Y-86097863D01*
X119847863Y-86237214D01*
X119847860Y-86237218D01*
X119738371Y-86401079D01*
X119738364Y-86401092D01*
X119662950Y-86583160D01*
X119662947Y-86583170D01*
X119624500Y-86776456D01*
X119624500Y-86776459D01*
X119624500Y-86973541D01*
X119624500Y-86973543D01*
X119624499Y-86973543D01*
X117800500Y-86973543D01*
X117800499Y-86327128D01*
X117794091Y-86267517D01*
X117784766Y-86242516D01*
X117743797Y-86132671D01*
X117743793Y-86132664D01*
X117657547Y-86017455D01*
X117657544Y-86017452D01*
X117542335Y-85931206D01*
X117542328Y-85931202D01*
X117407482Y-85880908D01*
X117407483Y-85880908D01*
X117347883Y-85874501D01*
X117347881Y-85874500D01*
X117347873Y-85874500D01*
X117347864Y-85874500D01*
X116252129Y-85874500D01*
X116252123Y-85874501D01*
X116192516Y-85880908D01*
X116057671Y-85931202D01*
X116057670Y-85931203D01*
X116045884Y-85940026D01*
X115980419Y-85964441D01*
X115924124Y-85955318D01*
X115821836Y-85912949D01*
X115821828Y-85912947D01*
X115628543Y-85874500D01*
X115628541Y-85874500D01*
X115431459Y-85874500D01*
X115431457Y-85874500D01*
X115238170Y-85912947D01*
X115238160Y-85912950D01*
X115056092Y-85988364D01*
X115056079Y-85988371D01*
X114892218Y-86097860D01*
X114892214Y-86097863D01*
X114752863Y-86237214D01*
X114752860Y-86237218D01*
X114643371Y-86401079D01*
X114643364Y-86401092D01*
X114567950Y-86583160D01*
X114567947Y-86583170D01*
X114529500Y-86776456D01*
X114529500Y-86776459D01*
X114529500Y-86973541D01*
X114529500Y-86973543D01*
X114529499Y-86973543D01*
X112600500Y-86973543D01*
X112600499Y-86327128D01*
X112594091Y-86267517D01*
X112584766Y-86242516D01*
X112543797Y-86132671D01*
X112543793Y-86132664D01*
X112457547Y-86017455D01*
X112457544Y-86017452D01*
X112342335Y-85931206D01*
X112342328Y-85931202D01*
X112207482Y-85880908D01*
X112207483Y-85880908D01*
X112147883Y-85874501D01*
X112147881Y-85874500D01*
X112147873Y-85874500D01*
X112147864Y-85874500D01*
X111052129Y-85874500D01*
X111052123Y-85874501D01*
X110992516Y-85880908D01*
X110857671Y-85931202D01*
X110857670Y-85931203D01*
X110845884Y-85940026D01*
X110780419Y-85964441D01*
X110724124Y-85955318D01*
X110621836Y-85912949D01*
X110621828Y-85912947D01*
X110428543Y-85874500D01*
X110428541Y-85874500D01*
X110231459Y-85874500D01*
X110231457Y-85874500D01*
X110038170Y-85912947D01*
X110038160Y-85912950D01*
X109856092Y-85988364D01*
X109856079Y-85988371D01*
X109692218Y-86097860D01*
X109692214Y-86097863D01*
X109552863Y-86237214D01*
X109552860Y-86237218D01*
X109443371Y-86401079D01*
X109443364Y-86401092D01*
X109367950Y-86583160D01*
X109367947Y-86583170D01*
X109329500Y-86776456D01*
X109329500Y-86776459D01*
X109329500Y-86973541D01*
X109329500Y-86973543D01*
X109329499Y-86973543D01*
X108575500Y-86973543D01*
X108575500Y-85062000D01*
X108595185Y-84994961D01*
X108647989Y-84949206D01*
X108699500Y-84938000D01*
X130125500Y-84938000D01*
X130192539Y-84957685D01*
G37*
%TD.AperFunction*%
%TD*%
M02*
